<?xml version="1.0" standalone="no"?>
<!DOCTYPE svg PUBLIC "-//W3C//DTD SVG 1.1//EN" "http://www.w3.org/Graphics/SVG/1.1/DTD/svg11.dtd" >
<svg xmlns="http://www.w3.org/2000/svg">
<metadata></metadata>
<defs>
<font id="parisbold" horiz-adv-x="1656" >
<font-face units-per-em="2048" ascent="1536" descent="-512" />
<missing-glyph horiz-adv-x="870" />
<glyph horiz-adv-x="2048" />
<glyph horiz-adv-x="2048" />
<glyph unicode="&#xd;" horiz-adv-x="1280" />
<glyph unicode=" "  horiz-adv-x="870" />
<glyph unicode="&#x09;" horiz-adv-x="870" />
<glyph unicode="&#xa0;" horiz-adv-x="870" />
<glyph unicode="!" horiz-adv-x="250" d="M26 105q0 10 5 26l48 -3v-46l-10 -5q-5 -3 -18 -3q-8 0 -13 -1t-2 -1l-5 2q-10 5 -5 31zM31 340v47q3 18 4 34.5t1 41.5q0 15 -1.5 24.5t-1.5 16.5v113v55t3 50q10 102 17.5 199.5t7.5 194.5v82t3 82t4 82t1 82v51q0 13 -1 25.5t-1 28.5v199q0 5 1 11.5t1 14.5 q3 28 4 61.5t1 58.5h51q0 -31 -1 -64t-4 -56q0 -5 -1 -14t-1 -14v-197q0 -15 1 -28t1 -26v-51q0 -44 -1 -82t-1 -82q-3 -44 -3 -82v-82q0 -77 -5 -166.5t-13 -168.5v-18t-2 -18q0 -5 -1.5 -14t-1.5 -12q-5 -26 -5 -51v-51v-28q3 -5 3 -18v-26v-82v-40.5t-3 -33.5 q0 -5 -1.5 -12.5t-1.5 -12.5v-31z" />
<glyph unicode="$" horiz-adv-x="775" d="M25.5 395.5q0.5 14.5 2.5 62.5h54v-64q5 -64 28 -112.5t59 -89.5q18 -26 43.5 -47.5t56.5 -24.5q10 -3 23 -2h41q0 5 -1.5 9t-1.5 9v28q-3 20 -4 48.5t-1 46.5t-1 34.5t-1 31.5v187v62.5t2 62.5q8 82 14.5 165.5t11.5 167.5q-18 20 -32 39.5t-19 29.5l-18 34 q-46 90 -97.5 196t-71.5 211q-8 38 -8 74q0 97 65.5 166t162.5 98q15 5 25 5v13q0 5 1.5 12.5t1.5 15.5q3 31 4 73t1 70h54q0 -28 -1.5 -69t-3.5 -72v-20q0 -5 -1.5 -6.5t-1.5 -9.5h28q36 0 72 -6t64 -22l5 -5q15 -10 37 -24t41 -32t33.5 -41t14.5 -51h-57q3 15 -7.5 30.5 t-27 29.5t-34.5 24t-28 18q-59 26 -113 26h-28v-169q0 -18 1.5 -35t1.5 -32v-59v-96t-3 -96q-3 -44 -4 -96t-1 -98v-54t-3 -54l6 -5l30 -46q33 -44 48.5 -69.5t28.5 -45.5q-3 3 3.5 -11.5t11.5 -22.5q44 -82 74.5 -183t30.5 -198t-44.5 -179t-152.5 -133q-18 -10 -51 -16 v-20q0 -38 -1 -88t-4 -86l-54 15q3 28 4 74t1 85v10h-43h-17t-14 3q-44 5 -78.5 34.5t-54.5 57.5q-31 46 -63 99.5t-37 112.5q-3 5 -2.5 19.5zM159 1554q0 -10 1 -24t4 -27q0 -3 1 -5.5t1 -5.5q23 -92 70.5 -197t91.5 -187h-3l26 -48q0 -3 2 -5v41q0 51 1.5 97t3.5 97 q3 49 3 96.5v95.5v59q0 15 -1.5 32t-1.5 35l-5 156h-7q-84 -20 -135.5 -75.5t-51.5 -134.5zM379 512q0 -54 1 -105t4 -107v-82q0 -13 1.5 -27t1.5 -27v-26l33 10h-3q97 44 132 112t35 147q0 87 -29.5 180.5t-70.5 172.5l-23 39q-20 36 -34.5 66.5t-24.5 40.5l-13 -197 q0 -8 -1 -18t-1 -20q-3 -13 -3 -34q-5 -33 -5 -62.5v-62.5z" />
<glyph unicode="%" horiz-adv-x="1144" d="M54 1454q0 20 2.5 39.5t7.5 32.5v-3q20 67 71.5 119.5t112.5 70.5h-2q13 5 34.5 7.5t49.5 2.5q18 0 29.5 -1.5t24.5 -3.5l38 -16q3 0 5.5 -1t5.5 -1q33 -13 61 -28.5t41 -56.5h-3q20 -28 27 -56t7 -59q0 -49 -14 -98.5t-43 -85.5q-31 -41 -71.5 -69t-84.5 -34 q-5 -3 -15 -2.5t-15 0.5q-67 0 -127 23t-104 87q-20 28 -29 62.5t-9 70.5zM67 28l30 54q0 5 5 10q3 5 5.5 9t5.5 9l5 10l66 131q5 13 11.5 28t11.5 28l8 21q13 31 33.5 70.5t66.5 118.5q15 28 32 66.5t29 74.5l31 64l38 77l44 74l31 59l41 79v-2l25 48l64 126l34 61l46 72 h-3q5 8 7.5 10.5t7.5 9.5q13 18 26 35t36 65l238 446l43 -39l-87 -169l-28 -46q-31 -54 -62.5 -114t-60.5 -116q-5 -3 -7 -8q-3 -3 -13 -18h2q-5 -10 -10 -12.5t-10 -15.5q-13 -15 -28.5 -42t-32.5 -63q-5 -5 -15.5 -23t-23.5 -38l3 2l-13 -25q0 -5 -13 -29.5t-26 -45.5h3 q-5 -13 -14 -25.5t-14 -25.5q-10 -20 -23 -40.5t-26 -41.5l-23 -41q-13 -20 -28 -56t-36 -77l-41 -79q-20 -44 -44.5 -92.5t-57.5 -109.5h2q-69 -131 -130 -262l-59 -140l-8 -6q-31 -33 -43 -79l-31 3zM108 1454q0 -28 3.5 -55t16.5 -40q36 -54 87 -75.5t108 -21.5q5 0 15 5 q36 3 70.5 23.5t62.5 53.5l-3 -3q15 28 32 75.5t17 83.5q0 51 -20 90h2q-20 31 -74 56l-54 21q-20 5 -41 5q-43 0 -66 -8q-51 -13 -89.5 -59t-59.5 -95v3q-5 -13 -6 -29.5t-1 -29.5zM545 476q0 44 14 87.5t40 78t63 58.5t86 32l-3 -2q10 8 21.5 9t19.5 1q36 0 77 -14t77 -40 q36 -28 55 -66.5t19 -74.5q0 -59 -2.5 -93.5t-5.5 -52.5q-5 -56 -39.5 -99.5t-80.5 -61.5q-44 -18 -98 -18q-74 0 -134 38.5t-88 112.5v-2q-20 49 -21 107zM599 476q0 -44 21 -84q26 -59 69 -92.5t99 -33.5q38 0 75 23q33 13 58.5 46.5t30.5 68.5q5 41 9 74.5t4 66.5 q0 26 -14 54t-42 49q-28 20 -59 31.5t-64 11.5q-15 0 -23 -2q-77 -18 -120.5 -81t-43.5 -132z" />
<glyph unicode="'" horiz-adv-x="376" d="M105 1518l69 161l41 87l41 98l54 -3l-49 -123l-51 -87h2q-5 -15 -13.5 -34t-11.5 -27q-5 -13 -14 -37.5t-19 -42.5zM144.5 1483.5q-1.5 -6.5 14.5 26.5h-5q-8 -20 -9.5 -26.5z" />
<glyph unicode="(" horiz-adv-x="427" d="M72 1047q0 143 12.5 280t43.5 276q13 59 28.5 120t27.5 120q5 28 15.5 51t20.5 41l10 16l-2 -3q26 49 33 77l51 -3q-10 -44 -20 -70.5t-21 -46.5q-13 -20 -20.5 -39.5l-12.5 -32.5q-18 -51 -30.5 -107.5t-23.5 -107.5q-5 -15 -5 -28q-28 -136 -41 -273t-13 -275 q0 -236 31 -485.5t95 -482.5l25 -74q13 -31 22 -64t19 -77l-53 -2q-5 18 -11.5 37t-11.5 37l-16 49l-28 81q-67 236 -96 484.5t-29 501.5z" />
<glyph unicode=")" horiz-adv-x="540" d="M64 1984l54 41q8 -33 10 -33q44 -59 56.5 -84.5t25.5 -46.5l15 -28v3q26 -51 33.5 -64t12.5 -24q28 -51 46 -129t31 -152q13 -82 15.5 -171.5t2.5 -174.5v-156q0 -95 -6.5 -191t-11.5 -193q-5 -69 -15 -151t-31 -154l-10 -35l-10 -31l-11 -28q-8 -23 -15.5 -52.5t-15 -54 t-12.5 -38.5t-5 -6l-39 -77v5q-5 -10 -5 -13l-31 -59l-61 5l41 77l46 87v-2q13 44 27 86t27 85l20 64q20 59 28 116.5t13 116.5q0 8 2.5 18t2.5 18v8q0 5 1.5 9t1.5 9q8 97 14 193t6 196v148q0 82 -3.5 166.5t-19.5 166.5q-13 69 -30.5 147t-51.5 142l-30 64 q-20 36 -44.5 78.5t-42.5 65.5l-8 10z" />
<glyph unicode="*" horiz-adv-x="532" d="M38 1580l29 10q31 13 68 27t72 34q-36 23 -75.5 50t-75.5 53l3 64l107 -82q8 0 16 -8h-3q18 -13 28.5 -22t28.5 -22q5 28 10 55t10 48q0 3 1.5 5.5t1.5 7.5q0 13 2 20v13q0 5 3 8h56l-13 -54q-8 -28 -11.5 -50t-8.5 -53q77 44 171 139l5 -62l-2 -10q-38 -38 -73 -62.5 t-78 -47.5q28 -23 55 -43.5t70 -41.5l-2 -58q-44 18 -77 41t-64 51l-10 10v-44q0 -28 2.5 -54.5t12.5 -62.5h-54q-8 36 -10.5 64t-2.5 53v24q0 8 -1 7.5t1 12.5q-23 -13 -58.5 -27t-71.5 -27l-59 -25z" />
<glyph unicode="+" horiz-adv-x="706" d="M72 1001v49h251q3 13 1.5 28t-1.5 28t1 22t1 21q5 59 10 119.5t26 131.5l54 -5q-20 -64 -25.5 -126.5t-10.5 -119.5q0 -13 -1.5 -23t-1.5 -20v-27t-2 -29l92 10q8 0 13 1t10 1q20 5 44.5 6.5t45.5 1.5h51v-49h-51q-15 0 -37 -1t-43 -6q-3 0 -6.5 -1.5t-8.5 -1.5 q-13 -3 -29.5 -4t-24.5 -1q-13 -3 -29.5 -4t-31.5 -1q-3 -8 -4 -23t-1 -21q-13 -67 -14.5 -133t-1.5 -133v-64h-54v64q0 64 1.5 138.5t14.5 140.5v14t2 14v3h-240z" />
<glyph unicode="," horiz-adv-x="320" d="M-59 -276l85 174l48 92q10 20 23 52t18 53l59 -3l-61 -143l-64 -131q-13 -28 -27 -52.5t-22 -44.5z" />
<glyph unicode="-" horiz-adv-x="721" d="M49 1001h225q10 0 23 -1.5t26 -1.5q23 -3 43.5 -2.5t30.5 0.5h263v-56h-266h-29.5t-39.5 2q-10 0 -25.5 1.5t-25.5 1.5h-15l-208 -3z" />
<glyph unicode="." horiz-adv-x="217" d="M61 41l13 74q3 0 13 -1t23 -1h28q0 -26 -2.5 -40t-7.5 -32h-67z" />
<glyph unicode="/" horiz-adv-x="640" d="M92 -169l16 69q10 41 17 85l16 97q0 3 1 5.5t1 7.5q3 20 4 43t7 39l25 135l18 92q0 13 3 18q0 5 1 8t1 8q5 23 9 46t12 46l23 95q20 87 40.5 172.5t38.5 167.5q10 56 30.5 160t41.5 201q3 18 6.5 32t3.5 32l26 131q5 44 11.5 86t13.5 80q10 33 13 77l15 66l11 41l15 72 q5 15 10 39.5t5 29.5h46q-8 -102 -23 -151l-7 -25q-5 -15 -5 -21q-3 -20 -5.5 -38t-7.5 -29l-23 -125l-18 -107q-8 -44 -23.5 -121t-32.5 -159q-13 -67 -24.5 -138t-24.5 -138t-29.5 -139.5t-37.5 -144.5q-3 -13 -6.5 -24.5t-5.5 -24.5l-26 -107q-13 -38 -18 -67 q0 -15 -3 -23q-5 -15 -5 -28q-5 -28 -8.5 -57.5t-9.5 -57.5l-20 -113v3l-10 -75q-8 -54 -21 -117q-5 -33 -14 -69t-22 -85h-51z" />
<glyph unicode="0" horiz-adv-x="862" d="M133 903.5v146.5v243q0 59 4 121.5t19 121.5v-3q0 3 1.5 4.5t1.5 6.5v17.5t2 25.5q3 18 5.5 34.5t7.5 32.5q13 41 41 85.5t72 78.5q31 20 71.5 33t92.5 13q44 0 79.5 -11.5t63.5 -29.5q26 -20 47.5 -55t34.5 -63q18 -41 24.5 -105t8.5 -102q3 -44 5.5 -67t2.5 -36v-16.5 v-6.5v-18l2 -89q3 -59 4 -136t1 -128q0 -97 -1 -198.5t-4 -200.5q0 -13 1.5 -36t1.5 -36v-18v-18t-3 -28q-3 -31 -6.5 -79.5t-13.5 -92.5q-13 -59 -38.5 -119t-69.5 -106q-36 -28 -79.5 -48.5t-104.5 -20.5q-97 0 -146 46h3q-41 23 -59 48.5t-31 53.5q-26 67 -32 144t-6 156 v138v123v79q-3 44 -3 115.5zM184 896q0 -56 3 -108v-79q0 -28 1 -57.5t1 -65.5v-138q0 -51 3 -107.5t15 -104.5q10 -51 29.5 -89.5t52.5 -64.5q18 -13 49 -20.5t74 -7.5q44 0 77 14t61 37q51 59 75 131q28 74 34.5 141.5t6.5 96.5q3 15 2.5 24t-0.5 14l-2 13v79q3 100 4 200 t1 197q0 64 -1.5 130.5t-3.5 133.5q-3 20 -3 35.5v23.5q0 5 1.5 10t1.5 10q-3 46 -4.5 75.5t-2.5 47.5t-2.5 28t-1.5 21l-5 79q-8 46 -27 92t-47 82h3q-23 18 -56.5 32t-71.5 14q-72 0 -115.5 -28t-71.5 -72q-23 -26 -32 -57.5t-14 -62.5q-5 -20 -5.5 -25.5t-0.5 -7.5 l-5 -41q-13 -54 -18 -115.5t-5 -112.5v-246v-151z" />
<glyph unicode="1" horiz-adv-x="593" d="M18 1418l90 98l102 107l18 18q36 36 66.5 71.5t48.5 59.5q15 26 33 45t31 31l10 11l44 -6v-110q0 -20 -1.5 -36.5t-1.5 -32.5v-210q0 -146 -7 -284q0 -18 -1.5 -45t-1.5 -44q-3 -49 -4 -99t-1 -99q0 -44 1 -88.5t4 -85.5q3 -26 3 -62.5v-57.5v-42t-3 -40v-28v-34.5 t3 -32.5q3 -15 4 -29t1 -29v-21l-8 -166v-38.5t-3 -43.5q0 -18 -1 -46.5t-1 -40.5h-39l-15 15q5 82 7.5 165t5.5 160v16q0 15 -1.5 29t-3.5 29v-2q-3 13 -3 33.5v35.5v33q5 20 5 38.5v38.5v57.5t-5 60.5q-3 44 -4 88.5t-1 87.5q0 49 1.5 96.5t3.5 93.5q0 20 1.5 48.5 t1.5 48.5q8 138 7 284v210q0 15 1.5 32t1.5 37v26l-28 -31v3q-28 -44 -65.5 -85t-67.5 -71v2l-67 -79l-54 -56l-71 -75z" />
<glyph unicode="2" horiz-adv-x="768" d="M33 -3l3 41l25 54v-2q8 26 15.5 52.5t18.5 46.5v-2q20 54 40.5 109t41.5 91q26 41 48.5 92t40.5 94l80 154l35 54l26 46q38 59 73 121.5t55 126.5q0 3 2.5 6.5t2.5 6.5l28 79v-2q13 33 23.5 70t15.5 65q3 38 10 59q0 3 1.5 4t1.5 7l5 30q5 26 8.5 50.5t3.5 41.5v16 q-3 41 -5 85.5t-15 88.5q-10 31 -35.5 63t-61.5 47h2q-36 13 -73 16.5t-70 3.5q-59 0 -115.5 -16.5t-91.5 -54.5q-31 -33 -44 -87t-13 -110q0 -38 4 -79.5t14 -76.5h-54q0 3 -1 9t-1 11q-5 28 -7.5 62.5t-2.5 73.5q0 64 14 128t50 110q49 44 112.5 61.5t135.5 17.5 q44 0 82 -4t74 -16q51 -20 85.5 -61.5t50.5 -84.5q13 -44 15.5 -94t4.5 -93v-16q0 -31 -5 -57.5t-10 -54.5q-13 -38 -16 -92q-5 -36 -16.5 -67t-23.5 -59v3q-5 -5 -6 -13q-8 -20 -15.5 -44.5t-12.5 -47.5q-18 -56 -53.5 -119t-71.5 -117l-67 -120q-18 -31 -34.5 -68 t-34.5 -73l-31 -61l-71 -141q-13 -20 -28.5 -58.5t-30.5 -77.5l-16 -43l-40 -105q0 -5 -3 -13t-3 -13q20 0 41 1.5t41 3.5q13 0 26 1.5t26 1.5q20 3 47 4t52 1h34.5t32.5 -5h138h69.5t56.5 -3v-59q-46 8 -72 9.5t-54 1.5h-143q-15 3 -29.5 2.5t-32.5 -0.5q-28 0 -52 -1 t-50 -4q-13 0 -27 -1t-27 -1q-26 -3 -57.5 -4.5t-57.5 -1.5h-31z" />
<glyph unicode="3" horiz-adv-x="691" d="M67 264h48q3 -51 15.5 -106.5t48.5 -78.5q23 -15 50 -21.5t50 -6.5h21.5t24.5 3q36 0 70.5 25.5t65.5 61.5q28 36 47 77t19 69v207q0 23 1.5 47.5t1.5 44.5q0 13 -1.5 22t-1.5 22v89q-3 38 -7.5 77t-33.5 72q-28 31 -90.5 63t-154.5 55h-11q-5 0 -7.5 1t-4.5 1 q-28 5 -55 7.5t-55 2.5l-29 6q5 20 11.5 38t22.5 41l46 64v5l7 13q36 44 63 84.5t42 66.5q36 46 69.5 117.5t69.5 151.5l35 84q5 10 16 21q15 18 33 46l23 30h-2l10 13l25 33h-140q-5 0 -10.5 1.5t-10.5 1.5q-15 0 -25 -3h-149q-28 0 -60 -1t-86 -9v51q44 5 78.5 6.5 t67.5 1.5h133q8 5 19.5 5h21.5h22t24 -2q5 0 7.5 -1.5t8.5 -1.5h69h36t35 -2h26l-3 -26q-18 -28 -32 -52.5t-26 -39.5q-13 -15 -26 -36t-33 -59q-15 -31 -29.5 -61.5t-27.5 -61.5l-10 -18q-20 -46 -46 -99.5t-69 -117.5q-13 -20 -31 -47.5t-38 -55.5h2q-3 -5 -4 -2.5 t-3 -2.5q-23 -31 -47.5 -68t-45.5 -65h3l-3 -3q28 -3 56.5 -4t46.5 -6q100 -20 173 -58.5t103 -74.5q36 -44 42.5 -91t6.5 -91v-89q0 -13 1.5 -22t1.5 -22q0 -20 -1.5 -44.5t-1.5 -49.5v-205q0 -41 -19 -91t-55 -94q-33 -36 -75.5 -66.5t-91.5 -35.5q-13 -3 -28 -3h-28 q-31 0 -66.5 10.5t-87.5 51.5l26 -18q-51 36 -66.5 102.5t-17.5 120.5z" />
<glyph unicode="4" horiz-adv-x="704" d="M33 742q31 59 47.5 119.5t34.5 118.5q23 72 47.5 147.5t52.5 132.5q31 67 59 134.5t56 133.5q3 8 8 18t10 18l18 46q28 64 55 134.5t58 129.5l46 -3v-64q-3 -74 -4 -143t-1 -143v-69v-232t2 -232v-184q0 -13 1.5 -23t1.5 -26h123v-48h-123v-407q0 -67 1 -146.5t6 -150.5 h-53q-5 69 -5 149.5v147.5v407h-85q-10 0 -20.5 -1.5t-22.5 -1.5q-18 -3 -42.5 -3h-42.5h-56q-10 0 -19 1.5t-20 1.5h-63.5t-64.5 3zM97 753h75q8 0 15.5 -1.5t17.5 -1.5h56h42t43 3q13 0 23 1t20 1h85q0 13 -1.5 24.5t-1.5 24.5v59q-3 20 -3 62.5v62.5q0 49 -1 110.5 t-1 125.5v122.5v105.5v69v61.5v37v37t2 58.5q-20 -41 -39 -87t-35 -89q-3 -8 -6.5 -17t-6.5 -14l-28 -72q-20 -51 -42 -102t-47 -103q-26 -56 -44 -107t-33 -100q-5 -15 -10 -30.5t-11 -30.5q-5 -15 -8.5 -29.5t-9.5 -27.5q-13 -38 -24 -75t-27 -78z" />
<glyph unicode="5" horiz-adv-x="704" d="M92 993v179v123t3 123q5 23 5 45v42v36q0 10 -1.5 20.5t-1.5 23.5q-3 20 -2.5 45.5t0.5 41.5v181h77q8 0 15.5 -1t17.5 -1h61q20 -3 41 -3h41h54t54 3t52 2.5t50 -0.5q8 0 18 1.5t44 14.5v-57q-15 -5 -33.5 -5h-28.5q-108 -5 -178 -5h-114h-30.5t-33.5 3q-5 0 -14 1 t-16 1h-26v-179q0 -13 1 -23t1 -20v-80v-45.5t-2 -46.5q0 -23 -1.5 -55t-1.5 -65v-62.5v-52.5q0 -20 -1 -38.5t-1 -38.5v-62h20q97 0 193.5 -17.5t162.5 -69.5q23 -20 39.5 -43t22.5 -44q18 -82 21.5 -158.5t3.5 -158.5v-46v-70.5t-2.5 -57.5t-7.5 -59t-13 -74 q-5 -33 -20.5 -75.5t-45.5 -86.5q-26 -31 -63 -55t-88 -24h-18q-49 0 -91.5 9t-80.5 35q-36 28 -55 66t-19 102v31h48v-31q0 -54 14.5 -85.5t39.5 -47.5q49 -26 144 -25h18q41 0 69 16.5t48 44.5q15 28 29.5 65.5t21.5 70.5q8 41 13 70.5t8 53.5t3 50v56v67q0 74 -4 149.5 t-25 154.5q-8 36 -61 77q-5 5 -27 14t-35 14q-56 15 -120 23t-123 8z" />
<glyph unicode="6" horiz-adv-x="686" d="M67 404q0 97 7.5 207.5t17.5 182.5q15 90 26 130l36 118q0 10 2 13q0 3 1.5 4t1.5 3q26 84 45 132t39 94q20 44 35.5 80.5t31.5 77.5l89 190q38 67 80.5 133.5t83.5 109.5l31 -41q-33 -36 -69 -93.5t-69 -116.5h2q-36 -67 -61.5 -120.5t-32.5 -76.5q-18 -49 -31 -82 t-26 -61v2l-18 -41q-26 -49 -43.5 -96t-35.5 -103q-5 -15 -7.5 -28t-7.5 -26l-11 -41l-12 -44q-8 -23 -13 -48.5t-13 -84.5l-3 -25l31 23q64 38 136 38q36 0 79.5 -13t71.5 -25q67 -41 100 -109t35 -142v-18q0 -28 -2.5 -69t-6 -87t-11.5 -91t-15 -83q-5 -26 -17 -51.5 t-24 -38.5q-36 -41 -92.5 -64t-110.5 -26q-51 0 -86.5 18t-71.5 49q-28 26 -48.5 64t-31.5 82q-5 38 -8.5 87t-3.5 107zM115 404q0 -51 4 -98t12 -83q10 -33 26.5 -66.5t42.5 -56.5h-3q28 -18 55 -33.5t63 -12.5q46 0 92 18t72 46v-3q8 13 15.5 28.5t12.5 45.5q8 28 14 54 t11 54q10 61 13 116t3 94v18q-3 67 -29.5 120.5t-80.5 81.5q-59 33 -128 33q-59 0 -105 -25q-26 -15 -45 -38.5t-32 -59.5v3q-5 -59 -9 -118t-4 -118z" />
<glyph unicode="7" horiz-adv-x="650" d="M64 5q20 108 49.5 201.5t60.5 187.5q3 8 6.5 18t6.5 21q20 64 39.5 128t39.5 138q23 92 44 194q3 20 5 36t8 36l15 72q13 46 25.5 88t25.5 83q0 15 6.5 32t11.5 30q0 5 1.5 9t1.5 9l34.5 103.5t29.5 108.5l33 123q13 38 23 78t18 76v-3q0 5 1 7.5t1 7.5q3 10 4.5 14 t1.5 9h-233q-56 0 -125.5 -1t-125.5 -6v48q56 5 125 6.5t126 1.5h84l184 -5q10 -10 11.5 -15t1.5 -13q0 -13 -1 -29.5t-7 -34.5q0 -8 -5 -18q0 -5 -2.5 -9t-2.5 -9l-13 -64l-38 -143l-8 -29q-28 -125 -71 -245q-18 -44 -31 -94t-26 -101l-7 -28l-11 -59l-61 -281 q-13 -44 -24.5 -85t-24.5 -77l-30 -107l-21 -64q-28 -84 -56 -175.5t-49 -178.5l-28 6z" />
<glyph unicode="8" horiz-adv-x="652" d="M72 1531q0 51 2.5 93.5t7.5 75.5q10 41 21.5 71.5t27.5 43.5q44 31 94.5 43.5t94.5 12.5h23q46 -5 84.5 -11.5t81.5 -31.5q20 -15 36 -34.5t21 -42.5q5 -20 7.5 -44.5t2.5 -47.5q0 -26 -1.5 -46.5t-3.5 -38.5q-3 -5 -3 -12q0 -5 -1 -10.5t-1 -10.5q-3 -41 -8 -111.5 t-23 -136.5q-5 -18 -18 -45t-31 -52l-2 -6v3l-31 -51q-18 -28 -36 -54t-30 -46l-23 -28h2l-18 -34q13 -20 29.5 -39t29.5 -40q51 -64 92 -133t49 -131q5 -28 7.5 -61t2.5 -69v-123q0 -13 -1 -23t-1 -23q0 -28 -1.5 -69t-9.5 -77q-8 -38 -24.5 -74t-52.5 -62h3 q-33 -31 -85.5 -43.5t-103.5 -12.5q-28 0 -51.5 2.5t-38.5 10.5q-23 5 -39.5 21.5t-21.5 34.5l2 -2q-13 20 -22 38t-14 36q-10 41 -11.5 82t-1.5 79q0 18 -1 36t-1 36q0 10 -1.5 17.5t-1.5 15.5q-3 28 -4 61.5t-1 58.5v34.5t3 32.5q5 31 10 55t14 46t23 45t37 56 q36 51 60.5 92t52.5 103l-15 23v-3l-16 23l-13 16h3q-61 90 -99.5 169t-51.5 130q-5 36 -7.5 83.5t-2.5 98.5zM120 1531q0 -44 4 -90t12 -82q13 -54 50 -126.5t83 -154.5q18 -28 43 -51q18 23 38.5 51t36.5 54h-3l13 17q8 10 13 21q26 36 46 71.5t25 64.5q18 69 26 135.5 t13 104.5q0 5 1 9t1 9q3 10 3 21q3 20 4 38t1 36q0 15 -2.5 37t-10.5 42v-2q-8 15 -18 29t-18 22h3q-28 18 -62.5 23t-78.5 10h-26q-38 0 -75 -8t-63 -28q-13 -13 -24.5 -37t-18.5 -60q-10 -33 -13 -73t-3 -83zM122.5 558q0.5 -13 0.5 -31q0 -56 8 -117q0 -8 1 -15.5 t1 -15.5q3 -18 4 -41t1 -44q0 -44 6.5 -105t27.5 -97q5 -10 16.5 -16.5t23.5 -11.5h-2q31 -10 72 -10q44 0 87 10t64 26h2q20 15 34.5 47t22.5 68q8 33 9 66.5t1 66.5q0 13 1 23t1 23v123q0 59 -10 118q-5 49 -28 94.5t-54 92.5q-13 28 -37 56t-50 61l-8 11 q-20 -31 -43 -60.5t-44 -65.5q5 5 2.5 1.5t-7.5 -11.5t-12.5 -18t-10.5 -15q-20 -28 -33 -47.5t-20.5 -37.5t-11.5 -41t-12 -59v3q-3 -18 -2.5 -31z" />
<glyph unicode="9" horiz-adv-x="675" d="M61 1324v15q0 26 3 68t8 90.5t12.5 97.5t17.5 87q10 28 20.5 50t25.5 42q36 44 91 64.5t112 22.5q44 0 84.5 -19t76.5 -47q26 -26 42.5 -63t26.5 -76q10 -41 12.5 -90.5t2.5 -108.5q0 -92 -7 -195q-3 -13 -4 -27t-1 -29q-5 -13 -6.5 -28.5t-4.5 -30.5q-3 -23 -5 -48.5 t-5 -48.5l-13 -41q-5 -13 -5 -22t-2 -17q-5 -20 -5 -33q-8 -20 -14.5 -37t-19.5 -55q-3 -3 -2 -5v-3q-20 -64 -37 -112.5t-35 -94.5l-23 -62l-59 -151l-2 -5q-13 -26 -31 -68t-62 -116h3q-28 -61 -69 -122.5t-82 -105.5l-26 28v26q26 26 59.5 77t58.5 99l28 46h-2 q28 56 49.5 101t27.5 66l56 136q26 61 49 129t46 142q0 10 2 13q0 3 1.5 4t1.5 6q13 41 16.5 59t11.5 28l8 28q5 20 10 38t10 39l8 46q0 3 -1.5 -3.5t1.5 6.5q-44 -46 -88.5 -64t-91.5 -18q-36 0 -76.5 12.5t-68.5 25.5q-64 38 -97.5 106t-36.5 148zM110 1324 q3 -67 28.5 -122t84.5 -86q23 -13 53.5 -23t63.5 -10q49 0 104 30.5t91 107.5v-5q5 59 9 119t4 122q0 51 -2.5 98.5t-13.5 88.5q-10 31 -26.5 62.5t-42.5 57.5q-23 20 -49.5 34t-62.5 14h-3q-44 -3 -88.5 -19t-72.5 -50q-5 -8 -13 -25.5t-15 -38.5q-3 -3 -3 -5v-2l-23 -105 q0 -3 -1 -7t-1 -9q-13 -64 -17 -122.5t-4 -89.5v-15z" />
<glyph unicode=":" horiz-adv-x="279" d="M110 46q3 15 6.5 32t3.5 32q3 0 28 -5q10 -3 24 -3q0 -28 -6 -43q0 -5 -1 -11.5t-1 -11.5zM113 704q0 10 2 20q5 20 5 24l3 20l25 5l24 3v-46q0 -5 1 -13t1 -10z" />
<glyph unicode=";" horiz-adv-x="284" d="M-59 -276l85 174l48 92q10 20 23 52t18 53l59 -3l-61 -143l-34 -69l-46 -98l-33 -66zM115 681l16 84q10 0 19 -1t16 -1h18q0 -28 -2.5 -41t-4.5 -23q0 -5 -1.5 -10t-1.5 -8h-59zM115 681l16 84q10 0 19 -1t16 -1h18q0 -28 -2.5 -41t-4.5 -23q0 -5 -1.5 -10t-1.5 -8h-59z " />
<glyph unicode="&#x3c;" horiz-adv-x="499" d="M26 963q74 79 120 143l49 54l41 41l25 28l51 51l13 5l-8 -2q10 8 20.5 19t20.5 39l39 -38q-10 -15 -21 -28q-8 -13 -15.5 -22t-4.5 -6l-13 -13l-69 -64l-46 -51q-15 -15 -28 -32t-31 -37l-38 -39q-18 -18 -17 -18t-1 -5q-8 -10 -12 -17.5t-14 -18.5q5 -5 9 -7.5t6 -7.5v3 l26 -29l87 -102l69 -85q5 -5 22 -20t22 -20q13 -13 38.5 -44t73.5 -79l-36 -31h-15q-41 44 -60 68t-32 37q-5 5 -2.5 3.5t-2.5 4.5l-44 51v-3q-13 13 -27 29.5t-34 42.5v-3l-23 28l-8 8q-18 20 -33 39.5t-31 34.5l-15 11z" />
<glyph unicode="=" horiz-adv-x="972" d="M131 888h348q26 0 50 -1t44 -1h290v-49h-382q-28 0 -53.5 1.5t-43.5 1.5h-212zM143 1137v53h343q13 0 28.5 1.5t28.5 1.5h23q18 0 61.5 -1.5t89.5 -2.5t88 -1h63l-3 -54h-61t-88.5 1.5t-89.5 2.5t-63 1h-28q-13 0 -24.5 -1t-21.5 -1h-346z" />
<glyph unicode="&#x3e;" horiz-adv-x="522" d="M51 1288l26 48q23 -10 35.5 -19t20.5 -19v2l15 -15q23 -28 47.5 -55t47.5 -50l26 -23l87 -87l41 -54v3l43 -44q8 -5 15.5 -12.5t18.5 -17.5l-26 -26q-33 -28 -51 -46t-33 -41q-5 -10 -17 -25.5t-17 -23.5l-64 -71v2q-10 -15 -21.5 -30.5t-21.5 -30.5q-23 -44 -60.5 -83.5 t-80.5 -75.5l-18 56q41 33 73 68t50 60q26 44 50 77t50 62l13 15l12 18l18 23v-3q15 18 30.5 38.5t33.5 36.5q-10 10 -19 22.5t-19 25.5l-21 23v-2l-125 125l-62 62l-35 41q-8 13 -24.5 27t-37.5 19z" />
<glyph unicode="?" horiz-adv-x="614" d="M56 1636q0 38 5 64v8q0 5 1.5 10t1.5 10q3 15 5.5 30.5t12.5 33.5h-3q20 38 54 49q23 13 34.5 15.5t21.5 7.5l16 5h-3q31 10 80 10q59 0 102 -28q23 -13 41 -33.5t26 -53.5v-16q0 -5 2 -7q5 -26 5 -51q0 -56 -28 -123t-61 -126l-46 -77q-41 -54 -80 -148 q-26 -56 -31 -115t-5 -118v-69t3 -62v-61v-61v-228v-69v-23q0 -8 -1.5 -17t-1.5 -17v-72.5t-2 -62.5h-39l-18 18q5 23 5.5 57.5t0.5 64.5v26q0 5 1 13t1 15q3 15 3 32v35v228q0 15 -1.5 30.5t-1.5 30.5v61q-3 26 -2.5 64.5t0.5 66.5q0 67 6 133.5t35 125.5l7 -8 q5 20 27 63.5t45 79.5q13 20 27 46t27 46q31 51 52.5 107.5t21.5 113.5q0 13 -1.5 29.5t-3.5 28.5q-8 20 -18 41t-23 29l2 -3q-20 8 -36.5 11.5t-39.5 3.5q-15 0 -30.5 -1t-33.5 -6q-5 -3 -6.5 -5.5t-6.5 -2.5q-13 -5 -27 -10t-32 -18q-8 -3 -18 -21l3 3q-10 -23 -13 -49 v-18t-3 -15q-5 -20 -5 -54zM136 61q3 13 5 27t2 27q5 0 31 -5q10 -3 26 -2q0 -28 -5 -44q0 -5 -1.5 -11.5t-1.5 -11.5h-36z" />
<glyph unicode="@" horiz-adv-x="1507" d="M61 922q0 59 6.5 107.5t19.5 96.5q44 161 161.5 288t271.5 186q102 36 210 36q118 0 238 -48.5t210 -125.5q90 -79 147 -189.5t57 -230.5q0 -44 -7.5 -92.5t-27.5 -86.5v2q-38 -97 -92 -179t-144 -125l-51 -34q-15 -8 -34.5 -14t-42.5 -6q-46 -1 -69 43q-26 38 -26 121 v20t3 21q-20 -31 -43.5 -60.5t-48.5 -52.5q-41 -33 -98.5 -58.5t-109.5 -25.5q-31 0 -69 10t-71 31q-56 36 -77 94.5t-21 117.5v33t5 31q10 59 36 134.5t69 141.5q44 67 106.5 115.5t142.5 66.5q69 15 128 16q87 0 135 -41q13 -13 24.5 -27t14.5 -19q5 13 6 11.5t9 11.5 q0 5 2.5 17.5t2.5 15.5l49 -46q-33 -49 -51 -101.5t-34 -100.5q-5 -10 -5 -16q-28 -115 -42 -203.5t-14 -136.5q0 -36 4 -61.5t11 -36.5q10 -13 31 -12q5 0 15.5 2.5t22.5 7.5q3 0 7 1t9 1l10 6l-3 -3l39 26q74 44 125.5 120.5t86.5 158.5v-3q18 44 26 86t8 78 q0 113 -54 210t-138 169q-82 74 -188.5 117.5t-218.5 43.5q-95 0 -187 -36h2q-64 -26 -126.5 -72t-116.5 -104.5t-96 -125t-68 -133.5q-23 -90 -23 -189q0 -61 11.5 -126.5t33.5 -128.5t54 -118t73 -96q46 -36 107.5 -69t128 -58.5t133 -42.5t122.5 -17h23q36 3 78.5 12 t82 21.5t76.5 29.5t63 37q113 79 199 215l34 -28q-90 -133 -205 -225q-64 -51 -155 -78t-170 -32h-26q-67 0 -138.5 14t-140.5 39.5t-133 62.5t-113 81q-49 46 -84.5 105t-60 126.5t-36 138t-11.5 137.5zM409.5 796q0.5 -15 0.5 -28q0 -49 15 -98.5t54 -78.5q44 -26 112 -25 q44 0 90 23t82 51q61 61 97 134t56 142q5 28 11.5 54t12.5 54q0 8 7 15h-2q5 13 8.5 27t9.5 30q0 15 7 28q0 5 5 10q-3 61 -41 90q-28 28 -94 28q-26 0 -56.5 -2.5t-61.5 -10.5q-64 -20 -123 -63.5t-95 -97.5q-36 -56 -59 -125.5t-33 -128.5q-3 -13 -2.5 -28z" />
<glyph unicode="A" horiz-adv-x="1024" d="M51 3q10 79 23 139t31 119q13 46 23 92t15 90q18 108 45 215t55 212l39 136l2 5q20 79 44.5 160t45.5 153l28 87l13 38q8 23 16.5 47.5t16.5 39.5v-3q8 23 11.5 47.5t8.5 50.5l8 30q8 26 8 47l8 23q13 36 21.5 75.5t13.5 82.5q5 -5 22 -3.5t19 8.5q26 -41 30 -74t6 -59v3 l8 -49q5 -26 10 -48.5t10 -48.5l23 -113q5 -38 13 -79l16 -82l5 -31v3q8 -51 16.5 -98.5t13.5 -98.5q13 -79 31 -167.5t37 -178t38.5 -177t37.5 -163.5q5 -26 12.5 -50.5t15.5 -47.5l10 -28l33 -107l16 -67l5 -20q5 -23 11.5 -50t24.5 -55h-59q-20 33 -26.5 61t-12.5 54 q-3 31 -12 64l-29 95q-13 36 -23 69t-17 69l-6 36q-33 123 -63.5 257t-51.5 262q-36 0 -65.5 -1t-59.5 -4q-10 0 -19 -1t-20 -1h-69q-5 0 -9 -1.5t-9 -1.5h-18h-21.5t-24.5 3q-5 0 -20 5h2q-15 5 -28 5l-15 -59q-5 -18 -9 -33.5t-9 -30.5q-28 -95 -56.5 -211.5t-45.5 -213.5 q-5 -28 -11.5 -55t-11.5 -52l-16 -75q-13 -54 -25.5 -110t-22.5 -138zM343 1024l41 -8h105q56 5 96 6.5t96 1.5q-5 15 -5 23l-10 61q-5 51 -14 97.5t-17 97.5l-5 28q-8 38 -15.5 82t-12.5 79l-18 113q-5 26 -10.5 50t-10.5 47l-5 44v8l2 -2l1 -1l-3 5l-10 -31l-10 -28 q-8 -13 -10.5 -27t-5.5 -29v-15q-5 -28 -9 -54t-14 -51l-38 -105l-36 -108q-26 -67 -45 -138.5t-37 -145.5z" />
<glyph unicode="B" horiz-adv-x="780" d="M112 20q0 5 1 8v10v13l7 80v20q3 26 4 49t1 48q5 54 5.5 105t0.5 105v241q-3 31 -3 73v70v49q0 18 -1.5 36t-3.5 38q-3 31 -4 60.5t-1 62.5v154q0 13 1 27t1 29q0 51 1.5 101t3.5 96q3 49 4.5 96t1.5 93v85t-6 84l6 23q23 5 35.5 6.5t22.5 1.5q5 0 9 -1t9 -1h82 q23 0 50 -3t48 -13q13 -5 32 -15t37 -21l43 -25v2q38 -18 69 -50t64 -73q46 -61 64 -143t18 -156v-38q-3 -41 -20.5 -81t-44.5 -74.5t-61.5 -64t-67.5 -52.5l-41 -20q33 -18 63.5 -42.5t53.5 -49.5q28 -33 49 -68t28 -78q8 -36 8 -80q0 -54 -8 -100q-5 -31 -16.5 -68 t-24.5 -72l-10 -34q-10 -28 -20.5 -53.5t-30.5 -61.5h2q-3 -5 -2 -5l-13 -8h5l-15 -18q-13 -28 -28.5 -51t-35.5 -41l-33 -33q-13 -13 -26 -24.5t-26 -24.5q-41 -41 -90.5 -78t-116.5 -57q-5 0 -8 -3l-30 -8q-9 -1 -17 -1q-20 0 -23 10q-2 8 -2 14zM169 92l3 -33h5 q44 15 96 52t88 73q28 31 59 59l28 23q23 20 34.5 38.5t24.5 33.5l28 38h-3q10 26 20.5 56.5t20.5 59.5q0 8 6 12v5l10 29q10 26 17.5 55t13.5 57q7 41 7 78v9q0 36 -7 67q-5 36 -22 64t-40 56q-33 44 -85.5 70.5t-103.5 37.5h-21t-18 2q-3 0 -5 1.5t-5 1.5h-8 q-5 0 -8.5 -1.5t-11.5 -1.5h-18q-3 0 -4 -1t-4 -1h-10q-5 -3 -15.5 -3h-15.5q-10 -5 -23 -5h-28v-28q3 -23 4 -54t1 -51v-96t3 -96q3 -20 2.5 -47t-0.5 -45v-105q0 -10 -1 -20.5t-1 -23.5v-106t-3 -106l-7 -115q0 -5 -1.5 -9t-1.5 -9v-21zM172 1091l2 -13h3q3 0 4 1t6 1 q15 0 25 3q8 3 26 4t31 1q8 3 22 3h21h14t14 -3h23.5t20.5 -3q26 5 64 17t59 24v-2q26 18 52.5 42t48.5 52.5t36 60.5t16 68v38q0 72 -15 147.5t-54 126.5v-3q-28 31 -52 55.5t-63 44.5l-61 31l-16 10q-10 5 -17.5 11.5t-12.5 6.5q-36 13 -80 13h-82q-5 0 -8.5 1t-9.5 1h-7 q5 -28 3.5 -55t-1.5 -57v-36q0 -44 -1 -92.5t-4 -97.5q0 -10 -1 -22.5t-1 -23.5q-3 -36 -4 -76.5t-1 -76.5v-202z" />
<glyph unicode="C" horiz-adv-x="1615" d="M76 775v5q0 19 1 32q0 28 1 60t6 60q13 87 31 180.5t49 172.5q23 74 59 153.5t89 133.5q118 110 265 192t314 89h33q8 0 15.5 1.5t17.5 1.5h59q59 0 113 -4t100 -16q90 -20 169 -84.5t125 -148.5l-41 -39q-44 82 -114 139.5t-152 75.5q-46 13 -97 18t-103 5 q-8 0 -15.5 -1t-14.5 -1h-90q-72 -5 -145 -29.5t-143 -61.5t-135.5 -83t-121.5 -95q-46 -51 -79.5 -123t-56.5 -141q-28 -72 -44.5 -160t-29.5 -165q0 -5 -1.5 -10t-1.5 -10q-5 -28 -6 -57.5t-1 -52.5v-32.5t2 -31.5v-24q3 -38 5.5 -75t15.5 -73q20 -59 58.5 -124t81.5 -117 q46 -44 106.5 -91t114.5 -75q56 -28 106 -41t106 -26q28 -10 61.5 -12.5t61.5 -2.5h55t55 3q54 3 116.5 11.5t119.5 29.5q97 49 163 107q8 8 23.5 22t29.5 32t24 36t10 30l57 -2q-3 -46 -32.5 -82t-54.5 -62l-13 -12l-5 -5q-44 -36 -88.5 -63t-88.5 -50 q-49 -23 -125.5 -33.5t-135.5 -12.5q-23 -3 -55 -3h-55q-36 0 -72 2.5t-64 10.5q-133 33 -225 69q-136 67 -230 182q-49 51 -95 125.5t-67 140.5q-10 36 -12.5 77t-5.5 82v26q-3 11 -3 27z" />
<glyph unicode="D" horiz-adv-x="1159" d="M113 1892l35 2q8 0 28.5 -1t38.5 -4q5 0 11.5 -1t11.5 -1q3 0 8 -1.5t10 -1.5l136 -25q82 -28 172.5 -63t165.5 -96h-3q87 -64 153.5 -150t110.5 -170q28 -61 44.5 -129t29.5 -140l5 -31q5 -31 7.5 -65.5t2.5 -67.5q0 -28 -1 -51t-4 -44q-13 -72 -32 -130.5t-47 -117.5 q-28 -61 -66.5 -124t-89.5 -119l-59 -51l-26 -26q-13 -13 -29.5 -28t-57.5 -44q-51 -36 -108.5 -70t-101.5 -55q-26 -13 -63 -28t-80 -33q-20 -5 -44.5 -8t-47.5 -5h-13q-5 0 -6.5 -1.5t-3.5 -1.5h-44q-5 110 -6.5 233t-1.5 233v123q0 31 1.5 61.5t1.5 63.5v246 q0 110 -6.5 217.5t-13.5 223.5q-3 38 -3 79v84v114t-5 114q0 3 -1.5 5.5t-1.5 4.5v11h3q-8 18 -10 69zM174 1833q0 -5 5 -26q5 -59 5 -116.5v-116.5v-84.5t3 -78.5l2 -85q5 -82 8 -178t3 -178v-494q0 -108 1 -206t6 -206h5q20 3 42.5 5t42.5 10q61 18 136 57q54 26 106 55 t93 62q31 28 63 56.5t60 54.5l10 10l34 30q44 44 80.5 105.5t65.5 120.5q28 61 46 116t30 114q3 18 4.5 42.5t1.5 44.5q0 31 -4 61.5t-9 64.5q-13 67 -32 139.5t-48 141.5q-41 79 -103.5 165t-134.5 145h3q-28 20 -68 39.5t-84.5 38.5t-89.5 34.5t-83 28.5q-69 18 -131 23 q-5 0 -7.5 1t-7.5 1t-11.5 1.5t-11.5 1.5h-31z" />
<glyph unicode="E" horiz-adv-x="842" d="M61 3l3 33q5 13 5 22v21v54v51.5t3 56.5q0 5 1 12.5t1 12.5q8 79 9 161t1 162v82v75t3 71v69q0 20 1.5 39.5t1.5 31.5q0 8 -1.5 15.5t-1.5 15.5v85l-5 48l-5 54q-5 28 -7.5 61.5t-2.5 63.5v21q0 3 1 4t1 4v87v40.5t3 43.5l7 95q0 8 1.5 19.5t1.5 21.5q3 31 9 41t11 13 l-15 -6v87.5t3 87.5q0 5 1 14t1 14h69q10 0 18 -1.5t18 -1.5h115h106.5t111.5 -5l143 -8q10 -3 36 -2h15q5 0 26 5l21 5v-67q-8 -3 -16 -2h-28h-10q-3 0 -4 1t-4 1h-27t-22 3h-20q-5 0 -11.5 1.5t-11.5 1.5q-20 0 -46 1t-44 4q-51 5 -110 6t-105 1h-115q-10 0 -17.5 1.5 t-18.5 1.5h-23q-3 -31 -3 -65q1 -6 1 -12v-77q0 -18 -1.5 -37t-3.5 -47l-8 -97v-41v-51.5t-1.5 -47.5t-1.5 -29v-29v-77.5t5 -78.5h8q13 0 21 3l28 5q18 5 41 6.5t43 1.5l141 10h46h42t43 -5h-3q15 -3 38 -3h47h53l-2 -56h-69q-18 0 -37.5 -1.5t-37.5 3.5q-20 5 -38 5.5 t-36 0.5h-46l-141 -11q-36 0 -82 -7q-5 0 -8.5 -1.5t-9.5 -1.5q-8 -3 -18 -2.5t-15 0.5q0 -3 1.5 -5.5t1.5 -5.5v-92q0 -8 1 -15.5t1 -15.5v-69q0 -18 -1 -35.5t-1 -38.5q-3 -33 -3 -70v-73v-82q0 -79 -1 -161t-7 -164q-3 -28 -4 -65.5t-1 -65.5v-74q5 3 10.5 5.5t12.5 2.5 h187q5 0 10.5 -1.5t10.5 -1.5h56q90 0 187 8q5 0 10 1t10 1h82q10 0 23 1.5t21 1.5v-54h-34.5t-27.5 -3q-5 0 -14 -1t-14 -1h-20q-51 -5 -111.5 -7.5t-111.5 -2.5h-59q-5 0 -9 1t-9 1h-187q-13 0 -20 -2q-20 -5 -31 -5h-31z" />
<glyph unicode="F" horiz-adv-x="832" d="M110 28l5 74v6q0 3 3 5q3 10 2 25v92q0 8 1.5 15.5t1.5 15.5v23q0 5 -1.5 11.5t-1.5 14.5v146q0 8 1.5 16.5t1.5 19.5v33t2 36q5 51 8 119t3 119v51q0 5 -1.5 11.5t-1.5 14.5v28q-3 33 -4 76.5t-1 74.5v84q0 8 1.5 15.5t1.5 15.5l7 174v15q3 54 4 108t6 113l8 89 q3 15 4 34.5t1 44.5v31q-3 28 10 54t54 31h29.5t29.5 2q13 0 27 1.5t27 3.5h33q8 0 17 1.5t16 1.5h47.5t47.5 2h-2q13 3 32 3h29h92h28.5t28.5 -3q10 -3 25 -2h5h18q8 0 16 2v-53q-3 -3 -11 -3h-28h-18t-20 3q-10 3 -23 2.5t-21 -0.5h-92h-28t-31 -2q-41 -5 -79.5 -5h-79.5 l-110 -8q-15 -5 -15 -31v-38q0 -20 -1.5 -38.5t-3.5 -35.5l-8 -87q-5 -49 -6 -103t-4 -102v-34l-5 -135h18q18 0 41 -1.5t41 -3.5q5 0 7.5 -1.5t7.5 -1.5q13 -3 22 -2.5t11 0.5h185l171 -13v-57q-36 5 -89.5 8t-89.5 5q-13 3 -33 3h-26q-13 0 -24.5 -1.5t-24.5 -1.5h-69h-14 t-19 3h-5q-3 0 -3 2q-5 0 -12.5 1.5t-15.5 1.5q-18 3 -33 4t-28 1q-15 0 -21 -3v-64q0 -8 -1 -15.5t-1 -14.5q0 -36 1 -74.5t4 -76.5q3 -23 2 -54t0 -51q0 -59 -2.5 -119t-7.5 -119q-3 -18 -2.5 -35t0.5 -34q0 -10 -1.5 -19.5t-1.5 -16.5v-146q0 -8 1.5 -14.5t1.5 -11.5v-23 q0 -8 -1.5 -15.5t-1.5 -15.5v-92l-5 -59q-3 -10 -4 -17.5t-1 -33.5h-54z" />
<glyph unicode="G" horiz-adv-x="1507" d="M46 924q0 97 16.5 196t57.5 183v-3q23 59 47.5 108t57.5 84v-2l39 56q46 67 108.5 133.5t129.5 109.5q51 36 107.5 61.5t120.5 25.5q148 0 268 -38q54 -13 82 -28h-2q8 -3 16.5 -6.5t16.5 -6.5l90 -54l79 -59l41 -28q15 -13 32 -34.5t22 -65.5l-54 -2q0 20 -18 39.5 t-38 34.5q-20 18 -43.5 36t-61.5 38q-13 13 -75 44l-17 8l-18 7q-31 15 -64 23q-61 15 -126.5 27t-129.5 12q-59 0 -104 -23t-96 -52q-59 -36 -104 -87t-88 -107q-5 -5 -13 -16.5t-13 -16.5l-38 -49v3q-31 -41 -56.5 -88.5t-45.5 -114.5q-36 -82 -54 -170t-18 -178 q0 -44 4 -92.5t9 -89.5q13 -61 28 -125t33 -123q15 -59 41 -109t67 -91l38 -41q15 -18 34.5 -35.5t44.5 -30.5q20 -10 44.5 -24.5t68.5 -44.5q23 -15 43.5 -23t48.5 -13l41 -8q28 -5 51 -10t44 -5h2q3 0 6 2q31 3 50 8t37 10h2q3 0 5 3q28 5 47.5 11.5t37.5 14.5h-3 q8 5 27 8.5t37 8.5q46 13 87 30t74 45q44 44 72 100t54 115v-5q0 5 2.5 10t2.5 8l23 58v-2q13 31 24.5 63t19.5 60v14t2 14q0 5 1.5 12.5t1.5 12.5q3 23 4 45t6 35q13 36 15.5 61.5t2.5 56.5v58q-5 -3 -5 -2h-3q0 3 -2 2q-3 -3 -8 -2h-3q-3 0 -4 -1.5t-6 -1.5 q-10 -3 -24 -2.5t-32 0.5h-167q-5 0 -8.5 1t-9.5 1q-18 3 -47 5.5t-45 2.5l-5 3q-5 0 -10 1t-10 1q-15 3 -32 3h-30h-20q-5 0 -13 -1.5t-15 -1.5h-64v56h112h29.5t32.5 -2l64 -8l71 -7h174h18t23 2q8 3 24.5 5.5t42.5 2.5l10 -26l10 -13q5 -15 5.5 -24t0.5 -17v-35 q0 -36 -5.5 -67t-12.5 -67l-8 -53q-3 -23 -5.5 -42.5t-7.5 -34.5l-10 -33q-5 -20 -10 -43.5t-13 -38.5q-8 -18 -15.5 -37.5t-12.5 -37.5q-28 -61 -60 -126.5t-86 -118.5q-41 -36 -86 -54t-101 -31l-21 -5h3l-28 -10h2q-20 -8 -45.5 -18t-51.5 -15l-31 -8q-13 -5 -28 -6.5 t-33 -3.5q-5 -3 -14 -3h-14q-20 0 -39.5 2.5t-37.5 7.5q-5 0 -10 1.5t-10 1.5l-47 8q-36 5 -62.5 19t-49.5 32l-28 15l-82 41q-26 13 -53 37.5t-42 44.5l-31 41v-3q-51 44 -81.5 104t-46.5 122q-20 61 -35.5 126.5t-25.5 126.5q-5 44 -9 90t-4 102z" />
<glyph unicode="H" horiz-adv-x="844" d="M108 1746v2q0 5 2 11l-2 125l53 -5l3 -125q0 -3 -1.5 -7t-1.5 -9q0 -20 1.5 -37t3.5 -29v2q3 -8 4.5 -24.5t1.5 -29.5q3 -28 4 -63.5t1 -61.5v-35.5t-3 -41.5q-3 -23 -4 -53.5t-1 -51.5q0 -33 1.5 -63.5t3.5 -61.5v-28q0 -5 1.5 -6.5t1.5 -9.5h156q10 0 17.5 1.5 t18.5 1.5h36.5t34.5 2q10 0 19 1.5t22 4.5q5 0 11.5 1t11.5 1q13 3 27 4t27 1h18q5 0 10 1.5t10 1.5q10 3 25.5 3t26.5 -1v23q0 49 -1.5 100t-3.5 103q0 13 -1.5 25.5t-1.5 25.5v48q-3 54 -4 123t-1 118v13q0 5 -1.5 14t-1.5 19q-3 20 -2.5 52.5t0.5 44.5h54v-42t2 -47 q0 -10 1.5 -19t1.5 -17v-18q0 -59 1 -119t4 -122v-46q0 -13 1 -24t1 -24q3 -46 4 -106.5t1 -101.5v-58q0 -36 -1 -68t-4 -63q-3 -44 -4 -99t-1 -98q0 -36 1.5 -72t3.5 -74q3 -20 4 -44.5t1 -42.5q0 -5 -1 -10t-1 -11v-71v-51.5t2 -56.5q3 -20 4.5 -43t1.5 -44v-258h-54v258 q0 23 -1.5 45t-3.5 50q-3 20 -3 49.5v50.5v71q0 5 1.5 10.5t1.5 10.5q0 20 -1.5 43t-3.5 44q-3 36 -4.5 73t-1.5 73q0 51 1.5 101t4.5 101v10q3 28 4 48.5t1 49.5h-19t-22 -3q-5 0 -13 -1.5t-13 -1.5h-18l-118 -15h-73t-70 -2h-125v-13q0 -5 1 -11.5t1 -11.5v-584 q0 -10 1.5 -20.5t1.5 -22.5v-25.5t-3 -26.5v-92q-3 -13 -2.5 -28t0.5 -31v-23q3 -8 2.5 -22t-0.5 -24v-15q-3 -15 -2.5 -50t0.5 -55h-54v52.5t2 52.5v33q0 3 -1 4t-1 6v26q0 3 -1.5 5.5t-1.5 9.5q0 18 1.5 37.5t3.5 31.5v93q3 13 3 21.5v19.5q0 13 -1.5 23t-1.5 20v581 q0 5 -1 11.5t-1 14.5v28l-8 207q0 28 1.5 57.5t3.5 57.5q3 18 3 33.5v33.5q0 31 -1.5 61.5t-3.5 61.5q0 8 -1.5 19.5t-3.5 23.5q-3 15 -4 36t-1 49z" />
<glyph unicode="I" horiz-adv-x="268" d="M74 407v161v55t3 55q10 97 17.5 197t7.5 198v84.5t3 78.5t4 84.5t1 84.5v52q0 13 -1 25.5t-1 27.5v200q0 5 1 11.5t1 14.5q3 28 4 64t1 61h54q0 -28 -1.5 -65t-3.5 -60q0 -5 -1 -14t-2 -14v-198q0 -15 1.5 -28t1.5 -25v-52q0 -44 -1 -84.5t-4 -84.5q-3 -38 -3 -79v-84 q0 -77 -5 -166.5t-13 -169.5v-17.5t-2 -18.5q0 -5 -1.5 -14t-1.5 -14q-5 -28 -5 -53.5v-51.5q0 -51 1.5 -104.5t3.5 -110.5v-36q0 -13 1.5 -23t1.5 -23q3 -20 2.5 -47t-0.5 -45q0 -28 -1 -65t-4 -78l-33 2h-21q3 28 4 68t1 73q0 20 -1 43.5t-4 46.5t-2.5 43.5t0.5 40.5 q0 13 -1.5 27t-1.5 27z" />
<glyph unicode="J" horiz-adv-x="417" d="M-174 -369l2 49h26q13 0 19.5 -1.5t18.5 -3.5q5 -3 17 -3h17l59 21q3 0 7.5 1t10.5 1q3 0 4 1.5t3 1.5q23 13 50 33.5t55 48.5q64 72 72 151l10 51q3 10 3 26v12q0 3 -1.5 4.5t-1.5 3.5v39l3 7q3 49 4 101.5t1 106.5q0 28 1 51t1 51q0 67 1.5 160t6.5 160q3 44 3 99v93 q0 67 -1.5 129.5t-4.5 129.5v15q-3 48 -3 115q0 11 1 23v138v111.5t-5 114.5q0 5 -1.5 8.5t-1.5 9.5v94q0 5 -1 9t-1 9v18q0 10 1 21.5t6 34.5l54 -2q-5 -23 -6.5 -33.5t-1.5 -20.5v-36q0 -5 1.5 -8.5t1.5 -9.5v-76q0 -5 1.5 -9t1.5 -9q5 -51 5 -114v-112v-141t2 -135v-15 q3 -61 4 -130.5t1 -128.5v-95t-2 -97q-8 -161 -8 -320q0 -28 -1 -51t-1 -51q0 -54 -1.5 -106.5t-4.5 -103.5v-69l-10 -47q-3 -10 -2 -25q-5 -51 -27 -100t-66 -92q-20 -23 -57 -48.5t-65 -38.5v2q-20 -13 -46 -21.5t-62 -11.5q-13 0 -38 5q-10 3 -28 3z" />
<glyph unicode="K" horiz-adv-x="936" d="M77 -3q10 36 15 77t5 51v57q0 5 -1 11.5t-1 11.5v15q3 23 4 47.5t1 49.5v23q-5 28 -6.5 63t-1.5 63q0 20 1.5 42t3.5 42q3 13 3 28.5v33.5v28q0 8 -1.5 15.5t-1.5 15.5v61q0 36 1.5 70.5t3.5 70.5q3 36 4.5 70.5t1.5 65.5v181q0 46 -1.5 93.5t-4.5 96.5v89q0 51 1.5 100 t4.5 98q3 38 3 85q-1 8 -1 16v106h49q0 -51 -1.5 -108.5t-3.5 -101.5q-3 -44 -3 -97.5v-97.5v-42t3 -45q3 -44 3 -85q-1 -7 -1 -13v-94v-10l44 41l48 41l62 69l41 46q23 23 39.5 42.5t24.5 32.5q51 56 93 100.5t83 88.5q36 31 72 66.5t72 71.5l77 82l40 -38l-53 -57v3 l-41 -49l-85 -79q-10 -8 -23 -20.5t-20 -20.5q-44 -44 -96.5 -99t-85.5 -93v3q-28 -36 -51 -63t-41 -48l-67 -74l-48 -38q-13 -10 -28.5 -25.5t-30.5 -33.5l-5 -5q26 -18 46 -38.5t38 -41.5l8 -7q0 -3 5 -3l10 -10q13 -13 26 -25.5t33 -41.5v3q8 -10 28 -49l10 -18l-2 3 l33 -49v3q44 -51 72 -100t51 -97q13 -28 23 -54t21 -51l23 -54l69 -159h-3l31 -46q13 -18 23 -38.5t18 -35.5q5 -13 10 -27t18 -27q0 -3 -3 -2q13 -20 27 -44.5t27 -45.5q13 -26 28 -51l-59 -5q-3 10 -10 26.5t-16 33.5t-17 29.5t-13 17.5l-38 57l-5 12l-16 36q-5 10 -10 19 t-10 20q-13 15 -20.5 29t-10.5 19l-64 149l-20 46v-3q-28 61 -57 121q-28 59 -53.5 108.5t-51.5 78.5l-30 48v-2q-8 3 -8 15q-5 8 -9 17t-19 24q-13 15 -28.5 30.5t-30.5 33.5l-26 26l-69 71v-66q0 -31 -1 -63t-4 -68v-15q-3 -36 -4 -67t-1 -64v-31q0 -8 1 -15.5t1 -14.5 v-59v-35.5t-2 -28.5v2q-3 -20 -4 -42t-1 -42q0 -61 7 -115v-34q0 -20 -1 -49.5t-4 -49.5v-75q0 -5 1.5 -8.5t1.5 -9.5q0 -13 -2.5 -59t-12.5 -74z" />
<glyph unicode="L" horiz-adv-x="814" d="M72 870v359l5 164l7 166q5 44 8 84.5t3 79.5q0 23 -1.5 48.5t-11.5 64.5l54 2q10 -38 11 -65t1 -50q0 -36 -2.5 -82t-7.5 -82q0 -10 -1 -26.5t-1 -29.5q-3 -15 -3 -28v-23q-5 -56 -6.5 -112.5t-3.5 -110.5q-3 -31 -3 -60.5v-60.5v-176q0 -15 1.5 -30.5t1.5 -31.5 q0 -92 4 -186.5t9 -186.5q5 -64 8.5 -133.5t3.5 -133.5q0 -8 -1 -15.5t-1 -14.5v-100q0 -8 -1.5 -9t1.5 -9q3 0 6.5 1t11.5 1q3 0 2.5 1.5t2.5 1.5q20 5 44.5 5h39.5h192h39.5t40.5 3h12.5t12.5 2q5 3 18 3h18h13q5 0 11.5 1t14.5 1q5 0 7.5 -1t7.5 -1h64l-5 -54h-62 q-5 0 -7.5 1.5t-7.5 1.5q-5 -3 -16.5 -3h-16.5t-7.5 -1t-8.5 -1h-10q-8 -3 -20.5 -3h-17.5q-18 -3 -40 -3h-37h-195h-34.5t-36.5 -5q-3 0 -5.5 -1t-10.5 -1q-20 -5 -48 -5l-23 2q-3 18 -3 42.5v44.5v85q0 8 1.5 15.5t1.5 14.5q0 67 -4 132.5t-9 134.5q-5 92 -7.5 186.5 t-2.5 186.5z" />
<glyph unicode="M" horiz-adv-x="1666" d="M69 1874l46 5q44 -69 69.5 -125.5t51.5 -107.5l23 -49l10 -25q5 -13 11.5 -31t16.5 -38q67 -143 133.5 -302t122.5 -328q10 -33 21.5 -74t23 -83.5t22 -83.5t17.5 -74q20 -95 43.5 -192t59.5 -187q10 20 17.5 42t13.5 40l17 49v-3l26 62q15 41 32 83t35 78 q28 54 57.5 114t57.5 119q36 61 69 125t64 131q97 215 181.5 425t128.5 427l48 -2q0 -238 2.5 -472.5t8.5 -459.5q5 -228 7.5 -462t2.5 -475h-39h-15q0 246 -2.5 491.5t-7.5 481.5q0 26 -1.5 48.5t-1.5 46.5q-5 143 -6 269.5t-1 293.5q-49 -156 -118 -325t-136 -308 q-31 -74 -68 -143t-73 -136q-28 -54 -57.5 -108.5t-52.5 -106.5q-20 -44 -38 -88.5t-33 -80.5q-5 -5 -6 -12l-17 -47q-18 -49 -35 -92t-35 -76q-5 -5 -5 -16h-38l-3 18v-5q-49 95 -79.5 209t-55.5 231l-18 72q-15 64 -29.5 124t-34.5 119q-44 131 -106.5 278t-126.5 301 l-18 41v-3l-56 123l-16 41v-3q-10 23 -15 36t-18 34q10 -100 14 -201.5t4 -211.5v-281q0 -20 -1.5 -44.5t-1.5 -50.5v-42t-2 -65q0 -10 -1.5 -24.5t-1.5 -27.5q-3 -67 -4 -148.5t-1 -155.5t2.5 -160t7.5 -140q3 -26 1.5 -47.5t-3.5 -39.5v-56h-54v28q0 5 1.5 10t1.5 10 q3 18 2.5 38.5t-5.5 54.5q-5 56 -6.5 141.5t-1.5 160.5q0 79 1.5 156t3.5 143q0 13 1.5 28.5t1.5 28.5q3 38 3 65v42q0 26 1 50t1 45v281q0 138 -7.5 281.5t-33.5 297.5z" />
<glyph unicode="N" horiz-adv-x="1131" d="M82 279q0 36 1 69t4 69t5.5 63t7.5 47t6.5 36t3.5 31q5 59 6.5 129.5t1.5 123.5v382q0 131 5 279t15 340l26 3q36 -3 54 -36t28 -61v2q5 -10 5 -15q10 -23 24 -50t27 -47l10 -24l-2 3q13 -20 23 -38t15 -29q28 -59 64 -147t69 -173v3q28 -64 54 -124t51 -109 q36 -84 70.5 -170t67.5 -170q13 -33 24.5 -64t24.5 -59q36 -92 69.5 -176.5t71.5 -174.5v15q0 97 2.5 196t12.5 193q10 97 15.5 193.5t5.5 196.5v42t-3 45q0 41 -1 82t-4 76q-3 59 -4 116.5t-1 114.5v10q0 69 -8 143q-5 36 -7.5 70.5t-2.5 70.5q0 23 2.5 54t12.5 72l54 -3 q-10 -41 -12.5 -70.5t-2.5 -52.5q0 -69 7 -141q0 -13 1.5 -24t1.5 -24q3 -20 4 -47.5t1 -47.5v-10q0 -69 1.5 -142t6.5 -142l5 -105q3 -20 3 -46v-41q0 -100 -6.5 -196t-14.5 -194q-10 -95 -12.5 -193t-2.5 -196v-84t2 -85h-41l-5 11q-5 5 -16.5 28t-16.5 36l-23 46 q-41 100 -80.5 201t-80.5 201q-44 108 -85 210t-87 209q-26 51 -52.5 115.5t-54.5 128.5q-18 36 -29 66q-23 64 -47 123t-55 118l-41 84q-13 20 -25.5 41t-23.5 39l-12 36l-8 25q-13 -131 -17 -261.5t-4 -265.5v-382q0 -59 -1 -124t-4 -134q-3 -20 -4 -43.5t-6 -43.5 t-7.5 -44.5t-2.5 -40.5q-3 -36 -4 -69t-1 -69q0 -51 5 -114t18 -121l-54 -3q-13 59 -18 123t-5 115z" />
<glyph unicode="O" d="M64 858q0 77 8 151q13 90 39.5 190.5t85.5 195.5q5 5 7.5 13t7.5 13q36 54 73.5 109t72.5 88l49 43q36 28 83.5 69.5t85.5 61.5q41 20 94.5 40.5t107.5 28.5q8 0 21 3q18 3 38.5 4t40.5 1q49 0 96 -13t73 -20q56 -20 107.5 -39.5t110.5 -65.5q69 -51 115 -106.5 t74 -137.5q26 -74 40 -149.5t27 -152.5q5 -41 8.5 -83t3.5 -91q0 -169 -46 -334t-143 -298q-51 -67 -117.5 -127t-146 -107.5t-165.5 -75.5t-170 -28q-15 0 -23 3q-61 3 -106 27t-89 52q-13 0 -12 13q-13 13 -36 25.5t-49 27.5v-2l-33 20q-28 18 -59 37.5t-64 52.5 q-113 105 -161.5 256t-48.5 305zM115 858q0 -146 45 -287t150 -236q36 -36 69 -56t66 -38l95 -62l-10 5q46 -36 97 -59t110 -28l8 -2q79 0 160 25.5t155 69t137 100t106 117.5q87 120 132 281.5t45 322.5q0 41 -4 82t-9 79q-13 77 -27 151.5t-37 148.5q-26 74 -67 125.5 t-100 92.5q-44 33 -94.5 53.5t-109.5 38.5q-23 8 -69.5 20.5t-84.5 12.5q-8 0 -23 -1.5t-28 -3.5q-13 -3 -24.5 -3h-16.5q-38 -8 -91 -28.5t-91 -40.5q-44 -20 -77 -47t-66 -58l-21 -18l-43 -38q-44 -41 -74.5 -83t-53.5 -81l-36 -51q-44 -74 -69.5 -170t-38.5 -186v3 q-5 -36 -7.5 -74.5t-2.5 -76.5z" />
<glyph unicode="P" horiz-adv-x="860" d="M97 1725q0 31 4 62t19 69q18 10 49 10q18 0 34.5 -2.5t29.5 -7.5q5 -3 11.5 -3t11.5 -2q8 -3 13 -3q51 -8 92 -23t74 -33q10 -5 18 -5q56 -28 108.5 -64t96.5 -100q44 -67 59 -133.5t15 -132.5q0 -61 -9 -119t-19 -117q-5 -15 -5 -25l-8 -46q-13 -44 -28 -90t-49 -97 q-41 -61 -81.5 -89.5t-102.5 -51.5l-61 -28h2l-18 -10v2l-38 -19t-46 -17l-49 -5q-13 -3 -28 -4t-28 -6v-190q0 -74 8 -138l5 -54q5 -46 8.5 -102t3.5 -115h-53q0 46 -2.5 85.5t-9.5 80.5v-2q-3 8 -2 24.5t1 23.5q-5 46 -9 97.5t-4 99.5v210q3 90 3 173v170v34 q0 59 -1.5 115t-3.5 113q0 28 -1.5 57.5t-1.5 59.5q-5 77 -6.5 172t-1.5 176zM151 1723q0 -87 2.5 -174t7.5 -172q5 -90 6.5 -173t1.5 -172v-34q-3 -44 -3 -86v-85v-72q0 -18 -1 -30.5t-1 -33.5q5 0 14 1.5t17 1.5q5 0 8.5 1t8.5 1h-2l46 8q20 5 44.5 16.5t47.5 24.5h3 q15 10 30.5 16.5t30.5 11.5q56 20 94.5 46t66.5 72q26 36 39 79.5t25 91.5l8 49q0 8 2.5 17t2.5 16q10 56 19 109t9 104q0 61 -14 122.5t-47 115.5q-31 46 -82 78t-107 60q-5 0 -11.5 4t-9.5 6q-38 18 -72.5 32t-70.5 20q-15 0 -27 2.5t-22 7.5q-25 7 -42 7h-4h-10 q-5 -20 -6.5 -45.5t-1.5 -41.5v-2z" />
<glyph unicode="Q" horiz-adv-x="1630" d="M41 753v35q3 87 24.5 177t56 177t79.5 169t93 151l18 23l23 31q36 51 74.5 97t84.5 82l3 2q33 28 67.5 45t78.5 27l41 10q23 8 57.5 15.5t62.5 10.5q28 5 61.5 6t53.5 1q41 0 87 -12.5t69 -25.5q51 -26 103.5 -59t91.5 -74q54 -59 94.5 -130.5t70 -152.5t43.5 -165.5 t14 -163.5q0 -5 -1 -10t-1 -10v-41q-5 -61 -13 -126.5t-22 -131t-36 -127t-55 -115.5q-49 -74 -97 -133t-112 -112l135 -167q13 -20 36 -33q18 -18 34.5 -36t32.5 -48l-41 -44q-28 64 -69 97l-34 31l-141 166l-7 -5v3q-97 -64 -188 -103.5t-199 -39.5h-25.5t-28.5 2 q-67 5 -139.5 24.5t-131.5 49.5l-43 28l-11 6h3q-49 28 -95 62.5t-82 83.5q-72 92 -96 213.5t-24 239.5zM90 753q0 -108 26.5 -225.5t85.5 -199.5q33 -44 75.5 -74.5t93.5 -58.5l10 -8l-2 2l15 -10q67 -38 138.5 -56t135.5 -23q3 0 5.5 -1.5t4.5 -1.5h36q102 0 187 36 t174 95l3 5q0 3 5 5q-56 72 -117.5 145t-133.5 155q-64 67 -132 133t-137 125l-82 80l-302 284q-41 -92 -62.5 -184.5t-26.5 -189.5v-33zM205 1213q13 -20 32 -36.5t39 -37.5l67 -59q56 -56 118 -110l54 -56h-3l38 -36q95 -82 178 -160t142 -145t114 -137t112 -139l28 -31 q59 51 107.5 110t92.5 121q26 46 45 104.5t31.5 121.5t20 128t13.5 127q3 13 4 25.5t1 25.5q0 151 -54 308.5t-156 265.5q-33 36 -82 65t-97 52q-23 13 -63 26t-68 13h-29.5t-26.5 -3l-59 -5q-20 0 -48.5 -7.5t-51.5 -15.5l-49 -13q-36 -10 -69 -24t-56 -30h2 q-51 -51 -101 -107t-85 -105l-11 -13v3q-33 -44 -63.5 -101.5t-66.5 -124.5z" />
<glyph unicode="R" horiz-adv-x="770" d="M69 1720.5v45.5v64q3 33 9 47.5t32 14.5l41 -5q3 0 4 -1.5t6 -1.5h16q72 -13 143.5 -30.5t137.5 -66.5q115 -90 170.5 -221.5t55.5 -270.5v-44.5t-3 -39.5q-15 -138 -85.5 -230.5t-167.5 -174.5l-3 3q-41 -28 -102.5 -69t-130.5 -54q26 -26 49 -59t43 -66l3 -3 q28 -51 61 -111t62 -96v2q64 -72 117 -171l103 -149l-39 -30q-33 44 -56 80.5t-46 72.5q-20 36 -48.5 74.5t-71.5 89.5q-28 36 -54 79.5t-54 92.5l-15 25l-23 44q-20 31 -41 57.5t-49 47.5q0 -41 -1 -74.5t-1 -69.5v-507h-54v430q0 128 2 262v138q0 13 1.5 23t1.5 23v108.5 t2 111.5q3 59 4.5 114t1.5 114q0 82 -4 169t-14 169q-3 18 -3 43.5zM118 1838q3 0 2.5 -1t2.5 -1v2h-5zM119 1710q0 -13 4 -23q13 -82 16.5 -170.5t3.5 -177.5q0 -59 -1 -114t-4 -114q-3 -51 -3 -96q1 -7 1 -15v-109v-79.5t-3 -76.5h8q67 0 136 38.5t115 76.5q90 77 156 160 t79 201q3 20 3 40.5v43.5q0 128 -47.5 250t-152.5 201q-56 38 -124 55t-142 29q-3 0 -6.5 1.5t-6.5 1.5q-5 0 -10 1.5t-13 1.5h-5q0 -13 -3 -16v-74q0 -14 -1 -30v-6z" />
<glyph unicode="S" horiz-adv-x="775" d="M25 387l1 17q0 5 1 8t1 8v43h51v-43q0 -5 -1 -7.5t-1 -8.5q0 -5 2 -10q5 -59 29.5 -108.5t60.5 -93.5q18 -26 43.5 -46.5t61.5 -22.5q10 -3 23 -3q54 0 123 28q87 44 128 117t41 147q0 84 -32 180.5t-68 178.5q-8 10 -14.5 19t-8.5 14l-8 18q-13 28 -27 53.5t-27 38.5 l-7 10l-39 46q-18 23 -32 43.5t-26 33.5q3 -3 -2.5 12.5t-10.5 23.5q-51 90 -102.5 196t-71.5 211q-8 38 -8 79v9q1 96 59 162q62 70 169 93q28 5 55 9t57 4q77 0 131 -28l5 -6q38 -20 84.5 -56t46.5 -95h-57q3 15 -7.5 31t-27 30t-34.5 25.5t-33 18.5q-26 10 -54 18t-54 8 q-44 0 -99 -13q-82 -20 -134.5 -76.5t-52.5 -133.5q0 -8 1 -22t4 -26q0 -5 1 -9t1 -9q26 -90 72 -195t90 -189h-3l23 -44q18 -36 59 -77l3 -5l35 -46q36 -51 51.5 -75.5t23.5 -42.5l12 -38v3q44 -82 77.5 -182t33.5 -200q0 -97 -43.5 -181.5t-154.5 -130.5q-66 -31 -148 -31 h-16.5t-16.5 3q-44 5 -80 34.5t-56 57.5q-36 46 -65.5 103.5t-34.5 108.5q-3 4 -3 11z" />
<glyph unicode="T" horiz-adv-x="693" d="M-28 1869q46 5 60 6t22 1q20 0 45.5 -1t59.5 -4q28 -3 56 -4t56 -1h23q51 3 105 5.5t108 7.5l56 5q38 5 87 6.5t85 3.5l2 -53q-44 -3 -93.5 -4t-93.5 -7l-53 -5l-128 -10q-5 -13 -5 -32v-35v-38q-3 -20 -3 -34.5v-34.5v-110q0 -10 1.5 -19t1.5 -20q0 -51 -1.5 -107 t-4.5 -115q-3 -54 -4 -110.5t-1 -115.5q0 -74 -2.5 -152t-7.5 -152q-5 -77 -7.5 -152.5t-2.5 -152.5v-36q0 -10 1 -17.5t1 -15.5v-59q5 -56 5 -136.5v-132.5h-51v134.5t-5 134.5q-3 28 -2.5 60t0.5 68q0 77 2.5 152.5t4.5 152.5q5 74 8 152t3 152q0 59 1 115.5t4 110.5 q3 51 4 113.5t1 108.5q0 10 -1.5 19.5t-1.5 19.5v110v34.5t3 34.5v38v35t2 29h-41q-28 0 -53.5 1.5t-58.5 4.5q-28 3 -55 4t-50 1q-10 0 -24.5 -1.5t-55.5 -6.5z" />
<glyph unicode="U" horiz-adv-x="1105" d="M92 1185v31q0 64 1.5 129.5t3.5 131.5q0 20 1.5 52.5t1.5 52.5q3 69 4 143.5t1 135.5h51q0 -61 -1 -131.5t-4 -132.5q0 -23 -1.5 -60t-1.5 -60q0 -67 -1 -132t-1 -129v-31q0 -67 2.5 -136t15.5 -138q10 -46 12.5 -98.5t5.5 -100.5v-36q0 -84 7 -154q5 -61 22 -135.5 t42 -138.5q20 -41 50 -82t73 -53q10 -3 23 -5.5t26 -2.5q36 0 79.5 15.5t84.5 33.5v-3q51 31 81.5 72t59.5 100q59 123 94.5 250.5t48.5 261.5q23 225 23 455v102.5t-5 99.5q-5 97 -6.5 198.5t-1.5 198.5h54q0 -97 1.5 -198t6.5 -199q5 -44 5 -100v-102q0 -108 -6.5 -228 t-16.5 -230q-13 -138 -51.5 -279t-94.5 -256q-31 -67 -65.5 -110.5t-103.5 -76.5v3q-41 -26 -88.5 -44t-98.5 -18q-38 0 -72 13h-5q-54 20 -89.5 65t-56.5 99v-3q-26 59 -41 141t-20 154q-3 23 -4 51t-1 51q0 13 -1.5 27t-1.5 27q-3 54 -5.5 111.5t-12.5 111.5 q-15 72 -19 140.5t-4 145.5z" />
<glyph unicode="V" horiz-adv-x="1090" d="M36 1838q0 13 1 20.5t14 25.5l57 -5q-13 -28 -15.5 -33t-2.5 -8q0 -13 6 -37t12 -45l7 -23l18 -56l26 -80q5 -18 7.5 -41t5.5 -48l10 -64q5 -23 11.5 -47.5t13.5 -44.5q8 -26 14.5 -50.5t11.5 -49.5q10 -51 18 -102.5t15 -102.5l8 -51q15 -108 33 -210t41 -210l10 -38 q23 -100 49 -206.5t54 -203.5q15 33 24 57.5t17 47.5l18 49l36 89q28 74 54.5 155t47.5 158l10 35q20 59 33 110q28 108 60.5 214t73.5 196v-3q36 90 70.5 188.5t59.5 190.5q0 13 5 29l8 28l15 76l10.5 42t10.5 38l10 36l44 -3v-21.5t-3 -21.5v5q0 -3 -1.5 -4t-1.5 -4v-15 l-15 -64q-10 -33 -13 -57q-5 -15 -5 -28l-10 -51q-13 -44 -28.5 -95t-33 -102t-37 -98.5t-34.5 -85.5q-41 -102 -69.5 -193.5t-53.5 -180.5q-5 -18 -10 -34.5t-11 -32.5l-30 -107q-23 -79 -51.5 -165t-51.5 -153l-23 -56v3l-20 -52q-20 -59 -42 -114t-43 -88l-13 -26l-35 6 l-5 25q-36 123 -69.5 252.5t-64.5 259.5q-23 102 -40.5 211t-33.5 212q-3 18 -5.5 35.5t-7.5 38.5q-8 46 -14 92t-14 87l-20 100q-8 23 -14.5 47.5t-11.5 47.5q-8 31 -13 71l-7 34q-3 10 -7 25.5t-7.5 28t-5 23t-1.5 7.5q-8 26 -15.5 49t-12.5 48q-8 20 -18 52.5t-10 65.5z " />
<glyph unicode="W" horiz-adv-x="1917" d="M23 1838h54q0 -26 6.5 -46t16.5 -41l20 -54q0 -3 1.5 -4t1.5 -3q8 -26 11.5 -60.5t8.5 -70.5q10 -97 24.5 -197t34.5 -205q20 -97 37 -192t32 -192q13 -90 27 -177t32 -176q5 -15 7.5 -30.5t5.5 -36.5q5 -31 13 -65.5t23 -72.5q8 -20 16.5 -46t16.5 -54l13 59l8 31l23 87 l84 230l62 185l23 76q5 15 10 30.5t10 31.5q28 95 55 184.5t50 183.5q41 154 97 282q36 74 63 151t27 151v36l49 3q13 -36 14 -73.5t1 -67.5v-29.5t3 -29.5v-28q0 -8 1 -14.5t1 -11.5q5 -82 15 -154q13 -90 23.5 -174t23.5 -171q18 -100 42 -209t52 -206l8 -31 q8 -33 15.5 -62.5t12.5 -59.5q8 -41 15.5 -81t20.5 -81q18 -72 31 -151l5 -43v-3l2 21l8 56q5 13 12.5 32t20.5 35q3 3 5.5 11.5t15.5 39.5q26 49 50 105t37 100q36 110 70.5 223.5t75.5 213.5v-2l23 53q20 44 34 81t22 68q15 51 37 110t40 102q28 54 44.5 102.5t34.5 97.5 l16 41l10 28q8 20 14 44.5t17 47.5v-2q0 5 5 10q0 3 2.5 8t2.5 7q5 15 10 32t5 38l39 -6l12 -17l-12 -54l-13 -39q-10 -23 -15.5 -43.5t-12.5 -40.5l-11 -28l-7 -23q-20 -59 -41 -114t-54 -114h3q-20 -44 -34.5 -83.5t-24.5 -75.5q-3 -10 -7 -20.5t-6 -20.5 q-31 -105 -62 -169v3l-18 -44q-49 -115 -83 -222.5t-62 -204.5q-18 -59 -42.5 -122t-50.5 -104l-10 -17q-5 -5 -6.5 -9t-3.5 -9q-13 -13 -17 -27t-9 -30q0 -3 -1 -4t-1 -3q-5 -15 -7.5 -32t-5.5 -35q-5 -28 -10 -53.5t-16 -46.5v3q-3 -5 -4 -15.5t-3 -20.5q-3 -10 -3 -26 l-25 46q-23 28 -31 59t-13 59l-5 39q-5 36 -13 71.5t-18 71.5q-13 41 -20.5 80.5t-15.5 80.5q-5 36 -14 66.5t-16 64.5l-6 25q-13 46 -24 100t-24 109t-23 109t-18 97q-13 77 -24.5 157.5t-21.5 157.5l-5 33q-5 36 -9 78.5t-7 83.5q0 3 -1 4t-1 6q-10 -33 -23 -62.5 t-26 -58.5q-33 -67 -56 -137t-41 -131q-20 -84 -50 -185.5t-55 -183.5l-105 -325l-85 -228l-10 -36q-5 -15 -7.5 -30.5t-5.5 -23.5q0 -5 -1 -6t-1 -6q-13 -49 -27 -94t-40 -73l-41 -46l-2 67q-3 38 -14.5 75t-31.5 83q-15 36 -24.5 76t-14.5 78q-3 15 -5 32t-8 32 q-18 90 -32 177t-26 176l-8 44q-13 84 -27 170t-29 170q-20 95 -37 202.5t-27 209.5q-5 28 -9 58t-12 63q-5 15 -20 48q-10 20 -18 45t-8 68z" />
<glyph unicode="X" horiz-adv-x="1008" d="M3 38q0 28 15 68t31 63q3 3 5 10.5t7 12.5q5 8 8 15l31 62q18 33 30.5 61t15.5 36q44 102 88.5 194.5t88.5 176.5q28 59 48.5 109t35.5 94t32 83t40 91q-33 74 -70.5 144.5t-73.5 141.5l-15 31h3q-28 44 -49 83.5t-33 75.5q-8 20 -22 48.5t-22 43.5q-18 33 -30.5 81.5 t-18.5 102.5h54q3 -41 17 -82t29 -74l52 -105l15 -36v3l51 -118l21 -38v2q36 -67 65 -121.5t57 -111.5l29 54l33 56h-3l31 64q36 59 63 113t47 105l21 51l5 10q26 59 56.5 122t89.5 124l38 -41q-54 -56 -84.5 -120t-53.5 -123v3l-18 -41q-13 -28 -38.5 -79.5t-53.5 -102.5 l-23 -41h2l-36 -72v3q-8 -20 -18 -37t-15 -37l-20 -44l-21 -41l18 -38v2l13 -25l8 -21l66 -161q26 -59 49 -115.5t46 -115.5q13 -36 24.5 -70.5t21.5 -69.5l10 -39l33 -123q28 -90 72 -170.5t92 -159.5l-56 -5q-46 74 -91 162.5t-65 157.5q-20 59 -36 118l-13 46 q-10 33 -19 66.5t-22 58.5q-18 46 -41 101t-43 99l-18 43v-2l-31 82v-3q-10 20 -18 41t-13 39q-5 8 -8.5 15.5t-9.5 19.5q-13 -31 -24 -57.5t-22 -54.5q-20 -56 -40.5 -108.5t-56.5 -111.5h3q-44 -92 -85 -180.5t-84 -185.5l-75 -151q-5 -5 -5 -11l-33 -48 q-10 -13 -18 -46.5t3 -51.5h-69z" />
<glyph unicode="Y" horiz-adv-x="1018" d="M-13 1843l16 16q3 3 6.5 5t5.5 5l5 5q18 -8 35 -29.5t37 -44.5l8 -8q3 -5 15 -18q26 -33 51.5 -61.5t56.5 -53.5v-3l43 -53v2l39 -49l74 -84v3l59 -57q36 -38 78 -95.5t80 -111.5l34 -54v3l7 -13q5 -8 5.5 -6.5t5.5 -6.5l56 113q28 59 44.5 108.5t29.5 98.5l36 118 q28 84 78 156t114 146l44 -33q-64 -74 -111.5 -141t-73.5 -144l-38 -112q-15 -61 -33 -120t-39 -100q-23 -51 -56 -111.5t-69 -124.5q-18 -31 -33.5 -61.5t-30.5 -61.5q-72 -125 -136 -256l-102 -225q-44 -95 -97.5 -201t-115.5 -221l-59 5q51 79 95 172.5t82 177.5l38 85 l108 235q31 61 64 120.5t69 118.5q5 8 12.5 21.5t13.5 21.5q20 38 42 78t40 81q-10 18 -15.5 25.5t-10.5 17.5l-41 62q-31 44 -65.5 91t-88.5 103l-133 141q-5 5 -17.5 20.5t-25.5 33.5q-5 8 -13 16.5t-28 29.5q-28 28 -54 56t-54 62v2q5 -5 -6.5 10.5t-16.5 23.5 q-20 28 -37 47t-27 24z" />
<glyph unicode="Z" horiz-adv-x="1059" d="M-54 -28l39 77q10 20 26.5 45.5t37.5 53.5l51 82q8 13 22 36t29 59v-2q3 5 6.5 8.5t6.5 8.5q108 172 206 339.5t198 344.5h-2l41 82q-36 5 -65.5 5t-67.5 3h-82q-5 0 -13 -1.5t-15 -1.5q-18 0 -37.5 1.5t-39.5 11.5l5 56q46 -15 72 -15h20t23 2h28q5 0 13 1.5t13 1.5 q18 0 23 -3l115 -10q10 0 15.5 -1t17.5 -1l8 12q31 51 63 115.5t60 130.5q5 13 10 24.5t10 24.5v-3q15 36 28 74.5t44 89.5h-3q5 13 20.5 31t31.5 36l7 10v-3q23 26 44 69h-77q-13 0 -22 -1t-21 -1h-41q-15 0 -38.5 -1.5t-43.5 -6.5q-15 -5 -31 -5q-26 -3 -50 -6.5t-50 -6.5 q-10 -3 -29.5 -2.5t-31.5 0.5q-33 0 -73 1t-71 6h-26.5t-21.5 3q-8 0 -19.5 1t-21.5 1q-26 3 -50.5 4.5t-41.5 1.5q-13 0 -27 1t-27 4q-20 5 -39 5q-5 0 -12.5 -2.5t-38.5 -18.5l-5 64q20 8 32 9.5t24 1.5q18 0 29.5 -1.5t24.5 -4.5t23 -4t18 -1q15 0 39.5 -1t47.5 -4 q10 0 24.5 -1t24.5 -1q15 -3 25.5 -3h20.5q69 -8 141 -8h27t26 3q33 0 72 8l26 5q59 13 123 13h42t42 2h44q13 0 21.5 1.5t21.5 1.5q3 0 4 -1.5t4 -1.5h56l-2 -33q-15 -44 -38.5 -77t-48.5 -59v3l-44 -59h3q-13 -20 -26 -49.5t-28 -65.5v2l-18 -38l-15 -46 q-18 -56 -49 -116.5t-67 -124.5l52 8q44 5 89.5 9t81.5 4q31 0 54 -5.5t46 -33.5l-49 -38q-3 5 -16.5 15t-34.5 8q-28 0 -66.5 -2.5t-71.5 -7.5q-5 0 -7.5 -1.5t-8.5 -1.5q-26 -5 -53.5 -7.5t-43.5 -2.5l-56 -97q-79 -154 -163.5 -293.5t-172.5 -282.5q-8 -13 -19 -33.5 t-21 -33.5l-26 -38q-13 -23 -28.5 -46.5t-30.5 -46.5q-8 -13 -18 -29.5t-15 -28.5q-18 -23 -46 -82q56 18 118.5 23t129.5 5q20 0 38 -1.5t34 -3.5h10q15 0 32 -1.5t37 -1.5q13 -3 33 -2q28 0 54 1t51 4q28 0 56.5 1t58.5 1q5 0 9 -1t9 -1h54q8 0 16 2q33 3 64 16l84 28 l3 -51l-57 -18h3l-18 -8q-31 -18 -62 -18q-8 -3 -18 -3h-15h-20q-5 0 -9 1.5t-9 1.5h-34q-28 0 -53.5 -1.5t-58.5 -3.5q-23 -3 -52.5 -4t-55.5 -1h-22t-21 2q-13 0 -32 1.5t-30 3.5h3q-20 3 -39.5 4.5t-42.5 1.5q-72 0 -150 -14.5t-144 -42.5z" />
<glyph unicode="[" horiz-adv-x="514" d="M84 31v32t3 29q0 5 1.5 10.5t1.5 10.5v12v121.5t2 124.5v121q0 36 1.5 66.5t1.5 53.5v115q0 5 -1.5 10t-1.5 11v35q0 105 4 207.5t9 207.5l10 200q5 92 6.5 186.5t3.5 184.5l11 212q13 3 28 4.5t41 1.5q15 0 31.5 -1.5t39.5 -4.5q18 -3 42.5 -2.5t45.5 0.5v-54h-46t-49 3 q-18 3 -33.5 4t-30.5 1q-5 0 -6.5 -1.5t-3.5 -1.5h-11v-40.5t-2 -38.5q0 -15 -1.5 -42t-1.5 -43q-3 -90 -4 -183t-6 -185l-10 -200q-5 -105 -9 -207.5t-4 -207.5v-35q0 -5 1 -10.5t1 -10.5v-115q0 -31 -1 -60.5t-1 -59.5v-121q-3 -64 -3 -124v-122v-12q0 -5 -1 -11.5 t-1 -14.5q-3 -13 -3 -27v-29q0 -28 4 -55t12 -43q23 -8 48 -7q13 0 36 1t38 4t38.5 4t49.5 1l-6 -51q-23 0 -37 -1.5t-27 -3.5h-12q-18 -3 -40 -4t-40 -1q-20 0 -38 2.5t-31 7.5h3q-13 5 -22 18t-19 28q0 3 -1.5 5.5t-1.5 7.5q-5 18 -6.5 41t-1.5 46z" />
<glyph unicode="\" horiz-adv-x="542" d="M26 2012h46l33 -141l10 -41l16 -66q3 -44 12 -77q8 -38 14.5 -80.5t11.5 -85.5q5 -31 16.5 -83.5t24.5 -111.5l13 -84l53 -277q18 -79 38.5 -168.5t43.5 -171.5l21 -95q8 -23 11.5 -46t8.5 -46l5 -34v3l18 -95l26 -135q5 -13 6.5 -36t3.5 -44q0 -5 1.5 -5t1.5 -5 q5 -20 7.5 -47t7.5 -50q8 -54 18 -90l15 -69h-51q-13 49 -21.5 84.5t-14.5 69.5q-5 28 -10 61t-10 56l-10 72v-2q-5 28 -10.5 57.5t-7.5 57.5l-10 66l-8 49l-5 33q-5 18 -9 40t-14 45l-26 107q-20 77 -42 168t-37 165q-5 46 -19.5 120.5t-31.5 155.5q-18 82 -32.5 159 t-21.5 121l-18 107l-23 128q-5 15 -7.5 32t-5.5 40l-5 15l-5 23l-8 36q-3 13 -4 10.5t-3.5 1t-5 24t-7.5 79.5z" />
<glyph unicode="]" horiz-adv-x="476" d="M64 1874v54h42.5t48.5 -1.5t46 -2.5t35 -4q10 0 28 -18q0 -5 1 -7.5t1 -7.5q5 -20 5 -31v-24t-2 -22q0 -5 -1.5 -6.5t-1.5 -6.5v-10q-3 -44 -4 -86t-1 -86q0 -36 -1 -69t-4 -66q0 -13 -1.5 -35t-1.5 -34q-3 -38 -4 -74.5t-1 -74.5q0 -13 -1 -27t-1 -27v-46 q-3 -51 -4 -102t-1 -103v-28q0 -28 1 -53.5t4 -53.5q0 -13 1 -28.5t1 -28.5q5 -44 6.5 -102.5t1.5 -104.5v-174q0 -15 -1.5 -30.5t-1.5 -30.5q0 -64 4 -145t14 -147q5 -28 10.5 -63t5.5 -63l-5 -48q-10 -3 -23 -3q-13 -3 -27 -2.5t-35 -2.5l-118 -13v36l13 18l74 8l64 7h3 q0 23 -5 52.5t-10 60.5q-13 74 -15.5 151t-2.5 154q0 15 1 30.5t1 30.5v177q0 102 -7 202q0 13 -1.5 28t-1.5 28q-3 26 -4 55.5t-1 54.5v28q0 51 1 102.5t4 102.5v49q0 13 1.5 25.5t1.5 25.5q0 38 1 75.5t4 75.5q0 13 1 31t1 31q3 36 4 71.5t1 68.5q0 44 1.5 86t3.5 86v15 q0 5 1.5 9t1.5 9q3 13 3 36q0 5 -1.5 4t-1.5 4l-3 5h-20q-5 0 -7.5 1t-5.5 1q-20 3 -57.5 3h-57.5z" />
<glyph unicode="^" horiz-adv-x="599" d="M110 1736q31 15 49 25.5t28 16.5t15 8.5t10 8.5q36 28 60.5 43t29.5 18l192 -128l-13 -49q-49 33 -98.5 69t-70.5 49l-76 -43h2q-20 -20 -56 -43.5t-69 -38.5z" />
<glyph unicode="_" horiz-adv-x="852" d="M31 13h294q28 0 57.5 1t60.5 1h123q31 0 62.5 -1t60.5 -1h117v-54h-194q-36 0 -69.5 1.5t-61.5 1.5h-41q-28 0 -55 -1.5t-55 -1.5h-299v54z" />
<glyph unicode="a" horiz-adv-x="1024" d="M51 3q10 79 23 139t31 119q13 46 23 92t15 90q18 108 45 215t55 212l39 136l2 5q20 79 44.5 160t45.5 153l28 87l13 38q8 23 16.5 47.5t16.5 39.5v-3q8 23 11.5 47.5t8.5 50.5l8 30q8 26 8 47l8 23q13 36 21.5 75.5t13.5 82.5q5 -5 22 -3.5t19 8.5q26 -41 30 -74t6 -59v3 l8 -49q5 -26 10 -48.5t10 -48.5l23 -113q5 -38 13 -79l16 -82l5 -31v3q8 -51 16.5 -98.5t13.5 -98.5q13 -79 31 -167.5t37 -178t38.5 -177t37.5 -163.5q5 -26 12.5 -50.5t15.5 -47.5l10 -28l33 -107l16 -67l5 -20q5 -23 11.5 -50t24.5 -55h-59q-20 33 -26.5 61t-12.5 54 q-3 31 -12 64l-29 95q-13 36 -23 69t-17 69l-6 36q-33 123 -63.5 257t-51.5 262q-36 0 -65.5 -1t-59.5 -4q-10 0 -19 -1t-20 -1h-69q-5 0 -9 -1.5t-9 -1.5h-18h-21.5t-24.5 3q-5 0 -20 5h2q-15 5 -28 5l-15 -59q-5 -18 -9 -33.5t-9 -30.5q-28 -95 -56.5 -211.5t-45.5 -213.5 q-5 -28 -11.5 -55t-11.5 -52l-16 -75q-13 -54 -25.5 -110t-22.5 -138zM343 1024l41 -8h105q56 5 96 6.5t96 1.5q-5 15 -5 23l-10 61q-5 51 -14 97.5t-17 97.5l-5 28q-8 38 -15.5 82t-12.5 79l-18 113q-5 26 -10.5 50t-10.5 47l-5 44v8l2 -2l1 -1l-3 5l-10 -31l-10 -28 q-8 -13 -10.5 -27t-5.5 -29v-15q-5 -28 -9 -54t-14 -51l-38 -105l-36 -108q-26 -67 -45 -138.5t-37 -145.5z" />
<glyph unicode="b" horiz-adv-x="780" d="M112 20q0 5 1 8v10v13l7 80v20q3 26 4 49t1 48q5 54 5.5 105t0.5 105v241q-3 31 -3 73v70v49q0 18 -1.5 36t-3.5 38q-3 31 -4 60.5t-1 62.5v154q0 13 1 27t1 29q0 51 1.5 101t3.5 96q3 49 4.5 96t1.5 93v85t-6 84l6 23q23 5 35.5 6.5t22.5 1.5q5 0 9 -1t9 -1h82 q23 0 50 -3t48 -13q13 -5 32 -15t37 -21l43 -25v2q38 -18 69 -50t64 -73q46 -61 64 -143t18 -156v-38q-3 -41 -20.5 -81t-44.5 -74.5t-61.5 -64t-67.5 -52.5l-41 -20q33 -18 63.5 -42.5t53.5 -49.5q28 -33 49 -68t28 -78q8 -36 8 -80q0 -54 -8 -100q-5 -31 -16.5 -68 t-24.5 -72l-10 -34q-10 -28 -20.5 -53.5t-30.5 -61.5h2q-3 -5 -2 -5l-13 -8h5l-15 -18q-13 -28 -28.5 -51t-35.5 -41l-33 -33q-13 -13 -26 -24.5t-26 -24.5q-41 -41 -90.5 -78t-116.5 -57q-5 0 -8 -3l-30 -8q-9 -1 -17 -1q-20 0 -23 10q-2 8 -2 14zM169 92l3 -33h5 q44 15 96 52t88 73q28 31 59 59l28 23q23 20 34.5 38.5t24.5 33.5l28 38h-3q10 26 20.5 56.5t20.5 59.5q0 8 6 12v5l10 29q10 26 17.5 55t13.5 57q7 41 7 78v9q0 36 -7 67q-5 36 -22 64t-40 56q-33 44 -85.5 70.5t-103.5 37.5h-21t-18 2q-3 0 -5 1.5t-5 1.5h-8 q-5 0 -8.5 -1.5t-11.5 -1.5h-18q-3 0 -4 -1t-4 -1h-10q-5 -3 -15.5 -3h-15.5q-10 -5 -23 -5h-28v-28q3 -23 4 -54t1 -51v-96t3 -96q3 -20 2.5 -47t-0.5 -45v-105q0 -10 -1 -20.5t-1 -23.5v-106t-3 -106l-7 -115q0 -5 -1.5 -9t-1.5 -9v-21zM172 1091l2 -13h3q3 0 4 1t6 1 q15 0 25 3q8 3 26 4t31 1q8 3 22 3h21h14t14 -3h23.5t20.5 -3q26 5 64 17t59 24v-2q26 18 52.5 42t48.5 52.5t36 60.5t16 68v38q0 72 -15 147.5t-54 126.5v-3q-28 31 -52 55.5t-63 44.5l-61 31l-16 10q-10 5 -17.5 11.5t-12.5 6.5q-36 13 -80 13h-82q-5 0 -8.5 1t-9.5 1h-7 q5 -28 3.5 -55t-1.5 -57v-36q0 -44 -1 -92.5t-4 -97.5q0 -10 -1 -22.5t-1 -23.5q-3 -36 -4 -76.5t-1 -76.5v-202z" />
<glyph unicode="c" horiz-adv-x="1615" d="M76 775v5q0 19 1 32q0 28 1 60t6 60q13 87 31 180.5t49 172.5q23 74 59 153.5t89 133.5q118 110 265 192t314 89h33q8 0 15.5 1.5t17.5 1.5h59q59 0 113 -4t100 -16q90 -20 169 -84.5t125 -148.5l-41 -39q-44 82 -114 139.5t-152 75.5q-46 13 -97 18t-103 5 q-8 0 -15.5 -1t-14.5 -1h-90q-72 -5 -145 -29.5t-143 -61.5t-135.5 -83t-121.5 -95q-46 -51 -79.5 -123t-56.5 -141q-28 -72 -44.5 -160t-29.5 -165q0 -5 -1.5 -10t-1.5 -10q-5 -28 -6 -57.5t-1 -52.5v-32.5t2 -31.5v-24q3 -38 5.5 -75t15.5 -73q20 -59 58.5 -124t81.5 -117 q46 -44 106.5 -91t114.5 -75q56 -28 106 -41t106 -26q28 -10 61.5 -12.5t61.5 -2.5h55t55 3q54 3 116.5 11.5t119.5 29.5q97 49 163 107q8 8 23.5 22t29.5 32t24 36t10 30l57 -2q-3 -46 -32.5 -82t-54.5 -62l-13 -12l-5 -5q-44 -36 -88.5 -63t-88.5 -50 q-49 -23 -125.5 -33.5t-135.5 -12.5q-23 -3 -55 -3h-55q-36 0 -72 2.5t-64 10.5q-133 33 -225 69q-136 67 -230 182q-49 51 -95 125.5t-67 140.5q-10 36 -12.5 77t-5.5 82v26q-3 11 -3 27z" />
<glyph unicode="d" horiz-adv-x="1159" d="M113 1892l35 2q8 0 28.5 -1t38.5 -4q5 0 11.5 -1t11.5 -1q3 0 8 -1.5t10 -1.5l136 -25q82 -28 172.5 -63t165.5 -96h-3q87 -64 153.5 -150t110.5 -170q28 -61 44.5 -129t29.5 -140l5 -31q5 -31 7.5 -65.5t2.5 -67.5q0 -28 -1 -51t-4 -44q-13 -72 -32 -130.5t-47 -117.5 q-28 -61 -66.5 -124t-89.5 -119l-59 -51l-26 -26q-13 -13 -29.5 -28t-57.5 -44q-51 -36 -108.5 -70t-101.5 -55q-26 -13 -63 -28t-80 -33q-20 -5 -44.5 -8t-47.5 -5h-13q-5 0 -6.5 -1.5t-3.5 -1.5h-44q-5 110 -6.5 233t-1.5 233v123q0 31 1.5 61.5t1.5 63.5v246 q0 110 -6.5 217.5t-13.5 223.5q-3 38 -3 79v84v114t-5 114q0 3 -1.5 5.5t-1.5 4.5v11h3q-8 18 -10 69zM174 1833q0 -5 5 -26q5 -59 5 -116.5v-116.5v-84.5t3 -78.5l2 -85q5 -82 8 -178t3 -178v-494q0 -108 1 -206t6 -206h5q20 3 42.5 5t42.5 10q61 18 136 57q54 26 106 55 t93 62q31 28 63 56.5t60 54.5l10 10l34 30q44 44 80.5 105.5t65.5 120.5q28 61 46 116t30 114q3 18 4.5 42.5t1.5 44.5q0 31 -4 61.5t-9 64.5q-13 67 -32 139.5t-48 141.5q-41 79 -103.5 165t-134.5 145h3q-28 20 -68 39.5t-84.5 38.5t-89.5 34.5t-83 28.5q-69 18 -131 23 q-5 0 -7.5 1t-7.5 1t-11.5 1.5t-11.5 1.5h-31z" />
<glyph unicode="e" horiz-adv-x="842" d="M61 3l3 33q5 13 5 22v21v54v51.5t3 56.5q0 5 1 12.5t1 12.5q8 79 9 161t1 162v82v75t3 71v69q0 20 1.5 39.5t1.5 31.5q0 8 -1.5 15.5t-1.5 15.5v85l-5 48l-5 54q-5 28 -7.5 61.5t-2.5 63.5v21q0 3 1 4t1 4v87v40.5t3 43.5l7 95q0 8 1.5 19.5t1.5 21.5q3 31 9 41t11 13 l-15 -6v87.5t3 87.5q0 5 1 14t1 14h69q10 0 18 -1.5t18 -1.5h115h106.5t111.5 -5l143 -8q10 -3 36 -2h15q5 0 26 5l21 5v-67q-8 -3 -16 -2h-28h-10q-3 0 -4 1t-4 1h-27t-22 3h-20q-5 0 -11.5 1.5t-11.5 1.5q-20 0 -46 1t-44 4q-51 5 -110 6t-105 1h-115q-10 0 -17.5 1.5 t-18.5 1.5h-23q-3 -31 -3 -65q1 -6 1 -12v-77q0 -18 -1.5 -37t-3.5 -47l-8 -97v-41v-51.5t-1.5 -47.5t-1.5 -29v-29v-77.5t5 -78.5h8q13 0 21 3l28 5q18 5 41 6.5t43 1.5l141 10h46h42t43 -5h-3q15 -3 38 -3h47h53l-2 -56h-69q-18 0 -37.5 -1.5t-37.5 3.5q-20 5 -38 5.5 t-36 0.5h-46l-141 -11q-36 0 -82 -7q-5 0 -8.5 -1.5t-9.5 -1.5q-8 -3 -18 -2.5t-15 0.5q0 -3 1.5 -5.5t1.5 -5.5v-92q0 -8 1 -15.5t1 -15.5v-69q0 -18 -1 -35.5t-1 -38.5q-3 -33 -3 -70v-73v-82q0 -79 -1 -161t-7 -164q-3 -28 -4 -65.5t-1 -65.5v-74q5 3 10.5 5.5t12.5 2.5 h187q5 0 10.5 -1.5t10.5 -1.5h56q90 0 187 8q5 0 10 1t10 1h82q10 0 23 1.5t21 1.5v-54h-34.5t-27.5 -3q-5 0 -14 -1t-14 -1h-20q-51 -5 -111.5 -7.5t-111.5 -2.5h-59q-5 0 -9 1t-9 1h-187q-13 0 -20 -2q-20 -5 -31 -5h-31z" />
<glyph unicode="f" horiz-adv-x="832" d="M110 28l5 74v6q0 3 3 5q3 10 2 25v92q0 8 1.5 15.5t1.5 15.5v23q0 5 -1.5 11.5t-1.5 14.5v146q0 8 1.5 16.5t1.5 19.5v33t2 36q5 51 8 119t3 119v51q0 5 -1.5 11.5t-1.5 14.5v28q-3 33 -4 76.5t-1 74.5v84q0 8 1.5 15.5t1.5 15.5l7 174v15q3 54 4 108t6 113l8 89 q3 15 4 34.5t1 44.5v31q-3 28 10 54t54 31h29.5t29.5 2q13 0 27 1.5t27 3.5h33q8 0 17 1.5t16 1.5h47.5t47.5 2h-2q13 3 32 3h29h92h28.5t28.5 -3q10 -3 25 -2h5h18q8 0 16 2v-53q-3 -3 -11 -3h-28h-18t-20 3q-10 3 -23 2.5t-21 -0.5h-92h-28t-31 -2q-41 -5 -79.5 -5h-79.5 l-110 -8q-15 -5 -15 -31v-38q0 -20 -1.5 -38.5t-3.5 -35.5l-8 -87q-5 -49 -6 -103t-4 -102v-34l-5 -135h18q18 0 41 -1.5t41 -3.5q5 0 7.5 -1.5t7.5 -1.5q13 -3 22 -2.5t11 0.5h185l171 -13v-57q-36 5 -89.5 8t-89.5 5q-13 3 -33 3h-26q-13 0 -24.5 -1.5t-24.5 -1.5h-69h-14 t-19 3h-5q-3 0 -3 2q-5 0 -12.5 1.5t-15.5 1.5q-18 3 -33 4t-28 1q-15 0 -21 -3v-64q0 -8 -1 -15.5t-1 -14.5q0 -36 1 -74.5t4 -76.5q3 -23 2.5 -54t-0.5 -51q0 -59 -2.5 -119t-7.5 -119q-3 -18 -2.5 -35t0.5 -34q0 -10 -1.5 -19.5t-1.5 -16.5v-146q0 -8 1.5 -14.5 t1.5 -11.5v-23q0 -8 -1.5 -15.5t-1.5 -15.5v-92l-5 -59q-3 -10 -4 -17.5t-1 -33.5h-54z" />
<glyph unicode="g" horiz-adv-x="1507" d="M46 924q0 97 16.5 196t57.5 183v-3q23 59 47.5 108t57.5 84v-2l39 56q46 67 108.5 133.5t129.5 109.5q51 36 107.5 61.5t120.5 25.5q148 0 268 -38q54 -13 82 -28h-2q8 -3 16.5 -6.5t16.5 -6.5l90 -54l79 -59l41 -28q15 -13 32 -34.5t22 -65.5l-54 -2q0 20 -18 39.5 t-38 34.5q-20 18 -43.5 36t-61.5 38q-13 13 -75 44l-17 8l-18 7q-31 15 -64 23q-61 15 -126.5 27t-129.5 12q-59 0 -104 -23t-96 -52q-59 -36 -104 -87t-88 -107q-5 -5 -13 -16.5t-13 -16.5l-38 -49v3q-31 -41 -56.5 -88.5t-45.5 -114.5q-36 -82 -54 -170t-18 -178 q0 -44 4 -92.5t9 -89.5q13 -61 28 -125t33 -123q15 -59 41 -109t67 -91l38 -41q15 -18 34.5 -35.5t44.5 -30.5q20 -10 44.5 -24.5t68.5 -44.5q23 -15 43.5 -23t48.5 -13l41 -8q28 -5 51 -10t44 -5h2q3 0 6 2q31 3 50 8t37 10h2q3 0 5 3q28 5 47.5 11.5t37.5 14.5h-3 q8 5 27 8.5t37 8.5q46 13 87 30t74 45q44 44 72 100t54 115v-5q0 5 2.5 10t2.5 8l23 58v-2q13 31 24.5 63t19.5 60v14t2 14q0 5 1.5 12.5t1.5 12.5q3 23 4 45t6 35q13 36 15.5 61.5t2.5 56.5v58q-5 -3 -5 -2h-3q0 3 -2 2q-3 -3 -8 -2h-3q-3 0 -4 -1.5t-6 -1.5 q-10 -3 -24 -2.5t-32 0.5h-167q-5 0 -8.5 1t-9.5 1q-18 3 -47 5.5t-45 2.5l-5 3q-5 0 -10 1t-10 1q-15 3 -32 3h-30h-20q-5 0 -13 -1.5t-15 -1.5h-64v56h112h29.5t32.5 -2l64 -8l71 -7h174h18t23 2q8 3 24.5 5.5t42.5 2.5l10 -26l10 -13q5 -15 5.5 -24t0.5 -17v-35 q0 -36 -5.5 -67t-12.5 -67l-8 -53q-3 -23 -5.5 -42.5t-7.5 -34.5l-10 -33q-5 -20 -10 -43.5t-13 -38.5q-8 -18 -15.5 -37.5t-12.5 -37.5q-28 -61 -60 -126.5t-86 -118.5q-41 -36 -86 -54t-101 -31l-21 -5h3l-28 -10h2q-20 -8 -45.5 -18t-51.5 -15l-31 -8q-13 -5 -28 -6.5 t-33 -3.5q-5 -3 -14 -3h-14q-20 0 -39.5 2.5t-37.5 7.5q-5 0 -10 1.5t-10 1.5l-47 8q-36 5 -62.5 19t-49.5 32l-28 15l-82 41q-26 13 -53 37.5t-42 44.5l-31 41v-3q-51 44 -81.5 104t-46.5 122q-20 61 -35.5 126.5t-25.5 126.5q-5 44 -9 90t-4 102z" />
<glyph unicode="h" horiz-adv-x="844" d="M108 1746v2q0 5 2 11l-2 125l53 -5l3 -125q0 -3 -1.5 -7t-1.5 -9q0 -20 1.5 -37t3.5 -29v2q3 -8 4.5 -24.5t1.5 -29.5q3 -28 4 -63.5t1 -61.5v-35.5t-3 -41.5q-3 -23 -4 -53.5t-1 -51.5q0 -33 1.5 -63.5t3.5 -61.5v-28q0 -5 1.5 -6.5t1.5 -9.5h156q10 0 17.5 1.5 t18.5 1.5h36.5t34.5 2q10 0 19 1.5t22 4.5q5 0 11.5 1t11.5 1q13 3 27 4t27 1h18q5 0 10 1.5t10 1.5q10 3 25.5 3t26.5 -1v23q0 49 -1.5 100t-3.5 103q0 13 -1.5 25.5t-1.5 25.5v48q-3 54 -4 123t-1 118v13q0 5 -1.5 14t-1.5 19q-3 20 -2.5 52.5t0.5 44.5h54v-42t2 -47 q0 -10 1.5 -19t1.5 -17v-18q0 -59 1 -119t4 -122v-46q0 -13 1 -24t1 -24q3 -46 4 -106.5t1 -101.5v-58q0 -36 -1 -68t-4 -63q-3 -44 -4 -99t-1 -98q0 -36 1.5 -72t3.5 -74q3 -20 4 -44.5t1 -42.5q0 -5 -1 -10t-1 -11v-71v-51.5t2 -56.5q3 -20 4.5 -43t1.5 -44v-258h-54v258 q0 23 -1.5 45t-3.5 50q-3 20 -3 49.5v50.5v71q0 5 1.5 10.5t1.5 10.5q0 20 -1.5 43t-3.5 44q-3 36 -4.5 73t-1.5 73q0 51 1.5 101t4.5 101v10q3 28 4 48.5t1 49.5h-19t-22 -3q-5 0 -13 -1.5t-13 -1.5h-18l-118 -15h-73t-70 -2h-125v-13q0 -5 1 -11.5t1 -11.5v-584 q0 -10 1.5 -20.5t1.5 -22.5v-25.5t-3 -26.5v-92q-3 -13 -2.5 -28t0.5 -31v-23q3 -8 2.5 -22t-0.5 -24v-15q-3 -15 -2.5 -50t0.5 -55h-54v52.5t2 52.5v33q0 3 -1 4t-1 6v26q0 3 -1.5 5.5t-1.5 9.5q0 18 1.5 37.5t3.5 31.5v93q3 13 3 21.5v19.5q0 13 -1.5 23t-1.5 20v581 q0 5 -1 11.5t-1 14.5v28l-8 207q0 28 1.5 57.5t3.5 57.5q3 18 3 33.5v33.5q0 31 -1.5 61.5t-3.5 61.5q0 8 -1.5 19.5t-3.5 23.5q-3 15 -4 36t-1 49z" />
<glyph unicode="i" horiz-adv-x="268" d="M74 407v161v55t3 55q10 97 17.5 197t7.5 198v84.5t3 78.5t4 84.5t1 84.5v52q0 13 -1 25.5t-1 27.5v200q0 5 1 11.5t1 14.5q3 28 4 64t1 61h54q0 -28 -1.5 -65t-3.5 -60q0 -5 -1 -14t-2 -14v-198q0 -15 1.5 -28t1.5 -25v-52q0 -44 -1 -84.5t-4 -84.5q-3 -38 -3 -79v-84 q0 -77 -5 -166.5t-13 -169.5v-17.5t-2 -18.5q0 -5 -1.5 -14t-1.5 -14q-5 -28 -5 -53.5v-51.5q0 -51 1.5 -104.5t3.5 -110.5v-36q0 -13 1.5 -23t1.5 -23q3 -20 2.5 -47t-0.5 -45q0 -28 -1 -65t-4 -78l-33 2h-21q3 28 4 68t1 73q0 20 -1 43.5t-4 46.5t-2.5 43.5t0.5 40.5 q0 13 -1.5 27t-1.5 27z" />
<glyph unicode="j" horiz-adv-x="417" d="M-174 -369l2 49h26q13 0 19.5 -1.5t18.5 -3.5q5 -3 17 -3h17l59 21q3 0 7.5 1t10.5 1q3 0 4 1.5t3 1.5q23 13 50 33.5t55 48.5q64 72 72 151l10 51q3 10 3 26v12q0 3 -1.5 4.5t-1.5 3.5v39l3 7q3 49 4 101.5t1 106.5q0 28 1 51t1 51q0 67 1.5 160t6.5 160q3 44 3 99v93 q0 67 -1.5 129.5t-4.5 129.5v15q-3 48 -3 115q0 11 1 23v138v111.5t-5 114.5q0 5 -1.5 8.5t-1.5 9.5v94q0 5 -1 9t-1 9v18q0 10 1 21.5t6 34.5l54 -2q-5 -23 -6.5 -33.5t-1.5 -20.5v-36q0 -5 1.5 -8.5t1.5 -9.5v-76q0 -5 1.5 -9t1.5 -9q5 -51 5 -114v-112v-141t2 -135v-15 q3 -61 4 -130.5t1 -128.5v-95t-2 -97q-8 -161 -8 -320q0 -28 -1 -51t-1 -51q0 -54 -1.5 -106.5t-4.5 -103.5v-69l-10 -47q-3 -10 -2 -25q-5 -51 -27 -100t-66 -92q-20 -23 -57 -48.5t-65 -38.5v2q-20 -13 -46 -21.5t-62 -11.5q-13 0 -38 5q-10 3 -28 3z" />
<glyph unicode="k" horiz-adv-x="936" d="M77 -3q10 36 15 77t5 51v57q0 5 -1 11.5t-1 11.5v15q3 23 4 47.5t1 49.5v23q-5 28 -6.5 63t-1.5 63q0 20 1.5 42t3.5 42q3 13 3 28.5v33.5v28q0 8 -1.5 15.5t-1.5 15.5v61q0 36 1.5 70.5t3.5 70.5q3 36 4.5 70.5t1.5 65.5v181q0 46 -1.5 93.5t-4.5 96.5v89q0 51 1.5 100 t4.5 98q3 38 3 85q-1 8 -1 16v106h49q0 -51 -1.5 -108.5t-3.5 -101.5q-3 -44 -3 -97.5v-97.5v-42t3 -45q3 -44 3 -85q-1 -7 -1 -13v-94v-10l44 41l48 41l62 69l41 46q23 23 39.5 42.5t24.5 32.5q51 56 93 100.5t83 88.5q36 31 72 66.5t72 71.5l77 82l40 -38l-53 -57v3 l-41 -49l-85 -79q-10 -8 -23 -20.5t-20 -20.5q-44 -44 -96.5 -99t-85.5 -93v3q-28 -36 -51 -63t-41 -48l-67 -74l-48 -38q-13 -10 -28.5 -25.5t-30.5 -33.5l-5 -5q26 -18 46 -38.5t38 -41.5l8 -7q0 -3 5 -3l10 -10q13 -13 26 -25.5t33 -41.5v3q8 -10 28 -49l10 -18l-2 3 l33 -49v3q44 -51 72 -100t51 -97q13 -28 23 -54t21 -51l23 -54l69 -159h-3l31 -46q13 -18 23 -38.5t18 -35.5q5 -13 10 -27t18 -27q0 -3 -3 -2q13 -20 27 -44.5t27 -45.5q13 -26 28 -51l-59 -5q-3 10 -10 26.5t-16 33.5t-17 29.5t-13 17.5l-38 57l-5 12l-16 36q-5 10 -10 19 t-10 20q-13 15 -20.5 29t-10.5 19l-64 149l-20 46v-3q-28 61 -57 121q-28 59 -53.5 108.5t-51.5 78.5l-30 48v-2q-8 3 -8 15q-5 8 -9 17t-19 24q-13 15 -28.5 30.5t-30.5 33.5l-26 26l-69 71v-66q0 -31 -1 -63t-4 -68v-15q-3 -36 -4 -67t-1 -64v-31q0 -8 1 -15.5t1 -14.5 v-59v-35.5t-2 -28.5v2q-3 -20 -4 -42t-1 -42q0 -61 7 -115v-34q0 -20 -1 -49.5t-4 -49.5v-75q0 -5 1.5 -8.5t1.5 -9.5q0 -13 -2.5 -59t-12.5 -74z" />
<glyph unicode="l" horiz-adv-x="814" d="M72 870v359l5 164l7 166q5 44 8 84.5t3 79.5q0 23 -1.5 48.5t-11.5 64.5l54 2q10 -38 11 -65t1 -50q0 -36 -2.5 -82t-7.5 -82q0 -10 -1 -26.5t-1 -29.5q-3 -15 -3 -28v-23q-5 -56 -6.5 -112.5t-3.5 -110.5q-3 -31 -3 -60.5v-60.5v-176q0 -15 1.5 -30.5t1.5 -31.5 q0 -92 4 -186.5t9 -186.5q5 -64 8.5 -133.5t3.5 -133.5q0 -8 -1 -15.5t-1 -14.5v-100q0 -8 -1.5 -9t1.5 -9q3 0 6.5 1t11.5 1q3 0 2.5 1.5t2.5 1.5q20 5 44.5 5h39.5h192h39.5t40.5 3h12.5t12.5 2q5 3 18 3h18h13q5 0 11.5 1t14.5 1q5 0 7.5 -1t7.5 -1h64l-5 -54h-62 q-5 0 -7.5 1.5t-7.5 1.5q-5 -3 -16.5 -3h-16.5t-7.5 -1t-8.5 -1h-10q-8 -3 -20.5 -3h-17.5q-18 -3 -40 -3h-37h-195h-34.5t-36.5 -5q-3 0 -5.5 -1t-10.5 -1q-20 -5 -48 -5l-23 2q-3 18 -3 42.5v44.5v85q0 8 1.5 15.5t1.5 14.5q0 67 -4 132.5t-9 134.5q-5 92 -7.5 186.5 t-2.5 186.5z" />
<glyph unicode="m" horiz-adv-x="1666" d="M69 1874l46 5q44 -69 69.5 -125.5t51.5 -107.5l23 -49l10 -25q5 -13 11.5 -31t16.5 -38q67 -143 133.5 -302t122.5 -328q10 -33 21.5 -74t23 -83.5t22 -83.5t17.5 -74q20 -95 43.5 -192t59.5 -187q10 20 17.5 42t13.5 40l17 49v-3l26 62q15 41 32 83t35 78 q28 54 57.5 114t57.5 119q36 61 69 125t64 131q97 215 181.5 425t128.5 427l48 -2q0 -238 2.5 -472.5t8.5 -459.5q5 -228 7.5 -462t2.5 -475h-39h-15q0 246 -2.5 491.5t-7.5 481.5q0 26 -1.5 48.5t-1.5 46.5q-5 143 -6 269.5t-1 293.5q-49 -156 -118 -325t-136 -308 q-31 -74 -68 -143t-73 -136q-28 -54 -57.5 -108.5t-52.5 -106.5q-20 -44 -38 -88.5t-33 -80.5q-5 -5 -6 -12l-17 -47q-18 -49 -35 -92t-35 -76q-5 -5 -5 -16h-38l-3 18v-5q-49 95 -79.5 209t-55.5 231l-18 72q-15 64 -29.5 124t-34.5 119q-44 131 -106.5 278t-126.5 301 l-18 41v-3l-56 123l-16 41v-3q-10 23 -15 36t-18 34q10 -100 14 -201.5t4 -211.5v-281q0 -20 -1.5 -44.5t-1.5 -50.5v-42t-2 -65q0 -10 -1.5 -24.5t-1.5 -27.5q-3 -67 -4 -148.5t-1 -155.5t2.5 -160t7.5 -140q3 -26 1.5 -47.5t-3.5 -39.5v-56h-54v28q0 5 1.5 10t1.5 10 q3 18 2.5 38.5t-5.5 54.5q-5 56 -6.5 141.5t-1.5 160.5q0 79 1.5 156t3.5 143q0 13 1.5 28.5t1.5 28.5q3 38 3 65v42q0 26 1 50t1 45v281q0 138 -7.5 281.5t-33.5 297.5z" />
<glyph unicode="n" horiz-adv-x="1131" d="M82 279q0 36 1 69t4 69t5.5 63t7.5 47t6.5 36t3.5 31q5 59 6.5 129.5t1.5 123.5v382q0 131 5 279t15 340l26 3q36 -3 54 -36t28 -61v2q5 -10 5 -15q10 -23 24 -50t27 -47l10 -24l-2 3q13 -20 23 -38t15 -29q28 -59 64 -147t69 -173v3q28 -64 54 -124t51 -109 q36 -84 70.5 -170t67.5 -170q13 -33 24.5 -64t24.5 -59q36 -92 69.5 -176.5t71.5 -174.5v15q0 97 2.5 196t12.5 193q10 97 15.5 193.5t5.5 196.5v42t-3 45q0 41 -1 82t-4 76q-3 59 -4 116.5t-1 114.5v10q0 69 -8 143q-5 36 -7.5 70.5t-2.5 70.5q0 23 2.5 54t12.5 72l54 -3 q-10 -41 -12.5 -70.5t-2.5 -52.5q0 -69 7 -141q0 -13 1.5 -24t1.5 -24q3 -20 4 -47.5t1 -47.5v-10q0 -69 1.5 -142t6.5 -142l5 -105q3 -20 3 -46v-41q0 -100 -6.5 -196t-14.5 -194q-10 -95 -12.5 -193t-2.5 -196v-84t2 -85h-41l-5 11q-5 5 -16.5 28t-16.5 36l-23 46 q-41 100 -80.5 201t-80.5 201q-44 108 -85 210t-87 209q-26 51 -52.5 115.5t-54.5 128.5q-18 36 -29 66q-23 64 -47 123t-55 118l-41 84q-13 20 -25.5 41t-23.5 39l-12 36l-8 25q-13 -131 -17 -261.5t-4 -265.5v-382q0 -59 -1 -124t-4 -134q-3 -20 -4 -43.5t-6 -43.5 t-7.5 -44.5t-2.5 -40.5q-3 -36 -4 -69t-1 -69q0 -51 5 -114t18 -121l-54 -3q-13 59 -18 123t-5 115z" />
<glyph unicode="o" d="M64 858q0 77 8 151q13 90 39.5 190.5t85.5 195.5q5 5 7.5 13t7.5 13q36 54 73.5 109t72.5 88l49 43q36 28 83.5 69.5t85.5 61.5q41 20 94.5 40.5t107.5 28.5q8 0 21 3q18 3 38.5 4t40.5 1q49 0 96 -13t73 -20q56 -20 107.5 -39.5t110.5 -65.5q69 -51 115 -106.5 t74 -137.5q26 -74 40 -149.5t27 -152.5q5 -41 8.5 -83t3.5 -91q0 -169 -46 -334t-143 -298q-51 -67 -117.5 -127t-146 -107.5t-165.5 -75.5t-170 -28q-15 0 -23 3q-61 3 -106 27t-89 52q-13 0 -12 13q-13 13 -36 25.5t-49 27.5v-2l-33 20q-28 18 -59 37.5t-64 52.5 q-113 105 -161.5 256t-48.5 305zM115 858q0 -146 45 -287t150 -236q36 -36 69 -56t66 -38l95 -62l-10 5q46 -36 97 -59t110 -28l8 -2q79 0 160 25.5t155 69t137 100t106 117.5q87 120 132 281.5t45 322.5q0 41 -4 82t-9 79q-13 77 -27 151.5t-37 148.5q-26 74 -67 125.5 t-100 92.5q-44 33 -94.5 53.5t-109.5 38.5q-23 8 -69.5 20.5t-84.5 12.5q-8 0 -23 -1.5t-28 -3.5q-13 -3 -24.5 -3h-16.5q-38 -8 -91 -28.5t-91 -40.5q-44 -20 -77 -47t-66 -58l-21 -18l-43 -38q-44 -41 -74.5 -83t-53.5 -81l-36 -51q-44 -74 -69.5 -170t-38.5 -186v3 q-5 -36 -7.5 -74.5t-2.5 -76.5z" />
<glyph unicode="p" horiz-adv-x="860" d="M97 1725q0 31 4 62t19 69q18 10 49 10q18 0 34.5 -2.5t29.5 -7.5q5 -3 11.5 -3t11.5 -2q8 -3 13 -3q51 -8 92 -23t74 -33q10 -5 18 -5q56 -28 108.5 -64t96.5 -100q44 -67 59 -133.5t15 -132.5q0 -61 -9 -119t-19 -117q-5 -15 -5 -25l-8 -46q-13 -44 -28 -90t-49 -97 q-41 -61 -81.5 -89.5t-102.5 -51.5l-61 -28h2l-18 -10v2l-38 -19t-46 -17l-49 -5q-13 -3 -28 -4t-28 -6v-190q0 -74 8 -138l5 -54q5 -46 8.5 -102t3.5 -115h-53q0 46 -2.5 85.5t-8.5 80.5v-2q-3 8 -2.5 24.5t0.5 23.5q-5 46 -9 97.5t-4 99.5v210q3 90 3 173v170v34 q0 59 -1.5 115t-3.5 113q0 28 -1.5 57.5t-1.5 59.5q-5 77 -6.5 172t-1.5 176zM151 1723q0 -87 2.5 -174t7.5 -172q5 -90 6.5 -173t1.5 -172v-34q-3 -44 -3 -86v-85v-72q0 -18 -1 -30.5t-1 -33.5q5 0 14 1.5t17 1.5q5 0 8.5 1t8.5 1h-2l46 8q20 5 44.5 16.5t47.5 24.5h3 q15 10 30.5 16.5t30.5 11.5q56 20 94.5 46t66.5 72q26 36 39 79.5t25 91.5l8 49q0 8 2.5 17t2.5 16q10 56 19 109t9 104q0 61 -14 122.5t-47 115.5q-31 46 -82 78t-107 60q-5 0 -11.5 4t-9.5 6q-38 18 -72.5 32t-70.5 20q-15 0 -27 2.5t-22 7.5q-25 7 -42 7h-4h-10 q-5 -20 -6.5 -45.5t-1.5 -41.5v-2z" />
<glyph unicode="q" horiz-adv-x="1630" d="M41 753v35q3 87 24.5 177t56 177t79.5 169t93 151l18 23l23 31q36 51 74.5 97t84.5 82l3 2q33 28 67.5 45t78.5 27l41 10q23 8 57.5 15.5t62.5 10.5q28 5 61.5 6t53.5 1q41 0 87 -12.5t69 -25.5q51 -26 103.5 -59t91.5 -74q54 -59 94.5 -130.5t70 -152.5t43.5 -165.5 t14 -163.5q0 -5 -1 -10t-1 -10v-41q-5 -61 -13 -126.5t-22 -131t-36 -127t-55 -115.5q-49 -74 -97 -133t-112 -112l135 -167q13 -20 36 -33q18 -18 34.5 -36t32.5 -48l-41 -44q-28 64 -69 97l-34 31l-141 166l-7 -5v3q-97 -64 -188 -103.5t-199 -39.5h-25.5t-28.5 2 q-67 5 -139.5 24.5t-131.5 49.5l-43 28l-11 6h3q-49 28 -95 62.5t-82 83.5q-72 92 -96 213.5t-24 239.5zM90 753q0 -108 26.5 -225.5t85.5 -199.5q33 -44 75.5 -74.5t93.5 -58.5l10 -8l-2 2l15 -10q67 -38 138.5 -56t135.5 -23q3 0 5.5 -1.5t4.5 -1.5h36q102 0 187 36 t174 95l3 5q0 3 5 5q-56 72 -117.5 145t-133.5 155q-64 67 -132 133t-137 125l-82 80l-302 284q-41 -92 -62.5 -184.5t-26.5 -189.5v-33zM205 1213q13 -20 32 -36.5t39 -37.5l67 -59q56 -56 118 -110l54 -56h-3l38 -36q95 -82 178 -160t142 -145t114 -137t112 -139l28 -31 q59 51 107.5 110t92.5 121q26 46 45 104.5t31.5 121.5t20 128t13.5 127q3 13 4 25.5t1 25.5q0 151 -54 308.5t-156 265.5q-33 36 -82 65t-97 52q-23 13 -63 26t-68 13h-29.5t-26.5 -3l-59 -5q-20 0 -48.5 -7.5t-51.5 -15.5l-49 -13q-36 -10 -69 -24t-56 -30h2 q-51 -51 -101 -107t-85 -105l-11 -13v3q-33 -44 -63.5 -101.5t-66.5 -124.5z" />
<glyph unicode="r" horiz-adv-x="770" d="M69 1720.5v45.5v64q3 33 9 47.5t32 14.5l41 -5q3 0 4 -1.5t6 -1.5h16q72 -13 143.5 -30.5t137.5 -66.5q115 -90 170.5 -221.5t55.5 -270.5v-44.5t-3 -39.5q-15 -138 -85.5 -230.5t-167.5 -174.5l-3 3q-41 -28 -102.5 -69t-130.5 -54q26 -26 49 -59t43 -66l3 -3 q28 -51 61 -111t62 -96v2q64 -72 117 -171l103 -149l-39 -30q-33 44 -56 80.5t-46 72.5q-20 36 -48.5 74.5t-71.5 89.5q-28 36 -54 79.5t-54 92.5l-15 25l-23 44q-20 31 -41 57.5t-49 47.5q0 -41 -1 -74.5t-1 -69.5v-507h-54v430q0 128 2 262v138q0 13 1.5 23t1.5 23v108.5 t2 111.5q3 59 4.5 114t1.5 114q0 82 -4 169t-14 169q-3 18 -3 43.5zM118 1838q3 0 2.5 -1t2.5 -1v2h-5zM119 1710q0 -13 4 -23q13 -82 16.5 -170.5t3.5 -177.5q0 -59 -1 -114t-4 -114q-3 -51 -3 -96q1 -7 1 -15v-109v-79.5t-3 -76.5h8q67 0 136 38.5t115 76.5q90 77 156 160 t79 201q3 20 3 40.5v43.5q0 128 -47.5 250t-152.5 201q-56 38 -124 55t-142 29q-3 0 -6.5 1.5t-6.5 1.5q-5 0 -10 1.5t-13 1.5h-5q0 -13 -3 -16v-74q0 -14 -1 -30v-6z" />
<glyph unicode="s" horiz-adv-x="775" d="M25 387l1 17q0 5 1 8t1 8v43h51v-43q0 -5 -1 -7.5t-1 -8.5q0 -5 2 -10q5 -59 29.5 -108.5t60.5 -93.5q18 -26 43.5 -46.5t61.5 -22.5q10 -3 23 -3q54 0 123 28q87 44 128 117t41 147q0 84 -32 180.5t-68 178.5q-8 10 -14.5 19t-8.5 14l-8 18q-13 28 -27 53.5t-27 38.5 l-7 10l-39 46q-18 23 -32 43.5t-26 33.5q3 -3 -2.5 12.5t-10.5 23.5q-51 90 -102.5 196t-71.5 211q-8 38 -8 79v9q1 96 59 162q62 70 169 93q28 5 55 9t57 4q77 0 131 -28l5 -6q38 -20 84.5 -56t46.5 -95h-57q3 15 -7.5 31t-27 30t-34.5 25.5t-33 18.5q-26 10 -54 18t-54 8 q-44 0 -99 -13q-82 -20 -134.5 -76.5t-52.5 -133.5q0 -8 1 -22t4 -26q0 -5 1 -9t1 -9q26 -90 72 -195t90 -189h-3l23 -44q18 -36 59 -77l3 -5l35 -46q36 -51 51.5 -75.5t23.5 -42.5l12 -38v3q44 -82 77.5 -182t33.5 -200q0 -97 -43.5 -181.5t-154.5 -130.5q-66 -31 -148 -31 h-16.5t-16.5 3q-44 5 -80 34.5t-56 57.5q-36 46 -65.5 103.5t-34.5 108.5q-3 4 -3 11z" />
<glyph unicode="t" horiz-adv-x="693" d="M-28 1869q46 5 60 6t22 1q20 0 45.5 -1t59.5 -4q28 -3 56 -4t56 -1h23q51 3 105 5.5t108 7.5l56 5q38 5 87 6.5t85 3.5l2 -53q-44 -3 -93.5 -4t-93.5 -7l-53 -5l-128 -10q-5 -13 -5 -32v-35v-38q-3 -20 -3 -34.5v-34.5v-110q0 -10 1.5 -19t1.5 -20q0 -51 -1.5 -107 t-4.5 -115q-3 -54 -4 -110.5t-1 -115.5q0 -74 -2.5 -152t-7.5 -152q-5 -77 -7.5 -152.5t-2.5 -152.5v-36q0 -10 1 -17.5t1 -15.5v-59q5 -56 5 -136.5v-132.5h-51v134.5t-5 134.5q-3 28 -2.5 60t0.5 68q0 77 2.5 152.5t4.5 152.5q5 74 8 152t3 152q0 59 1 115.5t4 110.5 q3 51 4 113.5t1 108.5q0 10 -1.5 19.5t-1.5 19.5v110v34.5t3 34.5v38v35t2 29h-41q-28 0 -53.5 1.5t-58.5 4.5q-28 3 -55 4t-50 1q-10 0 -24.5 -1.5t-55.5 -6.5z" />
<glyph unicode="u" horiz-adv-x="1105" d="M92 1185v31q0 64 1.5 129.5t3.5 131.5q0 20 1.5 52.5t1.5 52.5q3 69 4 143.5t1 135.5h51q0 -61 -1 -131.5t-4 -132.5q0 -23 -1.5 -60t-1.5 -60q0 -67 -1 -132t-1 -129v-31q0 -67 2.5 -136t15.5 -138q10 -46 12.5 -98.5t5.5 -100.5v-36q0 -84 7 -154q5 -61 22 -135.5 t42 -138.5q20 -41 50 -82t73 -53q10 -3 23 -5.5t26 -2.5q36 0 79.5 15.5t84.5 33.5v-3q51 31 81.5 72t59.5 100q59 123 94.5 250.5t48.5 261.5q23 225 23 455v102.5t-5 99.5q-5 97 -6.5 198.5t-1.5 198.5h54q0 -97 1.5 -198t6.5 -199q5 -44 5 -100v-102q0 -108 -6.5 -228 t-16.5 -230q-13 -138 -51.5 -279t-94.5 -256q-31 -67 -65.5 -110.5t-103.5 -76.5v3q-41 -26 -88.5 -44t-98.5 -18q-38 0 -72 13h-5q-54 20 -89.5 65t-56.5 99v-3q-26 59 -41 141t-20 154q-3 23 -4 51t-1 51q0 13 -1.5 27t-1.5 27q-3 54 -5.5 111.5t-12.5 111.5 q-15 72 -19 140.5t-4 145.5z" />
<glyph unicode="v" horiz-adv-x="1090" d="M36 1838q0 13 1 20.5t14 25.5l57 -5q-13 -28 -15.5 -33t-2.5 -8q0 -13 6 -37t12 -45l7 -23l18 -56l26 -80q5 -18 7.5 -41t5.5 -48l10 -64q5 -23 11.5 -47.5t13.5 -44.5q8 -26 14.5 -50.5t11.5 -49.5q10 -51 18 -102.5t15 -102.5l8 -51q15 -108 33 -210t41 -210l10 -38 q23 -100 49 -206.5t54 -203.5q15 33 24 57.5t17 47.5l18 49l36 89q28 74 54.5 155t47.5 158l10 35q20 59 33 110q28 108 60.5 214t73.5 196v-3q36 90 70.5 188.5t59.5 190.5q0 13 5 29l8 28l15 76l10.5 42t10.5 38l10 36l44 -3v-21.5t-3 -21.5v5q0 -3 -1.5 -4t-1.5 -4v-15 l-15 -64q-10 -33 -13 -57q-5 -15 -5 -28l-10 -51q-13 -44 -28.5 -95t-33 -102t-37 -98.5t-34.5 -85.5q-41 -102 -69.5 -193.5t-53.5 -180.5q-5 -18 -10 -34.5t-11 -32.5l-30 -107q-23 -79 -51.5 -165t-51.5 -153l-23 -56v3l-20 -52q-20 -59 -42 -114t-43 -88l-13 -26l-35 6 l-5 25q-36 123 -69.5 252.5t-64.5 259.5q-23 102 -40.5 211t-33.5 212q-3 18 -5.5 35.5t-7.5 38.5q-8 46 -14 92t-14 87l-20 100q-8 23 -14.5 47.5t-11.5 47.5q-8 31 -13 71l-7 34q-3 10 -7 25.5t-7.5 28t-5 23t-1.5 7.5q-8 26 -15.5 49t-12.5 48q-8 20 -18 52.5t-10 65.5z " />
<glyph unicode="w" horiz-adv-x="1917" d="M23 1838h54q0 -26 6.5 -46t16.5 -41l20 -54q0 -3 1.5 -4t1.5 -3q8 -26 11.5 -60.5t8.5 -70.5q10 -97 24.5 -197t34.5 -205q20 -97 37 -192t32 -192q13 -90 27 -177t32 -176q5 -15 7.5 -30.5t5.5 -36.5q5 -31 13 -65.5t23 -72.5q8 -20 16.5 -46t16.5 -54l13 59l8 31l23 87 l84 230l62 185l23 76q5 15 10 30.5t10 31.5q28 95 55 184.5t50 183.5q41 154 97 282q36 74 63 151t27 151v36l49 3q13 -36 14 -73.5t1 -67.5v-29.5t3 -29.5v-28q0 -8 1 -14.5t1 -11.5q5 -82 15 -154q13 -90 23.5 -174t23.5 -171q18 -100 42 -209t52 -206l8 -31 q8 -33 15.5 -62.5t12.5 -59.5q8 -41 15.5 -81t20.5 -81q18 -72 31 -151l5 -43v-3l2 21l8 56q5 13 12.5 32t20.5 35q3 3 5.5 11.5t15.5 39.5q26 49 50 105t37 100q36 110 70.5 223.5t75.5 213.5v-2l23 53q20 44 34 81t22 68q15 51 37 110t40 102q28 54 44.5 102.5t34.5 97.5 l16 41l10 28q8 20 14 44.5t17 47.5v-2q0 5 5 10q0 3 2.5 8t2.5 7q5 15 10 32t5 38l39 -6l12 -17l-12 -54l-13 -39q-10 -23 -15.5 -43.5t-12.5 -40.5l-11 -28l-7 -23q-20 -59 -41 -114t-54 -114h3q-20 -44 -34.5 -83.5t-24.5 -75.5q-3 -10 -7 -20.5t-6 -20.5 q-31 -105 -62 -169v3l-18 -44q-49 -115 -83 -222.5t-62 -204.5q-18 -59 -42.5 -122t-50.5 -104l-10 -17q-5 -5 -6.5 -9t-3.5 -9q-13 -13 -17 -27t-9 -30q0 -3 -1 -4t-1 -3q-5 -15 -7.5 -32t-5.5 -35q-5 -28 -10 -53.5t-16 -46.5v3q-3 -5 -4 -15.5t-3 -20.5q-3 -10 -3 -26 l-25 46q-23 28 -31 59t-13 59l-5 39q-5 36 -13 71.5t-18 71.5q-13 41 -20.5 80.5t-15.5 80.5q-5 36 -14 66.5t-16 64.5l-6 25q-13 46 -24 100t-24 109t-23 109t-18 97q-13 77 -24.5 157.5t-21.5 157.5l-5 33q-5 36 -9 78.5t-7 83.5q0 3 -1 4t-1 6q-10 -33 -23 -62.5 t-26 -58.5q-33 -67 -56 -137t-41 -131q-20 -84 -50 -185.5t-55 -183.5l-105 -325l-85 -228l-10 -36q-5 -15 -7.5 -30.5t-5.5 -23.5q0 -5 -1 -6t-1 -6q-13 -49 -27 -94t-40 -73l-41 -46l-2 67q-3 38 -14.5 75t-31.5 83q-15 36 -24.5 76t-14.5 78q-3 15 -5 32t-8 32 q-18 90 -32 177t-26 176l-8 44q-13 84 -27 170t-29 170q-20 95 -37 202.5t-27 209.5q-5 28 -9 58t-12 63q-5 15 -20 48q-10 20 -18 45t-8 68z" />
<glyph unicode="x" horiz-adv-x="1008" d="M3 38q0 28 15 68t31 63q3 3 5 10.5t7 12.5q5 8 8 15l31 62q18 33 30.5 61t15.5 36q44 102 88.5 194.5t88.5 176.5q28 59 48.5 109t35.5 94t32 83t40 91q-33 74 -70.5 144.5t-73.5 141.5l-15 31h3q-28 44 -49 83.5t-33 75.5q-8 20 -22 48.5t-22 43.5q-18 33 -30.5 81.5 t-18.5 102.5h54q3 -41 17 -82t29 -74l52 -105l15 -36v3l51 -118l21 -38v2q36 -67 65 -121.5t57 -111.5l29 54l33 56h-3l31 64q36 59 63 113t47 105l21 51l5 10q26 59 56.5 122t89.5 124l38 -41q-54 -56 -84.5 -120t-53.5 -123v3l-18 -41q-13 -28 -38.5 -79.5t-53.5 -102.5 l-23 -41h2l-36 -72v3q-8 -20 -18 -37t-15 -37l-20 -44l-21 -41l18 -38v2l13 -25l8 -21l66 -161q26 -59 49 -115.5t46 -115.5q13 -36 24.5 -70.5t21.5 -69.5l10 -39l33 -123q28 -90 72 -170.5t92 -159.5l-56 -5q-46 74 -91 162.5t-65 157.5q-20 59 -36 118l-13 46 q-10 33 -19 66.5t-22 58.5q-18 46 -41 101t-43 99l-18 43v-2l-31 82v-3q-10 20 -18 41t-13 39q-5 8 -8.5 15.5t-9.5 19.5q-13 -31 -24 -57.5t-22 -54.5q-20 -56 -40.5 -108.5t-56.5 -111.5h3q-44 -92 -85 -180.5t-84 -185.5l-75 -151q-5 -5 -5 -11l-33 -48 q-10 -13 -18 -46.5t3 -51.5h-69z" />
<glyph unicode="y" horiz-adv-x="1018" d="M-13 1843l16 16q3 3 6.5 5t5.5 5l5 5q18 -8 35 -29.5t37 -44.5l8 -8q3 -5 15 -18q26 -33 51.5 -61.5t56.5 -53.5v-3l43 -53v2l39 -49l74 -84v3l59 -57q36 -38 78 -95.5t80 -111.5l34 -54v3l7 -13q5 -8 5.5 -6.5t5.5 -6.5l56 113q28 59 44.5 108.5t29.5 98.5l36 118 q28 84 78 156t114 146l44 -33q-64 -74 -111.5 -141t-73.5 -144l-38 -112q-15 -61 -33 -120t-39 -100q-23 -51 -56 -111.5t-69 -124.5q-18 -31 -33.5 -61.5t-30.5 -61.5q-72 -125 -136 -256l-102 -225q-44 -95 -97.5 -201t-115.5 -221l-59 5q51 79 95 172.5t82 177.5l38 85 l108 235q31 61 64 120.5t69 118.5q5 8 12.5 21.5t13.5 21.5q20 38 42 78t40 81q-10 18 -15.5 25.5t-10.5 17.5l-41 62q-31 44 -65.5 91t-88.5 103l-133 141q-5 5 -17.5 20.5t-25.5 33.5q-5 8 -13 16.5t-28 29.5q-28 28 -54 56t-54 62v2q5 -5 -6.5 10.5t-16.5 23.5 q-20 28 -37 47t-27 24z" />
<glyph unicode="z" horiz-adv-x="1059" d="M-54 -28l39 77q10 20 26.5 45.5t37.5 53.5l51 82q8 13 22 36t29 59v-2q3 5 6.5 8.5t6.5 8.5q108 172 206 339.5t198 344.5h-2l41 82q-36 5 -65.5 5t-67.5 3h-82q-5 0 -13 -1.5t-15 -1.5q-18 0 -37.5 1.5t-39.5 11.5l5 56q46 -15 72 -15h20t23 2h28q5 0 13 1.5t13 1.5 q18 0 23 -3l115 -10q10 0 15.5 -1t17.5 -1l8 12q31 51 63 115.5t60 130.5q5 13 10 24.5t10 24.5v-3q15 36 28 74.5t44 89.5h-3q5 13 20.5 31t31.5 36l7 10v-3q23 26 44 69h-77q-13 0 -22 -1t-21 -1h-41q-15 0 -38.5 -1.5t-43.5 -6.5q-15 -5 -31 -5q-26 -3 -50 -6.5t-50 -6.5 q-10 -3 -29.5 -2.5t-31.5 0.5q-33 0 -73 1t-71 6h-26.5t-21.5 3q-8 0 -19.5 1t-21.5 1q-26 3 -50.5 4.5t-41.5 1.5q-13 0 -27 1t-27 4q-20 5 -39 5q-5 0 -12.5 -2.5t-38.5 -18.5l-5 64q20 8 32 9.5t24 1.5q18 0 29.5 -1.5t24.5 -4.5t23 -4t18 -1q15 0 39.5 -1t47.5 -4 q10 0 24.5 -1t24.5 -1q15 -3 25.5 -3h20.5q69 -8 141 -8h27t26 3q33 0 72 8l26 5q59 13 123 13h42t42 2h44q13 0 21.5 1.5t21.5 1.5q3 0 4 -1.5t4 -1.5h56l-2 -33q-15 -44 -38.5 -77t-48.5 -59v3l-44 -59h3q-13 -20 -26 -49.5t-28 -65.5v2l-18 -38l-15 -46 q-18 -56 -49 -116.5t-67 -124.5l52 8q44 5 89.5 9t81.5 4q31 0 54 -5.5t46 -33.5l-49 -38q-3 5 -16.5 15t-34.5 8q-28 0 -66.5 -2.5t-71.5 -7.5q-5 0 -7.5 -1.5t-8.5 -1.5q-26 -5 -53.5 -7.5t-43.5 -2.5l-56 -97q-79 -154 -163.5 -293.5t-172.5 -282.5q-8 -13 -19 -33.5 t-21 -33.5l-26 -38q-13 -23 -28.5 -46.5t-30.5 -46.5q-8 -13 -18 -29.5t-15 -28.5q-18 -23 -46 -82q56 18 118.5 23t129.5 5q20 0 38 -1.5t34 -3.5h10q15 0 32 -1.5t37 -1.5q13 -3 33 -2q28 0 54 1t51 4q28 0 56.5 1t58.5 1q5 0 9 -1t9 -1h54q8 0 16 2q33 3 64 16l84 28 l3 -51l-57 -18h3l-18 -8q-31 -18 -62 -18q-8 -3 -18 -3h-15h-20q-5 0 -9 1.5t-9 1.5h-34q-28 0 -53.5 -1.5t-58.5 -3.5q-23 -3 -52.5 -4t-55.5 -1h-22t-21 2q-13 0 -32 1.5t-30 3.5h3q-20 3 -39.5 4.5t-42.5 1.5q-72 0 -150 -14.5t-144 -42.5z" />
<glyph unicode="{" horiz-adv-x="440" d="M59 886l5 43q5 3 13 5q5 3 9 5.5t6 2.5q8 5 15.5 11.5t10.5 6.5l-3 -3l13 8q5 3 7.5 8t5.5 20q3 8 2 13q0 26 -2 36q-3 13 -4 24.5t-1 29.5q0 20 -1.5 40.5t-1.5 41.5v79q-3 36 -2.5 82t0.5 82v171q0 54 1 113t9 118v-3q0 3 1 5.5t1 7.5q3 28 7 57.5t22 57.5v-2 q5 13 15 20.5t23 14.5q8 5 20.5 6.5t25.5 1.5q8 0 14 -1t14 -4q10 -8 18 -18t8 -28q0 -5 -1.5 -18t-1.5 -18l-43 18l-5 5q-5 5 -6 13q-3 0 -6.5 -2.5t-5.5 -2.5q-3 0 -4 -1.5t-7 -1.5q-13 -3 -28 -30q-5 -5 -6 -26t-4 -41q0 -5 -1.5 -7.5t-1.5 -7.5v-11q-5 -56 -6 -108.5 t-1 -106.5v-332q3 -36 2.5 -82t-0.5 -82v-23.5t3 -25.5v3q3 -8 4 -18.5t1 -25.5v-17t-3 -14q-5 -26 -14 -38.5t-21 -20.5q5 -5 8.5 -6t-1.5 1q8 -13 14.5 -24t11.5 -29q5 -26 6.5 -55.5t1.5 -52.5v-15q3 -20 2.5 -51t-0.5 -54q0 -15 -1 -29.5t-1 -27.5v-483v-31t-3 -33 q0 -5 -1.5 -14t-1.5 -17v-44q0 -5 -1 -8.5t-1 -9.5q-3 -10 -3 -28v-18h3q8 -8 13 -7q3 0 5 1t5 1l-13 8l39 38q38 -20 38 -43q0 -15 -9 -28t-22 -16l3 3q-28 -18 -46 -18q-21 0 -39 18q-20 10 -23 36q0 3 -1 6.5t-1 5.5v13v18t2 23q0 5 1.5 7.5t1.5 10.5v32t2 32v31 q0 10 1.5 17.5t1.5 13.5v483q0 13 1 27t1 30v55t-2 50v41t-3 43t-6.5 35.5t-13.5 21.5q-8 5 -22 7.5t-42 2.5zM225 -110q5 5 8 5q-3 0 -8 -5z" />
<glyph unicode="}" horiz-adv-x="512" d="M90 1912q0 15 10 28t23 24q28 18 59 17q13 0 15 -2q46 -8 64 -54l-2 3q13 -20 15 -34.5t5 -27.5q5 -23 6.5 -53.5t1.5 -53.5q0 -10 -1.5 -20.5t-1.5 -20.5v-133q0 -20 -1 -37t-1 -32v-208q0 -67 1 -127t6 -126v-16q0 -5 1.5 -7.5t1.5 -7.5v-23t2 -23q0 -3 1.5 -4t1.5 -9 l5 -8q3 -5 5.5 -3.5t7.5 -1.5q3 0 4 -1t4 -1l2 -3l23 -5l-5 -36l-10 -7l-39 -23l-2 -6l-8 -18q-5 -15 -5 -31.5v-29.5v-41q-5 -51 -5 -102.5v-102.5v-77q0 -123 1 -241.5t4 -241.5q0 -10 8 -34q3 -10 4 -20t1 -23q0 -18 -10 -36q-21 -33 -57 -33q-8 0 -20.5 3.5t-20.5 9.5 q-8 5 -15.5 15t-7.5 23q0 15 16 28h-3l41 38l3 -64h7q5 0 8 6q5 5 5 10q0 8 -2 13q0 5 -1.5 8.5t-1.5 9.5q-5 8 -6.5 21.5t-1.5 24.5q0 54 -1 116.5t-2.5 127.5t-1.5 126.5v112.5v77v102.5t5 102.5v41v35.5t5 38.5q8 36 31 49q0 3 3 5q-13 10 -16 23l-7 23q-3 13 -3 27v32 q0 5 -1 7.5t-1 7.5v16q-5 59 -6.5 126.5t-1.5 126.5v67q0 18 1 35.5t1 38.5v271q0 10 1.5 19t1.5 20q0 23 -1.5 47t-6.5 53q-5 26 -10 38q-8 15 -36 31q-5 0 -14 -2.5t-17 -5.5q-5 -5 -5 -8t11 -18l-39 -30q-26 36 -25 48z" />
<glyph unicode="&#xa9;" horiz-adv-x="1254" d="M82 1216q0 28 2.5 55t7.5 53q13 64 40 133t70 128q28 44 63 75.5t75 62.5h-2l43 38q3 3 25 18.5t59 32t84 29t104 12.5q51 0 107.5 -15t115.5 -56q44 -28 80.5 -60t67.5 -76l33 -74v2l16 -33q13 -23 23 -51t15 -64q8 -36 10.5 -68t2.5 -68q0 -87 -19.5 -172.5 t-54.5 -160.5q-44 -105 -126 -179t-182 -125q-28 -13 -57.5 -18t-62.5 -5h-61q-5 0 -10.5 1t-7.5 1q-49 5 -87.5 18t-74.5 31q-41 18 -80.5 47.5t-70.5 65.5q-31 41 -60 96t-50 106q-8 20 -11.5 40.5t-8.5 41.5l-5 28q-13 56 -13 110zM136 1216q0 -18 2.5 -46t7.5 -51 q5 -13 6.5 -23.5t3.5 -22.5q0 -5 1.5 -8t1.5 -8l15 -48q18 -44 42.5 -95t52.5 -82q28 -28 65 -57.5t68 -47.5h-3q3 -3 18 -3l18 -5h-2q28 -13 55 -20.5t55 -12.5q5 0 10 -1t10 -1h59q23 0 47.5 3.5t47.5 16.5q90 44 166.5 116.5t120.5 162.5q31 74 48.5 152t17.5 155 q0 26 -2.5 59t-7.5 64q-5 26 -15.5 51.5t-23.5 53.5l-7 15l-5 23v-2q-5 20 -13 38t-16 34q-20 28 -53.5 56t-71.5 51l-18 10l-15 11l2 -3q-33 18 -75 36t-94 18q-23 0 -53.5 -4t-61.5 -17q-28 -10 -65 -28t-60 -36l-21 -15q-44 -36 -84.5 -70.5t-71.5 -78.5 q-33 -49 -56 -115t-36 -128q-5 -26 -7.5 -51.5t-2.5 -45.5zM251 1260q0 79 33 143q33 59 80.5 111.5t114.5 85.5v-3q90 56 197 57h38.5t43.5 -5t48.5 -17t45.5 -40l-35 -36q-15 15 -34.5 24.5t-37.5 14.5q-20 5 -37 5h-35q-49 0 -88.5 -13t-80.5 -38q-59 -28 -102.5 -75.5 t-68.5 -98.5q-28 -49 -28 -115q0 -38 10 -77t23 -82q13 -44 36 -86t64 -65v2q95 -51 189 -51h23t23 3q20 3 38.5 9t33.5 14q-3 0 8 5l20 8l13 2v3q20 10 26 18l51 -6q-13 -33 -29.5 -47t-29.5 -19l-23 -8q-3 -3 -5 -2q-3 0 -5 -3q-15 -5 -38.5 -11.5t-46.5 -11.5 q-13 -3 -29.5 -3h-29.5q-120 0 -215 52v-3q-54 31 -80.5 83.5t-47.5 100.5q-13 44 -23 86t-10 89z" />
<glyph unicode="&#xab;" horiz-adv-x="785" d="M26 963q44 44 70.5 77t49.5 66l51 54l44 41l20 28l56 56q13 13 26 24.5t26 26.5l35 -36q-10 -13 -20 -23q-8 -10 -15.5 -17.5l-10.5 -10.5l-15 -15l-69 -64l-41 -51q-15 -15 -30.5 -32t-33.5 -37l-38 -39v3q-5 -5 -9 -7.5t-4 -10.5q-5 -10 -13 -23t-13 -21q0 -5 4 -8.5 t6 -6.5v3l26 -29l82 -92l38 -48v2l36 -49q5 -5 20.5 -19t20.5 -19l10 -13q13 -15 33.5 -42t71.5 -70l-38 -39l-110 118v3l-41 51v-3q-10 10 -28 30.5t-39 46.5l-20 23v-3l-8 8q-18 20 -33 39.5t-31 34.5l-8 11zM266 945q13 28 31 52t31 37l36 28l94 103v-3l36 41l69 69 q5 8 11.5 17t11.5 17q8 10 13 18l59 -6q-26 -44 -41 -63t-26 -26q-5 -5 -15 -16.5t-15 -16.5l-64 -70l-100 -105l-46 -46v3l-21 -26q10 -10 23 -24t26 -32v3l13 -13l64 -90q8 -10 22 -28t34 -38l36 -46l61 -80q3 0 11 -8l30 -30l-41 -31l-110 128l-15 21q-10 10 -29.5 35.5 t-39.5 53.5l-5 3h2q-13 18 -25.5 34.5t-25.5 34.5v-3q-8 8 -10.5 13t-10.5 13q-8 10 -27 29t-47 48z" />
<glyph unicode="&#xad;" horiz-adv-x="721" d="M49 1001h225q10 0 23 -1.5t26 -1.5q23 -3 43.5 -2.5t30.5 0.5h263v-56h-266h-29.5t-39.5 2q-10 0 -25.5 1.5t-25.5 1.5h-15l-208 -3z" />
<glyph unicode="&#xae;" horiz-adv-x="1200" d="M102 1142q0 33 3 65t8 60q18 90 55 189.5t93 181.5q23 31 57.5 64.5t70.5 53.5l18 13q20 10 47 20.5t68 25.5h-2q8 5 29.5 7.5t34.5 2.5q26 0 46 -2.5t41 -7.5q33 -8 51 -18q67 -38 132 -88t109 -127l23 -33l7 -16h-2q13 -18 22 -39.5t19 -47.5q20 -51 26.5 -103.5 t6.5 -116.5q0 -97 -20.5 -200.5t-66.5 -193.5q-26 -44 -60.5 -86t-62.5 -73q-38 -38 -101 -76.5t-122 -43.5q-13 -3 -30.5 -3h-30.5q-74 0 -147 20.5t-127 74.5q-97 92 -146 226.5t-49 270.5zM156 1142q0 -125 46 -248t136 -210q41 -44 105 -64.5t128 -20.5h24.5t24.5 3 q51 5 106 39.5t91 70.5q28 28 60 67.5t55 80.5h-3q46 84 65.5 179t19.5 187v8q0 51 -6.5 99.5t-24.5 97.5q-8 23 -22 46t-29 51l-8 13l-15 31l2 -3q-33 54 -83 92.5t-106 69.5q-13 8 -32 16.5t-32 13.5q-20 5 -39.5 8t-34.5 3q-10 0 -31 -4t-26 -7h3q-28 -13 -61.5 -29.5 t-58.5 -29.5q-72 -36 -108 -92q-54 -74 -86 -168.5t-50 -187.5q-10 -51 -10 -112zM461 727v522q0 31 1 60.5t4 57.5q0 13 1 29.5t1 29.5q3 44 4.5 93.5t1.5 93.5q13 5 23 10q26 10 46 10q31 0 64 -16.5t61 -31.5q72 -59 95 -139q10 -38 12.5 -77.5t2.5 -88.5 q0 -59 -24 -111.5t-60 -103.5v-3q-36 -41 -73 -71.5t-78 -50.5l43 -39q0 -5 5 -5l46 -38q13 -13 22 -23.5t17 -22.5q10 -13 20.5 -27t30.5 -27l-31 -39q-20 15 -35.5 33.5t-28.5 38.5l-5 3l-23 25l-18 16l-28 25h3q-28 15 -46 31v-164h-54zM515 991q36 20 71.5 47t66.5 63 q31 41 51 87t20 97q0 36 -2.5 73t-12.5 76q-10 28 -28 58.5t-41 51.5h3q-20 13 -47.5 24.5t-52.5 11.5q-13 0 -18 -3v-42t-3 -48q0 -8 -1 -19t-1 -22q-3 -44 -4 -92t-1 -105v-258z" />
<glyph unicode="&#xb7;" horiz-adv-x="1707" />
<glyph unicode="&#xbb;" horiz-adv-x="903" d="M131 530l30 51l23 26l11 10l53 67v-3l28 33l39 44v-3l36 54l23 31q20 26 40.5 52.5t36.5 41.5l-8 11q-3 0 -8 5q-3 3 -5 2q-36 23 -39.5 31t-11.5 15l-44 41q-26 28 -59 68t-76 96q0 3 -3 5q-18 23 -33.5 50t-20.5 68h52q3 -31 15.5 -52.5t27.5 -39.5l8 -10 q23 -36 56 -72t72 -72l30 -30l18 -18l26 -26t20 -18l18 -18h-2l28 -18l3 -23q-20 -28 -36 -38h2q-26 -28 -51.5 -56.5t-37.5 -48.5q-3 -3 -3 -5l-41 -57l-25 -30l-85 -113l-36 -31q-8 -8 -13 -19t-28 -29zM397 543l2 10q33 31 63 64t50 61q54 79 102 136l23 36l18 23l16 18 v-3q13 15 23 29.5t23 27.5q-8 8 -14.5 16.5t-13.5 21.5l-3 3l-26 33v-3q-28 31 -60 61.5t-65 61.5l-59 62l-36 46v-3q-10 13 -19 22t-24 11l2 62q28 -10 43.5 -20.5t20.5 -18.5l5 -5q20 -28 46 -57.5t59 -57.5l26 -23l82 -87l46 -54v3l44 -39q10 -3 15 -10t15 -20l-15 -21 q-36 -28 -56.5 -51t-40.5 -46l-29 -41l-64 -77l-46 -61q-51 -87 -148 -169z" />
<glyph unicode="&#xbf;" horiz-adv-x="614" d="M51 195q0 54 28.5 123t63.5 125l49 77h-3l11 18q18 28 35.5 61t30.5 67q28 56 34.5 116t6.5 119v69.5t-2 63.5q0 13 -1.5 28.5t-1.5 30.5v289v35t3 35v25q0 10 1 18t1 15v70.5t3 63.5h59q-5 -46 -6.5 -81t-1.5 -55q0 -8 -1.5 -15.5t-1.5 -15.5v-28q-3 -15 -2.5 -32 t0.5 -35v-289q0 -15 1 -30.5t1 -28.5q3 -28 3 -66.5v-66.5q0 -67 -6.5 -133.5t-34.5 -124.5l-5 2q-10 -26 -34.5 -64t-44.5 -74h2q-13 -23 -20.5 -37t-17.5 -37q-38 -59 -65 -122t-27 -116q0 -13 1 -30t4 -29q18 -51 41 -62v3q41 -20 74 -21q15 0 33 2.5t36 8.5 q20 5 34.5 10t26.5 15q10 3 23 26l-2 -3q8 18 13 46v16.5t2 19.5q3 10 4 23t1 33l54 -2q0 -41 -5 -67v-10q0 -5 -1.5 -9t-1.5 -9q-3 -15 -5 -30.5t-12 -33.5q-18 -26 -52 -46q-15 -10 -28 -15t-23 -11l-15 -5h2q-38 -10 -84 -10q-59 0 -85 15q-31 20 -53.5 45t-30.5 55 q0 3 -1.5 5.5t-1.5 7.5v10q-5 26 -5 52zM312 1777l11 66h51l-5 -74h-14t-20 3q-10 3 -23 5z" />
<glyph unicode="&#xc0;" horiz-adv-x="1024" d="M51 3l57 -3q10 82 22.5 138.5t25.5 109.5l16 75q5 26 11 52.5t12 54.5q18 97 46 213.5t56 211.5q5 15 9 30.5t9 33.5l15 59q13 0 28 -5h-2q15 -5 20 -5q10 -3 24.5 -3h21.5h18q5 0 9 1.5t9 1.5h69q10 0 19.5 1t19.5 1q31 3 60 4t65 1q20 -128 51 -262t64 -257l6 -36 q8 -36 18 -69.5t22 -68.5l29 -95q10 -33 12 -64q5 -26 11.5 -54t27.5 -61h59q-18 28 -24.5 55t-11.5 50l-5 20l-16 67l-33 107l-10 28q-8 23 -15.5 47.5t-12.5 50.5q-18 77 -37.5 164t-38.5 176.5t-37 177.5t-31 168q-5 51 -14 98.5t-16 98.5v-3l-5 31l-16 82t-13 79 l-23 113q-5 26 -10 49t-10 48l-8 49v-3q-3 26 -6.5 59t-29.5 74q-3 -8 -19.5 -9t-21.5 4q-5 -44 -14 -83.5t-21 -74.5l-8 -23q0 -20 -8 -47l-8 -30q-5 -26 -8.5 -50.5t-11.5 -47.5v3q-8 -15 -17 -39.5t-16 -47.5l-13 -38l-28 -87q-20 -72 -44.5 -152.5t-45.5 -160.5l-2 -5 l-39 -136q-28 -105 -55 -212.5t-45 -214.5q-5 -44 -15 -90t-23 -92q-18 -59 -31 -119t-23 -139zM343 1024q18 74 37 146t45 138l36 108l38 105q10 26 14 51t9 54v15q3 15 5.5 29t10.5 27l10 28l10 31l3 -5l-1 1l-2 2v-8l5 -44q5 -23 10.5 -47t10.5 -50l18 -113 q5 -36 12.5 -79t15.5 -82l5 -28q8 -51 16.5 -97t14.5 -98l10 -61q0 -8 5 -23q-56 0 -96 -1.5t-96 -6.5h-105zM425 2012l5 54q46 -28 79.5 -43.5t76.5 -30.5l28 -16l98 -43l-8 -62q-44 26 -64 36t-29 13t-13 3t-17 7q-5 0 -11.5 4t-8.5 6q-20 8 -48.5 22t-87.5 50z" />
<glyph unicode="&#xc1;" horiz-adv-x="1024" d="M51 3q10 79 23 139t31 119q13 46 23 92t15 90q18 108 45 215t55 212l39 136l2 5q20 79 44.5 160t45.5 153l28 87l13 38q8 23 16.5 47.5t16.5 39.5v-3q8 23 11.5 47.5t8.5 50.5l8 30q8 26 8 47l8 23q13 36 21.5 75.5t13.5 82.5q5 -5 22 -3.5t19 8.5q26 -41 30 -74t6 -59v3 l8 -49q5 -26 10 -48.5t10 -48.5l23 -113q5 -38 13 -79l16 -82l5 -31v3q8 -51 16.5 -98.5t13.5 -98.5q13 -79 31 -167.5t37 -178t38.5 -177t37.5 -163.5q5 -26 12.5 -50.5t15.5 -47.5l10 -28l33 -107l16 -67l5 -20q5 -23 11.5 -50t24.5 -55h-59q-20 33 -26.5 61t-12.5 54 q-3 31 -12 64l-29 95q-13 36 -23 69t-17 69l-6 36q-33 123 -63.5 257t-51.5 262q-36 0 -65.5 -1t-59.5 -4q-10 0 -19 -1t-20 -1h-69q-5 0 -9 -1.5t-9 -1.5h-18h-21.5t-24.5 3q-5 0 -20 5h2q-15 5 -28 5l-15 -59q-5 -18 -9 -33.5t-9 -30.5q-28 -95 -56.5 -211.5t-45.5 -213.5 q-5 -28 -11.5 -55t-11.5 -52l-16 -75q-13 -54 -25.5 -110t-22.5 -138zM343 1024l41 -8h105q56 5 96 6.5t96 1.5q-5 15 -5 23l-10 61q-5 51 -14 97.5t-17 97.5l-5 28q-8 38 -15.5 82t-12.5 79l-18 113q-5 26 -10.5 50t-10.5 47l-5 44v8l2 -2l1 -1l-3 5l-10 -31l-10 -28 q-8 -13 -10.5 -27t-5.5 -29v-15q-5 -28 -9 -54t-14 -51l-38 -105l-36 -108q-26 -67 -45 -138.5t-37 -145.5zM404 1925q54 31 81 42.5t50 21.5h-3q41 18 72 33.5t77 40.5l5 -56q-54 -33 -78 -47t-50 -25q-3 0 -6.5 -1t-6.5 -1q-28 -13 -62.5 -27t-70.5 -35z" />
<glyph unicode="&#xc2;" horiz-adv-x="1024" d="M51 3q10 79 23 139t31 119q13 46 23 92t15 90q18 108 45 215t55 212l39 136l2 5q20 79 44.5 160t45.5 153l28 87l13 38q8 23 16.5 47.5t16.5 39.5v-3q8 23 11.5 47.5t8.5 50.5l8 30q8 26 8 47l8 23q13 36 21.5 75.5t13.5 82.5q5 -5 22 -3.5t19 8.5q26 -41 30 -74t6 -59v3 l8 -49q5 -26 10 -48.5t10 -48.5l23 -113q5 -38 13 -79l16 -82l5 -31v3q8 -51 16.5 -98.5t13.5 -98.5q13 -79 31 -167.5t37 -178t38.5 -177t37.5 -163.5q5 -26 12.5 -50.5t15.5 -47.5l10 -28l33 -107l16 -67l5 -20q5 -23 11.5 -50t24.5 -55h-59q-20 33 -26.5 61t-12.5 54 q-3 31 -12 64l-29 95q-13 36 -23 69t-17 69l-6 36q-33 123 -63.5 257t-51.5 262q-36 0 -65.5 -1t-59.5 -4q-10 0 -19 -1t-20 -1h-69q-5 0 -9 -1.5t-9 -1.5h-18h-21.5t-24.5 3q-5 0 -20 5h2q-15 5 -28 5l-15 -59q-5 -18 -9 -33.5t-9 -30.5q-28 -95 -56.5 -211.5t-45.5 -213.5 q-5 -28 -11.5 -55t-11.5 -52l-16 -75q-13 -54 -25.5 -110t-22.5 -138zM343 1024l41 -8h105q56 5 96 6.5t96 1.5q-5 15 -5 23l-10 61q-5 51 -14 97.5t-17 97.5l-5 28q-8 38 -15.5 82t-12.5 79l-18 113q-5 26 -10.5 50t-10.5 47l-5 44v8l2 -2l1 -1l-3 5l-10 -31l-10 -28 q-8 -13 -10.5 -27t-5.5 -29v-15q-5 -28 -9 -54t-14 -51l-38 -105l-36 -108q-26 -67 -45 -138.5t-37 -145.5zM404 1938q67 36 82 49q46 33 75 48l140 -112l-10 -49q-20 13 -51 32t-38 27l-39 36q-28 -13 -34.5 -18t-16.5 -11l-105 -64z" />
<glyph unicode="&#xc3;" horiz-adv-x="1024" d="M51 3q10 79 23 139t31 119q13 46 23 92t15 90q18 108 45 215t55 212l39 136l2 5q20 79 44.5 160t45.5 153l28 87l13 38q8 23 16.5 47.5t16.5 39.5v-3q8 23 11.5 47.5t8.5 50.5l8 30q8 26 8 47l8 23q13 36 21.5 75.5t13.5 82.5q5 -5 22 -3.5t19 8.5q26 -41 30 -74t6 -59v3 l8 -49q5 -26 10 -48.5t10 -48.5l23 -113q5 -38 13 -79l16 -82l5 -31v3q8 -51 16.5 -98.5t13.5 -98.5q13 -79 31 -167.5t37 -178t38.5 -177t37.5 -163.5q5 -26 12.5 -50.5t15.5 -47.5l10 -28l33 -107l16 -67l5 -20q5 -23 11.5 -50t24.5 -55h-59q-20 33 -26.5 61t-12.5 54 q-3 31 -12 64l-29 95q-13 36 -23 69t-17 69l-6 36q-33 123 -63.5 257t-51.5 262q-36 0 -65.5 -1t-59.5 -4q-10 0 -19 -1t-20 -1h-69q-5 0 -9 -1.5t-9 -1.5h-18h-21.5t-24.5 3q-5 0 -20 5h2q-15 5 -28 5l-15 -59q-5 -18 -9 -33.5t-9 -30.5q-28 -95 -56.5 -211.5t-45.5 -213.5 q-5 -28 -11.5 -55t-11.5 -52l-16 -75q-13 -54 -25.5 -110t-22.5 -138zM343 1024l41 -8h105q56 5 96 6.5t96 1.5q-5 15 -5 23l-10 61q-5 51 -14 97.5t-17 97.5l-5 28q-8 38 -15.5 82t-12.5 79l-18 113q-5 26 -10.5 50t-10.5 47l-5 44v8l2 -2l1 -1l-3 5l-10 -31l-10 -28 q-8 -13 -10.5 -27t-5.5 -29v-15q-5 -28 -9 -54t-14 -51l-38 -105l-36 -108q-26 -67 -45 -138.5t-37 -145.5zM407 1951q67 54 105 52.5t69 -22.5q18 -13 47.5 -7.5t83.5 48.5l5 -64q-46 -38 -89.5 -38t-66.5 15q-18 13 -41 14.5t-72 -39.5z" />
<glyph unicode="&#xc4;" horiz-adv-x="1024" d="M51 3q10 79 23 139t31 119q13 46 23 92t15 90q18 108 45 215t55 212l39 136l2 5q20 79 44.5 160t45.5 153l28 87l13 38q8 23 16.5 47.5t16.5 39.5v-3q8 23 11.5 47.5t8.5 50.5l8 30q8 26 8 47l8 23q13 36 21.5 75.5t13.5 82.5q5 -5 22 -3.5t19 8.5q26 -41 30 -74t6 -59v3 l8 -49q5 -26 10 -48.5t10 -48.5l23 -113q5 -38 13 -79l16 -82l5 -31v3q8 -51 16.5 -98.5t13.5 -98.5q13 -79 31 -167.5t37 -178t38.5 -177t37.5 -163.5q5 -26 12.5 -50.5t15.5 -47.5l10 -28l33 -107l16 -67l5 -20q5 -23 11.5 -50t24.5 -55h-59q-20 33 -26.5 61t-12.5 54 q-3 31 -12 64l-29 95q-13 36 -23 69t-17 69l-6 36q-33 123 -63.5 257t-51.5 262q-36 0 -65.5 -1t-59.5 -4q-10 0 -19 -1t-20 -1h-69q-5 0 -9 -1.5t-9 -1.5h-18h-21.5t-24.5 3q-5 0 -20 5h2q-15 5 -28 5l-15 -59q-5 -18 -9 -33.5t-9 -30.5q-28 -95 -56.5 -211.5t-45.5 -213.5 q-5 -28 -11.5 -55t-11.5 -52l-16 -75q-13 -54 -25.5 -110t-22.5 -138zM343 1024l41 -8h105q56 5 96 6.5t96 1.5q-5 15 -5 23l-10 61q-5 51 -14 97.5t-17 97.5l-5 28q-8 38 -15.5 82t-12.5 79l-18 113q-5 26 -10.5 50t-10.5 47l-5 44v8l2 -2l1 -1l-3 5l-10 -31l-10 -28 q-8 -13 -10.5 -27t-5.5 -29v-15q-5 -28 -9 -54t-14 -51l-38 -105l-36 -108q-26 -67 -45 -138.5t-37 -145.5zM348 1928l16 56l171 -8v-56q-26 3 -54 3h-46q-38 0 -52 1t-35 4zM573 1925v59q36 -5 51.5 -6.5t28.5 -1.5h110l-3 -56q-26 3 -55 3h-47h-47.5t-37.5 2z" />
<glyph unicode="&#xc6;" horiz-adv-x="1402" />
<glyph unicode="&#xc7;" horiz-adv-x="1615" d="M76.5 780q0.5 19 0.5 32q0 28 1 60t6 60q13 87 31 180.5t49 172.5q23 74 59 153.5t89 133.5q118 110 265 192t314 89h33q8 0 15.5 1.5t17.5 1.5h59q59 0 113 -4t100 -16q90 -20 169 -84.5t125 -148.5l-41 -39q-44 82 -114 139.5t-152 75.5q-46 13 -97 18t-103 5 q-8 0 -15.5 -1t-14.5 -1h-90q-72 -5 -145 -29.5t-143 -61.5t-135.5 -83t-121.5 -95q-46 -51 -79.5 -123t-56.5 -141q-28 -72 -44.5 -160t-29.5 -165q0 -5 -1.5 -10t-1.5 -10q-5 -28 -6 -57.5t-1 -52.5v-32.5t2 -31.5v-24q3 -38 5.5 -75t15.5 -73q20 -59 58.5 -124t81.5 -117 q46 -44 106.5 -91t114.5 -75q56 -28 106 -41t106 -26q28 -10 61.5 -12.5t61.5 -2.5h55t55 3q54 3 116.5 11.5t119.5 29.5q97 49 163 107q8 8 23.5 22t29.5 32t24 36t10 30l57 -2q-3 -46 -32.5 -82t-54.5 -62l-13 -12l-5 -5q-44 -36 -88.5 -63t-88.5 -50 q-49 -23 -125.5 -33.5t-135.5 -12.5q-23 -3 -55 -3h-55h-13q-8 -15 -11.5 -24t-13.5 -24q15 -5 36.5 -13t47.5 -26q33 -20 50 -48.5t9 -71.5q-13 -49 -55 -82t-88 -49q-31 -13 -68 -18t-71 -7q-38 -3 -77 -3l29 59q31 0 61 5q28 3 56.5 8t53.5 15q36 10 63 32t37 50 q13 41 -8 49q-26 15 -55 25.5t-55 17.5q-28 8 -59 13l49 92q-18 3 -29.5 5.5t-24.5 7.5q-133 33 -225 69q-136 67 -230 182q-49 51 -95 125.5t-67 140.5q-10 36 -12.5 77t-5.5 82v26q-3 13 -2.5 32z" />
<glyph unicode="&#xc8;" horiz-adv-x="842" d="M61 3l3 33q5 13 5 22v21v54v51.5t3 56.5q0 5 1 12.5t1 12.5q8 79 9 161t1 162v82v75t3 71v69q0 20 1.5 39.5t1.5 31.5q0 8 -1.5 15.5t-1.5 15.5v85l-5 48l-5 54q-5 28 -7.5 61.5t-2.5 63.5v21q0 3 1 4t1 4v87v40.5t3 43.5l7 95q0 5 1.5 16.5t1.5 21.5q0 31 15 46h-10 v88.5t3 91.5q0 5 1 14t1 14h69q10 0 18 -1.5t18 -1.5h115h106.5t111.5 -5l143 -8q10 -3 36 -2h15q5 0 26 5l21 5v-67q-8 -3 -16 -2h-28h-10q-3 0 -4 1t-4 1h-28t-28 3h-16q-28 3 -57.5 4t-54.5 6h2q-51 5 -108.5 5h-106.5h-115q-10 0 -17.5 1.5t-18.5 1.5h-23 q-3 -36 -2.5 -77t0.5 -77q0 -18 -1.5 -37t-3.5 -47l-8 -97v-41v-51.5t-1.5 -47.5t-1.5 -29v-29v-77.5t5 -78.5h8q13 0 21 3l28 5q18 5 41 6.5t43 1.5l141 10h46h42t43 -5h-3q15 -3 38 -3h47h53l-2 -56h-69q-18 0 -37.5 -1.5t-37.5 3.5q-20 5 -38 5.5t-36 0.5h-46l-141 -11 q-36 0 -82 -7q-5 0 -8.5 -1.5t-9.5 -1.5q-8 -3 -18 -2.5t-15 0.5q0 -3 1.5 -5.5t1.5 -5.5v-92q0 -8 1 -15.5t1 -15.5v-69q0 -18 -1 -35.5t-1 -38.5q-3 -33 -3 -70v-73v-82q0 -79 -1 -161t-7 -164q-3 -28 -4 -65.5t-1 -65.5v-74q5 3 10.5 5.5t12.5 2.5h187q5 0 10.5 -1.5 t10.5 -1.5h56q90 0 187 8q5 0 10 1t10 1h82q10 0 23 1.5t21 1.5v-54h-34.5t-27.5 -3q-5 0 -14 -1t-14 -1h-20q-51 -5 -111.5 -7.5t-111.5 -2.5h-59q-5 0 -9 1t-9 1h-187q-13 0 -20 -2q-20 -5 -31 -5h-31zM276 2120l13 51l146 -103l121 -92l-26 -41l-115 85l-34 23 q-20 15 -44.5 34.5t-60.5 42.5z" />
<glyph unicode="&#xc9;" horiz-adv-x="842" d="M61 3l3 33q5 13 5 22v21v54v51.5t3 56.5q0 5 1 12.5t1 12.5q8 79 9 161t1 162v82v75t3 71v69q0 20 1.5 39.5t1.5 31.5q0 8 -1.5 15.5t-1.5 15.5v85l-5 48l-5 54q-5 28 -7.5 61.5t-2.5 63.5v21q0 3 1 4t1 4v87v40.5t3 43.5l7 95q0 8 1.5 19.5t1.5 21.5q3 31 9 41t11 13 l-15 -6v87.5t3 87.5q0 5 1 14t1 14h69q10 0 18 -1.5t18 -1.5h115h106.5t111.5 -5l143 -8q10 -3 36 -2h15q5 0 26 5l21 5v-67q-8 -3 -16 -2h-28h-10q-3 0 -4 1t-4 1h-27t-22 3h-20q-5 0 -11.5 1.5t-11.5 1.5q-20 0 -46 1t-44 4q-51 5 -110 6t-105 1h-115q-10 0 -17.5 1.5 t-18.5 1.5h-23q-3 -36 -2.5 -77t0.5 -77q0 -18 -1.5 -37t-3.5 -47l-8 -97v-41v-51.5t-1.5 -47.5t-1.5 -29v-29v-77.5t5 -78.5h8q13 0 21 3l28 5q18 5 41 6.5t43 1.5l141 10h46h42t43 -5h-3q15 -3 38 -3h47h53l-2 -56h-69q-18 0 -37.5 -1.5t-37.5 3.5q-20 5 -38 5.5t-36 0.5 h-46l-141 -11q-36 0 -82 -7q-5 0 -8.5 -1.5t-9.5 -1.5q-8 -3 -18 -2.5t-15 0.5q0 -3 1.5 -5.5t1.5 -5.5v-92q0 -8 1 -15.5t1 -15.5v-69q0 -18 -1 -35.5t-1 -38.5q-3 -33 -3 -70v-73v-82q0 -79 -1 -161t-7 -164q-3 -28 -4 -65.5t-1 -65.5v-74q5 3 10.5 5.5t12.5 2.5h187 q5 0 10.5 -1.5t10.5 -1.5h56q90 0 187 8q5 0 10 1t10 1h82q10 0 23 1.5t21 1.5v-54h-34.5t-27.5 -3q-5 0 -14 -1t-14 -1h-20q-51 -5 -111.5 -7.5t-111.5 -2.5h-59q-5 0 -9 1t-9 1h-187q-13 0 -20 -2q-20 -5 -31 -5h-31zM274 1976l120 92l131 90l15 10l10 -51l-107 -77 l-28 -20q-26 -20 -58 -42t-52 -43z" />
<glyph unicode="&#xca;" horiz-adv-x="842" d="M61 3l3 33q5 13 5 22v21v54v51.5t3 56.5q0 5 1 12.5t1 12.5q8 79 9 161t1 162v82v75t3 71v69q0 20 1.5 39.5t1.5 31.5q0 8 -1.5 15.5t-1.5 15.5v85l-5 48l-5 54q-5 28 -7.5 61.5t-2.5 63.5v21q0 3 1 4t1 4v87v40.5t3 43.5l7 95q0 8 1.5 19.5t1.5 21.5q3 31 9 41t11 13 l-15 -6v87.5t3 87.5q0 5 1 14t1 14h69q10 0 18 -1.5t18 -1.5h115h106.5t111.5 -5l143 -8q10 -3 36 -2h15q5 0 26 5l21 5v-67q-8 -3 -16 -2h-28h-10q-3 0 -4 1t-4 1h-27t-22 3h-20q-5 0 -11.5 1.5t-11.5 1.5q-20 0 -46 1t-44 4q-51 5 -110 6t-105 1h-115q-10 0 -17.5 1.5 t-18.5 1.5h-23q-3 -36 -2.5 -77t0.5 -77q0 -18 -1.5 -37t-3.5 -47l-8 -97v-41v-51.5t-1.5 -47.5t-1.5 -29v-29v-77.5t5 -78.5h8q13 0 21 3l28 5q18 5 41 6.5t43 1.5l141 10h46h42t43 -5h-3q15 -3 38 -3h47h53l-2 -56h-69q-18 0 -37.5 -1.5t-37.5 3.5q-20 5 -38 5.5t-36 0.5 h-46l-141 -11q-36 0 -82 -7q-5 0 -8.5 -1.5t-9.5 -1.5q-8 -3 -18 -2.5t-15 0.5q0 -3 1.5 -5.5t1.5 -5.5v-92q0 -8 1 -15.5t1 -15.5v-69q0 -18 -1 -35.5t-1 -38.5q-3 -33 -3 -70v-73v-82q0 -79 -1 -161t-7 -164q-3 -28 -4 -65.5t-1 -65.5v-74q5 3 10.5 5.5t12.5 2.5h187 q5 0 10.5 -1.5t10.5 -1.5h56q90 0 187 8q5 0 10 1t10 1h82q10 0 23 1.5t21 1.5v-54h-34.5t-27.5 -3q-5 0 -14 -1t-14 -1h-20q-51 -5 -111.5 -7.5t-111.5 -2.5h-59q-5 0 -9 1t-9 1h-187q-13 0 -20 -2q-20 -5 -31 -5h-31zM236 1989q46 23 62.5 34.5t26.5 21.5l10 3h-2 q36 23 66.5 43.5t28.5 23.5l192 -134l-13 -53q-46 36 -97.5 71.5t-71.5 48.5q-15 -8 -39.5 -20.5t-37.5 -20.5q-28 -20 -62.5 -44.5t-60.5 -39.5z" />
<glyph unicode="&#xcb;" horiz-adv-x="842" d="M61 3l3 33q5 13 5 22v21v54v51.5t3 56.5q0 5 1 12.5t1 12.5q8 79 9 161t1 162v82v75t3 71v69q0 20 1.5 39.5t1.5 31.5q0 8 -1.5 15.5t-1.5 15.5v85l-5 48l-5 54q-5 28 -7.5 61.5t-2.5 63.5v21q0 3 1 4t1 4v87v40.5t3 43.5l7 95q0 8 1.5 19.5t1.5 21.5q3 31 9 41t11 13 l-15 -6v87.5t3 87.5q0 5 1 14t1 14h69q10 0 18 -1.5t18 -1.5h115h106.5t111.5 -5l143 -8q10 -3 36 -2h15q5 0 26 5l21 5v-67q-8 -3 -16 -2h-28h-10q-3 0 -4 1t-4 1h-27t-22 3h-20q-5 0 -11.5 1.5t-11.5 1.5q-20 0 -46 1t-44 4q-51 5 -110 6t-105 1h-115q-10 0 -17.5 1.5 t-18.5 1.5h-23q-3 -36 -2.5 -77t0.5 -77q0 -18 -1.5 -37t-3.5 -47l-8 -97v-41v-51.5t-1.5 -47.5t-1.5 -29v-29v-77.5t5 -78.5h8q13 0 21 3l28 5q18 5 41 6.5t43 1.5l141 10h46h42t43 -5h-3q15 -3 38 -3h47h53l-2 -56h-69q-18 0 -37.5 -1.5t-37.5 3.5q-20 5 -38 5.5t-36 0.5 h-46l-141 -11q-36 0 -82 -7q-5 0 -8.5 -1.5t-9.5 -1.5q-8 -3 -18 -2.5t-15 0.5q0 -3 1.5 -5.5t1.5 -5.5v-92q0 -8 1 -15.5t1 -15.5v-69q0 -18 -1 -35.5t-1 -38.5q-3 -33 -3 -70v-73v-82q0 -79 -1 -161t-7 -164q-3 -28 -4 -65.5t-1 -65.5v-74q5 3 10.5 5.5t12.5 2.5h187 q5 0 10.5 -1.5t10.5 -1.5h56q90 0 187 8q5 0 10 1t10 1h82q10 0 23 1.5t21 1.5v-54h-34.5t-27.5 -3q-5 0 -14 -1t-14 -1h-20q-51 -5 -111.5 -7.5t-111.5 -2.5h-59q-5 0 -9 1t-9 1h-187q-13 0 -20 -2q-20 -5 -31 -5h-31zM225 1951l16 56l171 -8v-56q-26 3 -54 3h-41 q-20 0 -38 1t-31 4h-23zM451 1948v59q41 -5 56 -6.5t28 -1.5h105l-3 -56q-26 3 -55 3h-42h-49t-40 2z" />
<glyph unicode="&#xcc;" horiz-adv-x="268" d="M3 2086l12 49l151 -102l121 -93l-31 -38l-110 82l-36 26q-20 15 -47 34t-60 42zM74 407v161v55t3 55q10 97 17.5 197t7.5 198v84.5t3 78.5t4 84.5t1 84.5v52q0 13 -1 25.5t-1 27.5v200q0 5 1 11.5t1 14.5q3 28 4 64t1 61h54q0 -28 -1.5 -65t-3.5 -60q0 -5 -1.5 -14 t-1.5 -14v-198q0 -15 1.5 -28t1.5 -25v-52q0 -44 -1.5 -84.5t-3.5 -84.5q-3 -38 -3 -79v-84q0 -77 -5 -166.5t-13 -169.5v-17.5t-2 -18.5q0 -5 -1.5 -14t-1.5 -14q-5 -28 -5 -53.5v-51.5q0 -51 1.5 -104.5t3.5 -110.5v-36q0 -13 1.5 -23t1.5 -23q3 -20 2.5 -47t-0.5 -45 q0 -28 -1 -65t-4 -78l-33 2h-21q3 28 4 68t1 73q0 20 -1 43.5t-4 46.5t-2.5 43.5t0.5 40.5q0 13 -1.5 27t-1.5 27z" />
<glyph unicode="&#xcd;" horiz-adv-x="268" d="M0 1940l125 93h-2l5 2q23 18 60 46t76 51l18 -48l-100 -72l-151 -110zM74 407v161v55t3 55q10 97 17.5 197t7.5 198v84.5t3 78.5t4 84.5t1 84.5v52q0 13 -1 25.5t-1 27.5v200q0 5 1 11.5t1 14.5q3 28 4 64t1 61h54q0 -28 -1.5 -65t-3.5 -60q0 -5 -1.5 -14t-1.5 -14v-198 q0 -15 1.5 -28t1.5 -25v-52q0 -44 -1.5 -84.5t-3.5 -84.5q-3 -38 -3 -79v-84q0 -77 -5 -166.5t-13 -169.5v-17.5t-2 -18.5q0 -5 -1.5 -14t-1.5 -14q-5 -28 -5 -53.5v-51.5q0 -51 1.5 -104.5t3.5 -110.5v-36q0 -13 1.5 -23t1.5 -23q3 -20 2.5 -47t-0.5 -45q0 -28 -1 -65 t-4 -78l-33 2h-21q3 28 4 68t1 73q0 20 -1 43.5t-4 46.5t-2.5 43.5t0.5 40.5q0 13 -1.5 27t-1.5 27z" />
<glyph unicode="&#xce;" horiz-adv-x="268" d="M-49 1958q31 15 47.5 25.5t27 17t15.5 9t10 7.5q36 23 66.5 43.5t28.5 23.5l192 -133l-13 -49q-49 33 -98.5 67.5t-70.5 47.5q-15 -8 -39.5 -20.5t-37.5 -20.5q-28 -20 -63.5 -44.5t-61.5 -37.5zM74 407v161v55t3 55q10 97 17.5 197t7.5 198v84.5t3 78.5t4 84.5t1 84.5 v52q0 13 -1 25.5t-1 27.5v200q0 5 1 11.5t1 14.5q3 28 4 64t1 61h54q0 -28 -1.5 -65t-3.5 -60q0 -5 -1.5 -14t-1.5 -14v-198q0 -15 1.5 -28t1.5 -25v-52q0 -44 -1.5 -84.5t-3.5 -84.5q-3 -38 -3 -79v-84q0 -77 -5 -166.5t-13 -169.5v-17.5t-2 -18.5q0 -5 -1.5 -14t-1.5 -14 q-5 -28 -5 -53.5v-51.5q0 -51 1.5 -104.5t3.5 -110.5v-36q0 -13 1.5 -23t1.5 -23q3 -20 2.5 -47t-0.5 -45q0 -28 -1 -65t-4 -78l-33 2h-21q3 28 4 68t1 73q0 20 -1 43.5t-4 46.5t-2.5 43.5t0.5 40.5q0 13 -1.5 27t-1.5 27z" />
<glyph unicode="&#xcf;" horiz-adv-x="268" d="M-69 1933l15 56l172 -8v-56q-26 3 -54 3h-46q-38 0 -52.5 1t-34.5 4zM74 407v161v55t3 55q10 97 17.5 197t7.5 198v84.5t3 78.5t4 84.5t1 84.5v52q0 13 -1 25.5t-1 27.5v200q0 5 1 11.5t1 14.5q3 28 4 64t1 61h54q0 -28 -1.5 -65t-3.5 -60q0 -5 -1.5 -14t-1.5 -14v-198 q0 -15 1.5 -28t1.5 -25v-52q0 -44 -1.5 -84.5t-3.5 -84.5q-3 -38 -3 -79v-84q0 -77 -5 -166.5t-13 -169.5v-17.5t-2 -18.5q0 -5 -1.5 -14t-1.5 -14q-5 -28 -5 -53.5v-51.5q0 -51 1.5 -104.5t3.5 -110.5v-36q0 -13 1.5 -23t1.5 -23q3 -20 2.5 -47t-0.5 -45q0 -28 -1 -65 t-4 -78l-33 2h-21q3 28 4 68t1 73q0 20 -1 43.5t-4 46.5t-2.5 43.5t0.5 40.5q0 13 -1.5 27t-1.5 27zM156 1930v59q36 -5 51.5 -6.5t28.5 -1.5h110l-3 -56q-26 3 -55 3h-47h-47.5t-37.5 2z" />
<glyph unicode="&#xd1;" horiz-adv-x="1131" d="M82 279q0 36 1 69t4 69t5.5 63t7.5 47t6.5 36t3.5 31q5 59 6.5 129.5t1.5 123.5v382q0 131 3.5 267.5t16.5 264.5v16.5t3 17.5v7q0 5 1 6.5t1 3.5q-3 0 -5 8t-13 28l39 3q36 -3 54 -36t28 -61v2q5 -10 5 -15q10 -23 24 -50t27 -47l10 -24l-2 3q13 -20 23 -38t15 -29 q28 -59 64 -147t69 -173v3q28 -64 54 -124t51 -109q36 -84 70.5 -170t67.5 -170q13 -33 24.5 -64t24.5 -59q36 -92 69.5 -176.5t71.5 -174.5v15q0 97 2.5 196t12.5 193q10 97 15.5 193.5t5.5 196.5v42t-3 45q0 41 -1 82t-4 76q-3 59 -4 116.5t-1 114.5v10q0 69 -8 143 q-5 36 -7.5 70.5t-2.5 70.5q0 23 2.5 54t12.5 72l54 -3q-10 -41 -12.5 -70.5t-2.5 -52.5q0 -69 7 -141q0 -13 1.5 -24t1.5 -24q3 -20 4 -47.5t1 -47.5v-10q0 -69 1.5 -142t6.5 -142l5 -105q3 -20 3 -46v-41q0 -100 -6.5 -196t-14.5 -194q-10 -95 -12.5 -193t-2.5 -196v-84 t2 -85h-41l8 11q-5 5 -23 28t-23 36l-23 46q-41 100 -80.5 201t-80.5 201q-44 108 -85 210t-87 209q-26 51 -52.5 115.5t-54.5 128.5q-18 36 -29 66q-23 64 -47 123t-55 118l-41 84q-13 20 -25.5 41t-23.5 39l-12 36l-8 25q-13 -131 -17 -261.5t-4 -265.5v-382 q0 -59 -1 -124t-4 -134q-3 -20 -4 -43.5t-6 -43.5t-7.5 -44.5t-2.5 -40.5q-3 -36 -4 -69t-1 -69q0 -51 5 -114t18 -121l-54 -3q-13 59 -18 123t-5 115zM323 1923q41 36 69 50t53 14q26 0 45 -6.5t35 -14.5h-5q10 -5 12 -5l36 -15q20 -10 50 0t73 33l26 18l36 -39 q-67 -41 -119.5 -57.5t-72.5 -11.5l-39 18q-3 0 -6.5 2.5t-6.5 2.5q-13 5 -28 11.5t-28 6.5t-31 -7.5t-41 -28.5z" />
<glyph unicode="&#xd2;" d="M64 858q0 77 8 151q13 90 39.5 190.5t85.5 195.5q5 5 7.5 13t7.5 13q36 54 73.5 109t72.5 88l49 43q36 28 83.5 69.5t85.5 61.5q41 20 94.5 40.5t107.5 28.5q8 0 21 3q18 3 38.5 4t40.5 1q49 0 96 -13t73 -20q56 -20 107.5 -39.5t110.5 -65.5q69 -51 115 -106.5 t74 -137.5q26 -74 40 -149.5t27 -152.5q5 -41 8.5 -83t3.5 -91q0 -169 -46 -334t-143 -298q-51 -67 -117.5 -127t-146 -107.5t-165.5 -75.5t-170 -28q-15 0 -23 3q-61 3 -106 27t-89 52q-13 0 -12 13q-13 13 -36 25.5t-49 27.5v-2l-33 20q-28 18 -59 37.5t-64 52.5 q-113 105 -161.5 256t-48.5 305zM115 858q0 -146 45 -287t150 -236q36 -36 69 -56t66 -38l95 -62l-10 5q46 -36 97 -59t110 -28l8 -2q79 0 160 25.5t155 69t137 100t106 117.5q87 120 132 281.5t45 322.5q0 41 -4 82t-9 79q-13 77 -27 151.5t-37 148.5q-26 74 -67 125.5 t-100 92.5q-44 33 -94.5 53.5t-109.5 38.5q-23 8 -69.5 20.5t-84.5 12.5q-8 0 -23 -1.5t-28 -3.5q-13 -3 -24.5 -3h-16.5q-38 -8 -91 -28.5t-91 -40.5q-44 -20 -77 -47t-66 -58l-21 -18l-43 -38q-44 -41 -74.5 -83t-53.5 -81l-36 -51q-44 -74 -69.5 -170t-38.5 -186v3 q-5 -36 -7.5 -74.5t-2.5 -76.5zM714 2115l13 53q36 -28 65.5 -47t59.5 -37q10 -10 27 -19t27 -14q41 -26 91 -60.5t91 -62.5l-31 -39q-46 31 -97 65.5t-97 62.5l-105 69z" />
<glyph unicode="&#xd3;" d="M64 858q0 77 8 151q13 90 39.5 190.5t85.5 195.5q5 5 7.5 13t7.5 13q36 54 73.5 109t72.5 88l49 43q36 28 83.5 69.5t85.5 61.5q41 20 94.5 40.5t107.5 28.5q8 0 21 3q18 3 38.5 4t40.5 1q49 0 96 -13t73 -20q56 -20 107.5 -39.5t110.5 -65.5q69 -51 115 -106.5 t74 -137.5q26 -74 40 -149.5t27 -152.5q5 -41 8.5 -83t3.5 -91q0 -169 -46 -334t-143 -298q-51 -67 -117.5 -127t-146 -107.5t-165.5 -75.5t-170 -28q-15 0 -23 3q-61 3 -106 27t-89 52q-13 0 -12 13q-13 13 -36 25.5t-49 27.5v-2l-33 20q-28 18 -59 37.5t-64 52.5 q-113 105 -161.5 256t-48.5 305zM115 858q0 -146 45 -287t150 -236q36 -36 69 -56t66 -38l95 -62l-10 5q46 -36 97 -59t110 -28l8 -2q79 0 160 25.5t155 69t137 100t106 117.5q87 120 132 281.5t45 322.5q0 41 -4 82t-9 79q-13 77 -27 151.5t-37 148.5q-26 74 -67 125.5 t-100 92.5q-44 33 -94.5 53.5t-109.5 38.5q-23 8 -69.5 20.5t-84.5 12.5q-8 0 -23 -1.5t-28 -3.5q-13 -3 -24.5 -3h-16.5q-38 -8 -91 -28.5t-91 -40.5q-44 -20 -77 -47t-66 -58l-21 -18l-43 -38q-44 -41 -74.5 -83t-53.5 -81l-36 -51q-44 -74 -69.5 -170t-38.5 -186v3 q-5 -36 -7.5 -74.5t-2.5 -76.5zM712 1928q36 28 75.5 55t80.5 52l25 16l175 112l15 -51l-146 -95q-46 -28 -100 -62.5t-100 -65.5z" />
<glyph unicode="&#xd4;" d="M64 858q0 77 8 151q13 90 39.5 190.5t85.5 195.5q5 5 7.5 13t7.5 13q36 54 73.5 109t72.5 88l49 43q36 28 83.5 69.5t85.5 61.5q41 20 94.5 40.5t107.5 28.5q8 0 21 3q18 3 38.5 4t40.5 1q49 0 96 -13t73 -20q56 -20 107.5 -39.5t110.5 -65.5q69 -51 115 -106.5 t74 -137.5q26 -74 40 -149.5t27 -152.5q5 -41 8.5 -83t3.5 -91q0 -169 -46 -334t-143 -298q-51 -67 -117.5 -127t-146 -107.5t-165.5 -75.5t-170 -28q-15 0 -23 3q-61 3 -106 27t-89 52q-13 0 -12 13q-13 13 -36 25.5t-49 27.5v-2l-33 20q-28 18 -59 37.5t-64 52.5 q-113 105 -161.5 256t-48.5 305zM115 858q0 -146 45 -287t150 -236q36 -36 69 -56t66 -38l95 -62l-10 5q46 -36 97 -59t110 -28l8 -2q79 0 160 25.5t155 69t137 100t106 117.5q87 120 132 281.5t45 322.5q0 41 -4 82t-9 79q-13 77 -27 151.5t-37 148.5q-26 74 -67 125.5 t-100 92.5q-44 33 -94.5 53.5t-109.5 38.5q-23 8 -69.5 20.5t-84.5 12.5q-8 0 -23 -1.5t-28 -3.5q-13 -3 -24.5 -3h-16.5q-38 -8 -91 -28.5t-91 -40.5q-44 -20 -77 -47t-66 -58l-21 -18l-43 -38q-44 -41 -74.5 -83t-53.5 -81l-36 -51q-44 -74 -69.5 -170t-38.5 -186v3 q-5 -36 -7.5 -74.5t-2.5 -76.5zM556 1943q20 10 58.5 29.5t76.5 42.5l51 33l116 67l263 -177l-13 -49q-23 15 -56 38.5t-69 47.5t-68 44.5t-50 33.5q-26 -13 -77 -42.5t-97 -59.5l-133 -72z" />
<glyph unicode="&#xd5;" d="M64 858q0 77 8 151q13 90 39.5 190.5t85.5 195.5q5 5 7.5 13t7.5 13q36 54 73.5 109t72.5 88l49 43q36 28 83.5 69.5t85.5 61.5q41 20 94.5 40.5t107.5 28.5q8 0 21 3q18 3 38.5 4t40.5 1q49 0 96 -13t73 -20q56 -20 107.5 -39.5t110.5 -65.5q69 -51 115 -106.5 t74 -137.5q26 -74 40 -149.5t27 -152.5q5 -41 8.5 -83t3.5 -91q0 -169 -46 -334t-143 -298q-51 -67 -117.5 -127t-146 -107.5t-165.5 -75.5t-170 -28q-15 0 -23 3q-61 3 -106 27t-89 52q-13 0 -12 13q-13 13 -36 25.5t-49 27.5v-2l-33 20q-28 18 -59 37.5t-64 52.5 q-113 105 -161.5 256t-48.5 305zM115 858q0 -146 45 -287t150 -236q36 -36 69 -56t66 -38l95 -62l-10 5q46 -36 97 -59t110 -28l8 -2q79 0 160 25.5t155 69t137 100t106 117.5q87 120 132 281.5t45 322.5q0 41 -4 82t-9 79q-13 77 -27 151.5t-37 148.5q-26 74 -67 125.5 t-100 92.5q-44 33 -94.5 53.5t-109.5 38.5q-23 8 -69.5 20.5t-84.5 12.5q-8 0 -23 -1.5t-28 -3.5q-13 -3 -24.5 -3h-16.5q-38 -8 -91 -28.5t-91 -40.5q-44 -20 -77 -47t-66 -58l-21 -18l-43 -38q-44 -41 -74.5 -83t-53.5 -81l-36 -51q-44 -74 -69.5 -170t-38.5 -186v3 q-5 -36 -7.5 -74.5t-2.5 -76.5zM609 1976q82 72 133.5 87.5t86.5 2.5q36 -13 80 -49q18 -13 39.5 -27t49.5 -19t66.5 10.5t95.5 58.5l5 -61q-54 -41 -93.5 -54t-73.5 -10q-36 3 -64 20.5t-56 38.5h3q-13 13 -31 23t-38 15q-28 10 -61.5 -5t-97.5 -74z" />
<glyph unicode="&#xd6;" d="M64 858q0 77 8 151q13 90 39.5 190.5t85.5 195.5q5 5 7.5 13t7.5 13q36 54 73.5 109t72.5 88l49 43q36 28 83.5 69.5t85.5 61.5q41 20 94.5 40.5t107.5 28.5q8 0 21 3q18 3 38.5 4t40.5 1q49 0 96 -13t73 -20q56 -20 107.5 -39.5t110.5 -65.5q69 -51 115 -106.5 t74 -137.5q26 -74 40 -149.5t27 -152.5q5 -41 8.5 -83t3.5 -91q0 -169 -46 -334t-143 -298q-51 -67 -117.5 -127t-146 -107.5t-165.5 -75.5t-170 -28q-15 0 -23 3q-61 3 -106 27t-89 52q-13 0 -12 13q-13 13 -36 25.5t-49 27.5v-2l-33 20q-28 18 -59 37.5t-64 52.5 q-113 105 -161.5 256t-48.5 305zM115 858q0 -146 45 -287t150 -236q36 -36 69 -56t66 -38l95 -62l-10 5q46 -36 97 -59t110 -28l8 -2q79 0 160 25.5t155 69t137 100t106 117.5q87 120 132 281.5t45 322.5q0 41 -4 82t-9 79q-13 77 -27 151.5t-37 148.5q-26 74 -67 125.5 t-100 92.5q-44 33 -94.5 53.5t-109.5 38.5q-23 8 -69.5 20.5t-84.5 12.5q-8 0 -23 -1.5t-28 -3.5q-13 -3 -24.5 -3h-16.5q-38 -8 -91 -28.5t-91 -40.5q-44 -20 -77 -47t-66 -58l-21 -18l-43 -38q-44 -41 -74.5 -83t-53.5 -81l-36 -51q-44 -74 -69.5 -170t-38.5 -186v3 q-5 -36 -7.5 -74.5t-2.5 -76.5zM625 1933v56l220 -8v-56q-26 3 -59 3h-54q-41 0 -64 1t-43 4zM950 1930v59q38 -5 57.5 -6.5t36.5 -1.5h126l-3 -56q-26 3 -60 3h-57h-58t-42 2z" />
<glyph unicode="&#xd7;" horiz-adv-x="1052" d="M166 1380l34 38q23 -15 37 -33t27 -33l20 -23v2l10 -13q20 -26 38.5 -52.5t38.5 -54.5q13 -13 23 -31t23 -31q23 -33 45 -60t45 -55q28 31 43.5 51.5t28.5 38.5l25 36l31 41l31 46q5 10 11.5 19t13.5 19l31 49l41 51l38 -44l-43 -46q-13 -20 -26 -40.5t-25 -35.5 q-5 -10 -13 -18t-16 -18q-20 -28 -33 -51l-23 -34q-20 -31 -38 -56.5t-44 -53.5l23 -28v3q64 -77 129.5 -156.5t152.5 -166.5l-31 -46q-77 77 -141 155t-130 157l-34 36l-2 8l-26 -36l-10 -13q-56 -54 -97 -110l-21 -26l-64 -76l-23 -31l-33 -33l-13 -5l-33 33l13 18 q5 5 7.5 10t10.5 5l30 33l69 80v-3q33 46 66.5 88.5t46.5 55.5l38 40l8 11q-8 10 -16.5 23t-16.5 20q-31 31 -67 87q-28 38 -60 82t-63 82v-2q-10 5 -15 17h3q-8 10 -21 25.5t-54 54.5z" />
<glyph unicode="&#xd9;" horiz-adv-x="1105" d="M92 1185v31q0 64 1.5 129.5t3.5 131.5q0 20 1.5 52.5t1.5 52.5q3 69 4 143.5t1 135.5h51q0 -61 -1 -131.5t-4 -132.5q0 -23 -1.5 -60t-1.5 -60q0 -67 -1 -132t-1 -129v-31q0 -67 2.5 -136t15.5 -138q10 -46 12.5 -98.5t5.5 -100.5v-36q0 -84 7 -154q5 -61 22 -135.5 t42 -138.5q20 -41 50 -82t73 -53q10 -3 23 -5.5t26 -2.5q36 0 79.5 15.5t84.5 33.5v-3q51 31 81.5 72t59.5 100q59 123 94.5 250.5t48.5 261.5q23 225 23 455v102.5t-5 99.5q-5 97 -6.5 198.5t-1.5 198.5h54q0 -97 1.5 -198t6.5 -199q5 -44 5 -100v-102q0 -108 -6.5 -228 t-16.5 -230q-13 -138 -51.5 -279t-94.5 -256q-31 -67 -65.5 -110.5t-103.5 -76.5v3q-41 -26 -88.5 -44t-98.5 -18q-38 0 -72 13h-5q-54 20 -89.5 65t-56.5 99v-3q-26 59 -41 141t-20 154q-3 23 -4 51t-1 51q0 13 -1.5 27t-1.5 27q-3 54 -5.5 111.5t-12.5 111.5 q-15 72 -19 140.5t-4 145.5zM340 2045l11 54l146 -107l120 -90l-26 -38l-115 79q-18 10 -30.5 19t-17.5 14h2z" />
<glyph unicode="&#xda;" horiz-adv-x="1105" d="M92 1185v31q0 64 1.5 129.5t3.5 131.5q0 20 1.5 52.5t1.5 52.5q3 69 4 143.5t1 135.5h51q0 -61 -1 -131.5t-4 -132.5q0 -23 -1.5 -60t-1.5 -60q0 -67 -1 -132t-1 -129v-31q0 -67 2.5 -136t15.5 -138q10 -46 12.5 -98.5t5.5 -100.5v-36q0 -84 7 -154q5 -61 22 -135.5 t42 -138.5q20 -41 50 -82t73 -53q10 -3 23 -5.5t26 -2.5q36 0 79.5 15.5t84.5 33.5v-3q51 31 81.5 72t59.5 100q59 123 94.5 250.5t48.5 261.5q23 225 23 455v102.5t-5 99.5q-5 97 -6.5 198.5t-1.5 198.5h54q0 -97 1.5 -198t6.5 -199q5 -44 5 -100v-102q0 -108 -6.5 -228 t-16.5 -230q-13 -138 -51.5 -279t-94.5 -256q-31 -67 -65.5 -110.5t-103.5 -76.5v3q-41 -26 -88.5 -44t-98.5 -18q-38 0 -72 13h-5q-54 20 -89.5 65t-56.5 99v-3q-26 59 -41 141t-20 154q-3 23 -4 51t-1 51q0 13 -1.5 27t-1.5 27q-3 54 -5.5 111.5t-12.5 111.5 q-15 72 -19 140.5t-4 145.5zM364 1905l122 89l141 105l16 -54q-28 -20 -51.5 -36.5t-41.5 -29.5q-10 -8 -22.5 -17t-20.5 -16l-115 -80z" />
<glyph unicode="&#xdb;" horiz-adv-x="1105" d="M92 1185v31q0 64 1.5 129.5t3.5 131.5q0 20 1.5 52.5t1.5 52.5q3 69 4 143.5t1 135.5h51q0 -61 -1 -131.5t-4 -132.5q0 -23 -1.5 -60t-1.5 -60q0 -67 -1 -132t-1 -129v-31q0 -67 2.5 -136t15.5 -138q10 -46 12.5 -98.5t5.5 -100.5v-36q0 -84 7 -154q5 -61 22 -135.5 t42 -138.5q20 -41 50 -82t73 -53q10 -3 23 -5.5t26 -2.5q36 0 79.5 15.5t84.5 33.5v-3q51 31 81.5 72t59.5 100q59 123 94.5 250.5t48.5 261.5q23 225 23 455v102.5t-5 99.5q-5 97 -6.5 198.5t-1.5 198.5h54q0 -97 1.5 -198t6.5 -199q5 -44 5 -100v-102q0 -108 -6.5 -228 t-16.5 -230q-13 -138 -51.5 -279t-94.5 -256q-31 -67 -65.5 -110.5t-103.5 -76.5v3q-41 -26 -88.5 -44t-98.5 -18q-38 0 -72 13h-5q-54 20 -89.5 65t-56.5 99v-3q-26 59 -41 141t-20 154q-3 23 -4 51t-1 51q0 13 -1.5 27t-1.5 27q-3 54 -5.5 111.5t-12.5 111.5 q-15 72 -19 140.5t-4 145.5zM317 1969q59 33 73 42t25 17q36 23 66.5 43.5t27.5 22.5l198 -138l-36 -36q-49 36 -90 65.5t-61 42.5q-15 -8 -39.5 -21t-37.5 -20q-28 -20 -62.5 -45t-60.5 -37z" />
<glyph unicode="&#xdc;" horiz-adv-x="1105" d="M92 1185v31q0 64 1.5 129.5t3.5 131.5q0 20 1.5 52.5t1.5 52.5q3 69 4 143.5t1 135.5h51q0 -61 -1 -131.5t-4 -132.5q0 -23 -1.5 -60t-1.5 -60q0 -67 -1 -132t-1 -129v-31q0 -67 2.5 -136t15.5 -138q10 -46 12.5 -98.5t5.5 -100.5v-36q0 -84 7 -154q5 -61 22 -135.5 t42 -138.5q20 -41 50 -82t73 -53q10 -3 23 -5.5t26 -2.5q36 0 79.5 15.5t84.5 33.5v-3q51 31 81.5 72t59.5 100q59 123 94.5 250.5t48.5 261.5q23 225 23 455v102.5t-5 99.5q-5 97 -6.5 198.5t-1.5 198.5h54q0 -97 1.5 -198t6.5 -199q5 -44 5 -100v-102q0 -108 -6.5 -228 t-16.5 -230q-13 -138 -51.5 -279t-94.5 -256q-31 -67 -65.5 -110.5t-103.5 -76.5v3q-41 -26 -88.5 -44t-98.5 -18q-38 0 -72 13h-5q-54 20 -89.5 65t-56.5 99v-3q-26 59 -41 141t-20 154q-3 23 -4 51t-1 51q0 13 -1.5 27t-1.5 27q-3 54 -5.5 111.5t-12.5 111.5 q-15 72 -19 140.5t-4 145.5zM284 1938l16 56l171 -7v-54h-100q-20 0 -33 1t-28 4h-26zM535 1935v59q41 -5 54 -6t25 -1h110l-2 -54h-102h-43.5t-41.5 2z" />
<glyph unicode="&#xe0;" horiz-adv-x="1024" d="M51 3l57 -3q10 82 22.5 138.5t25.5 109.5l16 75q5 26 11 52.5t12 54.5q18 97 46 213.5t56 211.5q5 15 9 30.5t9 33.5l15 59q13 0 28 -5h-2q15 -5 20 -5q10 -3 24.5 -3h21.5h18q5 0 9 1.5t9 1.5h69q10 0 19.5 1t19.5 1q31 3 60 4t65 1q20 -128 51 -262t64 -257l6 -36 q8 -36 18 -69.5t22 -68.5l29 -95q10 -33 12 -64q5 -26 11.5 -54t27.5 -61h59q-18 28 -24.5 55t-11.5 50l-5 20l-16 67l-33 107l-10 28q-8 23 -15.5 47.5t-12.5 50.5q-18 77 -37.5 164t-38.5 176.5t-37 177.5t-31 168q-5 51 -14 98.5t-16 98.5v-3l-5 31l-16 82t-13 79 l-23 113q-5 26 -10 49t-10 48l-8 49v-3q-3 26 -6.5 59t-29.5 74q-3 -8 -19.5 -9t-21.5 4q-5 -44 -14 -83.5t-21 -74.5l-8 -23q0 -20 -8 -47l-8 -30q-5 -26 -8.5 -50.5t-11.5 -47.5v3q-8 -15 -17 -39.5t-16 -47.5l-13 -38l-28 -87q-20 -72 -44.5 -152.5t-45.5 -160.5l-2 -5 l-39 -136q-28 -105 -55 -212.5t-45 -214.5q-5 -44 -15 -90t-23 -92q-18 -59 -31 -119t-23 -139zM343 1024q18 74 37 146t45 138l36 108l38 105q10 26 14 51t9 54v15q3 15 5.5 29t10.5 27l10 28l10 31l3 -5l-1 1l-2 2v-8l5 -44q5 -23 10.5 -47t10.5 -50l18 -113 q5 -36 12.5 -79t15.5 -82l5 -28q8 -51 16.5 -97t14.5 -98l10 -61q0 -8 5 -23q-56 0 -96 -1.5t-96 -6.5h-105zM425 2012l5 54q46 -28 79.5 -43.5t76.5 -30.5l28 -16l98 -43l-8 -62q-44 26 -64 36t-29 13t-13 3t-17 7q-5 0 -11.5 4t-8.5 6q-20 8 -48.5 22t-87.5 50z" />
<glyph unicode="&#xe1;" horiz-adv-x="1024" d="M51 3q10 79 23 139t31 119q13 46 23 92t15 90q18 108 45 215t55 212l39 136l2 5q20 79 44.5 160t45.5 153l28 87l13 38q8 23 16.5 47.5t16.5 39.5v-3q8 23 11.5 47.5t8.5 50.5l8 30q8 26 8 47l8 23q13 36 21.5 75.5t13.5 82.5q5 -5 22 -3.5t19 8.5q26 -41 30 -74t6 -59v3 l8 -49q5 -26 10 -48.5t10 -48.5l23 -113q5 -38 13 -79l16 -82l5 -31v3q8 -51 16.5 -98.5t13.5 -98.5q13 -79 31 -167.5t37 -178t38.5 -177t37.5 -163.5q5 -26 12.5 -50.5t15.5 -47.5l10 -28l33 -107l16 -67l5 -20q5 -23 11.5 -50t24.5 -55h-59q-20 33 -26.5 61t-12.5 54 q-3 31 -12 64l-29 95q-13 36 -23 69t-17 69l-6 36q-33 123 -63.5 257t-51.5 262q-36 0 -65.5 -1t-59.5 -4q-10 0 -19 -1t-20 -1h-69q-5 0 -9 -1.5t-9 -1.5h-18h-21.5t-24.5 3q-5 0 -20 5h2q-15 5 -28 5l-15 -59q-5 -18 -9 -33.5t-9 -30.5q-28 -95 -56.5 -211.5t-45.5 -213.5 q-5 -28 -11.5 -55t-11.5 -52l-16 -75q-13 -54 -25.5 -110t-22.5 -138zM343 1024l41 -8h105q56 5 96 6.5t96 1.5q-5 15 -5 23l-10 61q-5 51 -14 97.5t-17 97.5l-5 28q-8 38 -15.5 82t-12.5 79l-18 113q-5 26 -10.5 50t-10.5 47l-5 44v8l2 -2l1 -1l-3 5l-10 -31l-10 -28 q-8 -13 -10.5 -27t-5.5 -29v-15q-5 -28 -9 -54t-14 -51l-38 -105l-36 -108q-26 -67 -45 -138.5t-37 -145.5zM404 1925q54 31 81 42.5t50 21.5h-3q41 18 72 33.5t77 40.5l5 -56q-54 -33 -78 -47t-50 -25q-3 0 -6.5 -1t-6.5 -1q-28 -13 -62.5 -27t-70.5 -35z" />
<glyph unicode="&#xe2;" horiz-adv-x="1024" d="M51 3q10 79 23 139t31 119q13 46 23 92t15 90q18 108 45 215t55 212l39 136l2 5q20 79 44.5 160t45.5 153l28 87l13 38q8 23 16.5 47.5t16.5 39.5v-3q8 23 11.5 47.5t8.5 50.5l8 30q8 26 8 47l8 23q13 36 21.5 75.5t13.5 82.5q5 -5 22 -3.5t19 8.5q26 -41 30 -74t6 -59v3 l8 -49q5 -26 10 -48.5t10 -48.5l23 -113q5 -38 13 -79l16 -82l5 -31v3q8 -51 16.5 -98.5t13.5 -98.5q13 -79 31 -167.5t37 -178t38.5 -177t37.5 -163.5q5 -26 12.5 -50.5t15.5 -47.5l10 -28l33 -107l16 -67l5 -20q5 -23 11.5 -50t24.5 -55h-59q-20 33 -26.5 61t-12.5 54 q-3 31 -12 64l-29 95q-13 36 -23 69t-17 69l-6 36q-33 123 -63.5 257t-51.5 262q-36 0 -65.5 -1t-59.5 -4q-10 0 -19 -1t-20 -1h-69q-5 0 -9 -1.5t-9 -1.5h-18h-21.5t-24.5 3q-5 0 -20 5h2q-15 5 -28 5l-15 -59q-5 -18 -9 -33.5t-9 -30.5q-28 -95 -56.5 -211.5t-45.5 -213.5 q-5 -28 -11.5 -55t-11.5 -52l-16 -75q-13 -54 -25.5 -110t-22.5 -138zM343 1024l41 -8h105q56 5 96 6.5t96 1.5q-5 15 -5 23l-10 61q-5 51 -14 97.5t-17 97.5l-5 28q-8 38 -15.5 82t-12.5 79l-18 113q-5 26 -10.5 50t-10.5 47l-5 44v8l2 -2l1 -1l-3 5l-10 -31l-10 -28 q-8 -13 -10.5 -27t-5.5 -29v-15q-5 -28 -9 -54t-14 -51l-38 -105l-36 -108q-26 -67 -45 -138.5t-37 -145.5zM404 1938q67 36 82 49q46 33 75 48l140 -112l-10 -49q-20 13 -51 32t-38 27l-39 36q-28 -13 -34.5 -18t-16.5 -11l-105 -64z" />
<glyph unicode="&#xe3;" horiz-adv-x="1024" d="M51 3q10 79 23 139t31 119q13 46 23 92t15 90q18 108 45 215t55 212l39 136l2 5q20 79 44.5 160t45.5 153l28 87l13 38q8 23 16.5 47.5t16.5 39.5v-3q8 23 11.5 47.5t8.5 50.5l8 30q8 26 8 47l8 23q13 36 21.5 75.5t13.5 82.5q5 -5 22 -3.5t19 8.5q26 -41 30 -74t6 -59v3 l8 -49q5 -26 10 -48.5t10 -48.5l23 -113q5 -38 13 -79l16 -82l5 -31v3q8 -51 16.5 -98.5t13.5 -98.5q13 -79 31 -167.5t37 -178t38.5 -177t37.5 -163.5q5 -26 12.5 -50.5t15.5 -47.5l10 -28l33 -107l16 -67l5 -20q5 -23 11.5 -50t24.5 -55h-59q-20 33 -26.5 61t-12.5 54 q-3 31 -12 64l-29 95q-13 36 -23 69t-17 69l-6 36q-33 123 -63.5 257t-51.5 262q-36 0 -65.5 -1t-59.5 -4q-10 0 -19 -1t-20 -1h-69q-5 0 -9 -1.5t-9 -1.5h-18h-21.5t-24.5 3q-5 0 -20 5h2q-15 5 -28 5l-15 -59q-5 -18 -9 -33.5t-9 -30.5q-28 -95 -56.5 -211.5t-45.5 -213.5 q-5 -28 -11.5 -55t-11.5 -52l-16 -75q-13 -54 -25.5 -110t-22.5 -138zM343 1024l41 -8h105q56 5 96 6.5t96 1.5q-5 15 -5 23l-10 61q-5 51 -14 97.5t-17 97.5l-5 28q-8 38 -15.5 82t-12.5 79l-18 113q-5 26 -10.5 50t-10.5 47l-5 44v8l2 -2l1 -1l-3 5l-10 -31l-10 -28 q-8 -13 -10.5 -27t-5.5 -29v-15q-5 -28 -9 -54t-14 -51l-38 -105l-36 -108q-26 -67 -45 -138.5t-37 -145.5zM407 1951q67 54 105 52.5t69 -22.5q18 -13 47.5 -7.5t83.5 48.5l5 -64q-46 -38 -89.5 -38t-66.5 15q-18 13 -41 14.5t-72 -39.5z" />
<glyph unicode="&#xe4;" horiz-adv-x="1024" d="M51 3q10 79 23 139t31 119q13 46 23 92t15 90q18 108 45 215t55 212l39 136l2 5q20 79 44.5 160t45.5 153l28 87l13 38q8 23 16.5 47.5t16.5 39.5v-3q8 23 11.5 47.5t8.5 50.5l8 30q8 26 8 47l8 23q13 36 21.5 75.5t13.5 82.5q5 -5 22 -3.5t19 8.5q26 -41 30 -74t6 -59v3 l8 -49q5 -26 10 -48.5t10 -48.5l23 -113q5 -38 13 -79l16 -82l5 -31v3q8 -51 16.5 -98.5t13.5 -98.5q13 -79 31 -167.5t37 -178t38.5 -177t37.5 -163.5q5 -26 12.5 -50.5t15.5 -47.5l10 -28l33 -107l16 -67l5 -20q5 -23 11.5 -50t24.5 -55h-59q-20 33 -26.5 61t-12.5 54 q-3 31 -12 64l-29 95q-13 36 -23 69t-17 69l-6 36q-33 123 -63.5 257t-51.5 262q-36 0 -65.5 -1t-59.5 -4q-10 0 -19 -1t-20 -1h-69q-5 0 -9 -1.5t-9 -1.5h-18h-21.5t-24.5 3q-5 0 -20 5h2q-15 5 -28 5l-15 -59q-5 -18 -9 -33.5t-9 -30.5q-28 -95 -56.5 -211.5t-45.5 -213.5 q-5 -28 -11.5 -55t-11.5 -52l-16 -75q-13 -54 -25.5 -110t-22.5 -138zM343 1024l41 -8h105q56 5 96 6.5t96 1.5q-5 15 -5 23l-10 61q-5 51 -14 97.5t-17 97.5l-5 28q-8 38 -15.5 82t-12.5 79l-18 113q-5 26 -10.5 50t-10.5 47l-5 44v8l2 -2l1 -1l-3 5l-10 -31l-10 -28 q-8 -13 -10.5 -27t-5.5 -29v-15q-5 -28 -9 -54t-14 -51l-38 -105l-36 -108q-26 -67 -45 -138.5t-37 -145.5zM348 1928l16 56l171 -8v-56q-26 3 -54 3h-46q-38 0 -52 1t-35 4zM573 1925v59q36 -5 51.5 -6.5t28.5 -1.5h110l-3 -56q-26 3 -55 3h-47h-47.5t-37.5 2z" />
<glyph unicode="&#xe6;" horiz-adv-x="1402" />
<glyph unicode="&#xe7;" horiz-adv-x="1615" d="M76.5 780q0.5 19 0.5 32q0 28 1 60t6 60q13 87 31 180.5t49 172.5q23 74 59 153.5t89 133.5q118 110 265 192t314 89h33q8 0 15.5 1.5t17.5 1.5h59q59 0 113 -4t100 -16q90 -20 169 -84.5t125 -148.5l-41 -39q-44 82 -114 139.5t-152 75.5q-46 13 -97 18t-103 5 q-8 0 -15.5 -1t-14.5 -1h-90q-72 -5 -145 -29.5t-143 -61.5t-135.5 -83t-121.5 -95q-46 -51 -79.5 -123t-56.5 -141q-28 -72 -44.5 -160t-29.5 -165q0 -5 -1.5 -10t-1.5 -10q-5 -28 -6 -57.5t-1 -52.5v-32.5t2 -31.5v-24q3 -38 5.5 -75t15.5 -73q20 -59 58.5 -124t81.5 -117 q46 -44 106.5 -91t114.5 -75q56 -28 106 -41t106 -26q28 -10 61.5 -12.5t61.5 -2.5h55t55 3q54 3 116.5 11.5t119.5 29.5q97 49 163 107q8 8 23.5 22t29.5 32t24 36t10 30l57 -2q-3 -46 -32.5 -82t-54.5 -62l-13 -12l-5 -5q-44 -36 -88.5 -63t-88.5 -50 q-49 -23 -125.5 -33.5t-135.5 -12.5q-23 -3 -55 -3h-55h-13q-8 -15 -11.5 -24t-13.5 -24q15 -5 36.5 -13t47.5 -26q33 -20 50 -48.5t9 -71.5q-13 -49 -55 -82t-88 -49q-31 -13 -68 -18t-71 -7q-38 -3 -77 -3l29 59q31 0 61 5q28 3 56.5 8t53.5 15q36 10 63 32t37 50 q13 41 -8 49q-26 15 -55 25.5t-55 17.5q-28 8 -59 13l49 92q-18 3 -29.5 5.5t-24.5 7.5q-133 33 -225 69q-136 67 -230 182q-49 51 -95 125.5t-67 140.5q-10 36 -12.5 77t-5.5 82v26q-3 13 -2.5 32z" />
<glyph unicode="&#xe8;" horiz-adv-x="842" d="M61 3l3 33q5 13 5 22v21v54v51.5t3 56.5q0 5 1 12.5t1 12.5q8 79 9 161t1 162v82v75t3 71v69q0 20 1.5 39.5t1.5 31.5q0 8 -1.5 15.5t-1.5 15.5v85l-5 48l-5 54q-5 28 -7.5 61.5t-2.5 63.5v21q0 3 1 4t1 4v87v40.5t3 43.5l7 95q0 5 1.5 16.5t1.5 21.5q0 31 15 46h-10 v88.5t3 91.5q0 5 1 14t1 14h69q10 0 18 -1.5t18 -1.5h115h106.5t111.5 -5l143 -8q10 -3 36 -2h15q5 0 26 5l21 5v-67q-8 -3 -16 -2h-28h-10q-3 0 -4 1t-4 1h-28t-28 3h-16q-28 3 -57.5 4t-54.5 6h2q-51 5 -108.5 5h-106.5h-115q-10 0 -17.5 1.5t-18.5 1.5h-23 q-3 -36 -2.5 -77t0.5 -77q0 -18 -1.5 -37t-3.5 -47l-8 -97v-41v-51.5t-1.5 -47.5t-1.5 -29v-29v-77.5t5 -78.5h8q13 0 21 3l28 5q18 5 41 6.5t43 1.5l141 10h46h42t43 -5h-3q15 -3 38 -3h47h53l-2 -56h-69q-18 0 -37.5 -1.5t-37.5 3.5q-20 5 -38 5.5t-36 0.5h-46l-141 -11 q-36 0 -82 -7q-5 0 -8.5 -1.5t-9.5 -1.5q-8 -3 -18 -2.5t-15 0.5q0 -3 1.5 -5.5t1.5 -5.5v-92q0 -8 1 -15.5t1 -15.5v-69q0 -18 -1 -35.5t-1 -38.5q-3 -33 -3 -70v-73v-82q0 -79 -1 -161t-7 -164q-3 -28 -4 -65.5t-1 -65.5v-74q5 3 10.5 5.5t12.5 2.5h187q5 0 10.5 -1.5 t10.5 -1.5h56q90 0 187 8q5 0 10 1t10 1h82q10 0 23 1.5t21 1.5v-54h-34.5t-27.5 -3q-5 0 -14 -1t-14 -1h-20q-51 -5 -111.5 -7.5t-111.5 -2.5h-59q-5 0 -9 1t-9 1h-187q-13 0 -20 -2q-20 -5 -31 -5h-31zM276 2120l13 51l146 -103l121 -92l-26 -41l-115 85l-34 23 q-20 15 -44.5 34.5t-60.5 42.5z" />
<glyph unicode="&#xe9;" horiz-adv-x="842" d="M61 3l3 33q5 13 5 22v21v54v51.5t3 56.5q0 5 1 12.5t1 12.5q8 79 9 161t1 162v82v75t3 71v69q0 20 1.5 39.5t1.5 31.5q0 8 -1.5 15.5t-1.5 15.5v85l-5 48l-5 54q-5 28 -7.5 61.5t-2.5 63.5v21q0 3 1 4t1 4v87v40.5t3 43.5l7 95q0 8 1.5 19.5t1.5 21.5q3 31 9 41t11 13 l-15 -6v87.5t3 87.5q0 5 1 14t1 14h69q10 0 18 -1.5t18 -1.5h115h106.5t111.5 -5l143 -8q10 -3 36 -2h15q5 0 26 5l21 5v-67q-8 -3 -16 -2h-28h-10q-3 0 -4 1t-4 1h-27t-22 3h-20q-5 0 -11.5 1.5t-11.5 1.5q-20 0 -46 1t-44 4q-51 5 -110 6t-105 1h-115q-10 0 -17.5 1.5 t-18.5 1.5h-23q-3 -36 -2.5 -77t0.5 -77q0 -18 -1.5 -37t-3.5 -47l-8 -97v-41v-51.5t-1.5 -47.5t-1.5 -29v-29v-77.5t5 -78.5h8q13 0 21 3l28 5q18 5 41 6.5t43 1.5l141 10h46h42t43 -5h-3q15 -3 38 -3h47h53l-2 -56h-69q-18 0 -37.5 -1.5t-37.5 3.5q-20 5 -38 5.5t-36 0.5 h-46l-141 -11q-36 0 -82 -7q-5 0 -8.5 -1.5t-9.5 -1.5q-8 -3 -18 -2.5t-15 0.5q0 -3 1.5 -5.5t1.5 -5.5v-92q0 -8 1 -15.5t1 -15.5v-69q0 -18 -1 -35.5t-1 -38.5q-3 -33 -3 -70v-73v-82q0 -79 -1 -161t-7 -164q-3 -28 -4 -65.5t-1 -65.5v-74q5 3 10.5 5.5t12.5 2.5h187 q5 0 10.5 -1.5t10.5 -1.5h56q90 0 187 8q5 0 10 1t10 1h82q10 0 23 1.5t21 1.5v-54h-34.5t-27.5 -3q-5 0 -14 -1t-14 -1h-20q-51 -5 -111.5 -7.5t-111.5 -2.5h-59q-5 0 -9 1t-9 1h-187q-13 0 -20 -2q-20 -5 -31 -5h-31zM274 1976l120 92l131 90l15 10l10 -51l-107 -77 l-28 -20q-26 -20 -58 -42t-52 -43z" />
<glyph unicode="&#xea;" horiz-adv-x="842" d="M61 3l3 33q5 13 5 22v21v54v51.5t3 56.5q0 5 1 12.5t1 12.5q8 79 9 161t1 162v82v75t3 71v69q0 20 1.5 39.5t1.5 31.5q0 8 -1.5 15.5t-1.5 15.5v85l-5 48l-5 54q-5 28 -7.5 61.5t-2.5 63.5v21q0 3 1 4t1 4v87v40.5t3 43.5l7 95q0 8 1.5 19.5t1.5 21.5q3 31 9 41t11 13 l-15 -6v87.5t3 87.5q0 5 1 14t1 14h69q10 0 18 -1.5t18 -1.5h115h106.5t111.5 -5l143 -8q10 -3 36 -2h15q5 0 26 5l21 5v-67q-8 -3 -16 -2h-28h-10q-3 0 -4 1t-4 1h-27t-22 3h-20q-5 0 -11.5 1.5t-11.5 1.5q-20 0 -46 1t-44 4q-51 5 -110 6t-105 1h-115q-10 0 -17.5 1.5 t-18.5 1.5h-23q-3 -36 -2.5 -77t0.5 -77q0 -18 -1.5 -37t-3.5 -47l-8 -97v-41v-51.5t-1.5 -47.5t-1.5 -29v-29v-77.5t5 -78.5h8q13 0 21 3l28 5q18 5 41 6.5t43 1.5l141 10h46h42t43 -5h-3q15 -3 38 -3h47h53l-2 -56h-69q-18 0 -37.5 -1.5t-37.5 3.5q-20 5 -38 5.5t-36 0.5 h-46l-141 -11q-36 0 -82 -7q-5 0 -8.5 -1.5t-9.5 -1.5q-8 -3 -18 -2.5t-15 0.5q0 -3 1.5 -5.5t1.5 -5.5v-92q0 -8 1 -15.5t1 -15.5v-69q0 -18 -1 -35.5t-1 -38.5q-3 -33 -3 -70v-73v-82q0 -79 -1 -161t-7 -164q-3 -28 -4 -65.5t-1 -65.5v-74q5 3 10.5 5.5t12.5 2.5h187 q5 0 10.5 -1.5t10.5 -1.5h56q90 0 187 8q5 0 10 1t10 1h82q10 0 23 1.5t21 1.5v-54h-34.5t-27.5 -3q-5 0 -14 -1t-14 -1h-20q-51 -5 -111.5 -7.5t-111.5 -2.5h-59q-5 0 -9 1t-9 1h-187q-13 0 -20 -2q-20 -5 -31 -5h-31zM236 1989q46 23 62.5 34.5t26.5 21.5l10 3h-2 q36 23 66.5 43.5t28.5 23.5l192 -134l-13 -53q-46 36 -97.5 71.5t-71.5 48.5q-15 -8 -39.5 -20.5t-37.5 -20.5q-28 -20 -62.5 -44.5t-60.5 -39.5z" />
<glyph unicode="&#xeb;" horiz-adv-x="842" d="M61 3l3 33q5 13 5 22v21v54v51.5t3 56.5q0 5 1 12.5t1 12.5q8 79 9 161t1 162v82v75t3 71v69q0 20 1.5 39.5t1.5 31.5q0 8 -1.5 15.5t-1.5 15.5v85l-5 48l-5 54q-5 28 -7.5 61.5t-2.5 63.5v21q0 3 1 4t1 4v87v40.5t3 43.5l7 95q0 8 1.5 19.5t1.5 21.5q3 31 9 41t11 13 l-15 -6v87.5t3 87.5q0 5 1 14t1 14h69q10 0 18 -1.5t18 -1.5h115h106.5t111.5 -5l143 -8q10 -3 36 -2h15q5 0 26 5l21 5v-67q-8 -3 -16 -2h-28h-10q-3 0 -4 1t-4 1h-27t-22 3h-20q-5 0 -11.5 1.5t-11.5 1.5q-20 0 -46 1t-44 4q-51 5 -110 6t-105 1h-115q-10 0 -17.5 1.5 t-18.5 1.5h-23q-3 -36 -2.5 -77t0.5 -77q0 -18 -1.5 -37t-3.5 -47l-8 -97v-41v-51.5t-1.5 -47.5t-1.5 -29v-29v-77.5t5 -78.5h8q13 0 21 3l28 5q18 5 41 6.5t43 1.5l141 10h46h42t43 -5h-3q15 -3 38 -3h47h53l-2 -56h-69q-18 0 -37.5 -1.5t-37.5 3.5q-20 5 -38 5.5t-36 0.5 h-46l-141 -11q-36 0 -82 -7q-5 0 -8.5 -1.5t-9.5 -1.5q-8 -3 -18 -2.5t-15 0.5q0 -3 1.5 -5.5t1.5 -5.5v-92q0 -8 1 -15.5t1 -15.5v-69q0 -18 -1 -35.5t-1 -38.5q-3 -33 -3 -70v-73v-82q0 -79 -1 -161t-7 -164q-3 -28 -4 -65.5t-1 -65.5v-74q5 3 10.5 5.5t12.5 2.5h187 q5 0 10.5 -1.5t10.5 -1.5h56q90 0 187 8q5 0 10 1t10 1h82q10 0 23 1.5t21 1.5v-54h-34.5t-27.5 -3q-5 0 -14 -1t-14 -1h-20q-51 -5 -111.5 -7.5t-111.5 -2.5h-59q-5 0 -9 1t-9 1h-187q-13 0 -20 -2q-20 -5 -31 -5h-31zM225 1951l16 56l171 -8v-56q-26 3 -54 3h-41 q-20 0 -38 1t-31 4h-23zM451 1948v59q41 -5 56 -6.5t28 -1.5h105l-3 -56q-26 3 -55 3h-42h-49t-40 2z" />
<glyph unicode="&#xec;" horiz-adv-x="268" d="M3 2086l12 49l151 -102l121 -93l-31 -38l-110 82l-36 26q-20 15 -47 34t-60 42zM74 407v161v55t3 55q10 97 17.5 197t7.5 198v84.5t3 78.5t4 84.5t1 84.5v52q0 13 -1 25.5t-1 27.5v200q0 5 1 11.5t1 14.5q3 28 4 64t1 61h54q0 -28 -1.5 -65t-3.5 -60q0 -5 -1.5 -14 t-1.5 -14v-198q0 -15 1.5 -28t1.5 -25v-52q0 -44 -1.5 -84.5t-3.5 -84.5q-3 -38 -3 -79v-84q0 -77 -5 -166.5t-13 -169.5v-17.5t-2 -18.5q0 -5 -1.5 -14t-1.5 -14q-5 -28 -5 -53.5v-51.5q0 -51 1.5 -104.5t3.5 -110.5v-36q0 -13 1.5 -23t1.5 -23q3 -20 2.5 -47t-0.5 -45 q0 -28 -1 -65t-4 -78l-33 2h-21q3 28 4 68t1 73q0 20 -1 43.5t-4 46.5t-2.5 43.5t0.5 40.5q0 13 -1.5 27t-1.5 27z" />
<glyph unicode="&#xed;" horiz-adv-x="268" d="M0 1940l125 93h-2l5 2q23 18 60 46t76 51l18 -48l-100 -72l-151 -110zM74 407v161v55t3 55q10 97 17.5 197t7.5 198v84.5t3 78.5t4 84.5t1 84.5v52q0 13 -1 25.5t-1 27.5v200q0 5 1 11.5t1 14.5q3 28 4 64t1 61h54q0 -28 -1.5 -65t-3.5 -60q0 -5 -1.5 -14t-1.5 -14v-198 q0 -15 1.5 -28t1.5 -25v-52q0 -44 -1.5 -84.5t-3.5 -84.5q-3 -38 -3 -79v-84q0 -77 -5 -166.5t-13 -169.5v-17.5t-2 -18.5q0 -5 -1.5 -14t-1.5 -14q-5 -28 -5 -53.5v-51.5q0 -51 1.5 -104.5t3.5 -110.5v-36q0 -13 1.5 -23t1.5 -23q3 -20 2.5 -47t-0.5 -45q0 -28 -1 -65 t-4 -78l-33 2h-21q3 28 4 68t1 73q0 20 -1 43.5t-4 46.5t-2.5 43.5t0.5 40.5q0 13 -1.5 27t-1.5 27z" />
<glyph unicode="&#xee;" horiz-adv-x="268" d="M-49 1958q31 15 47.5 25.5t27 17t15.5 9t10 7.5q36 23 66.5 43.5t28.5 23.5l192 -133l-13 -49q-49 33 -98.5 67.5t-70.5 47.5q-15 -8 -39.5 -20.5t-37.5 -20.5q-28 -20 -63.5 -44.5t-61.5 -37.5zM74 407v161v55t3 55q10 97 17.5 197t7.5 198v84.5t3 78.5t4 84.5t1 84.5 v52q0 13 -1 25.5t-1 27.5v200q0 5 1 11.5t1 14.5q3 28 4 64t1 61h54q0 -28 -1.5 -65t-3.5 -60q0 -5 -1.5 -14t-1.5 -14v-198q0 -15 1.5 -28t1.5 -25v-52q0 -44 -1.5 -84.5t-3.5 -84.5q-3 -38 -3 -79v-84q0 -77 -5 -166.5t-13 -169.5v-17.5t-2 -18.5q0 -5 -1.5 -14t-1.5 -14 q-5 -28 -5 -53.5v-51.5q0 -51 1.5 -104.5t3.5 -110.5v-36q0 -13 1.5 -23t1.5 -23q3 -20 2.5 -47t-0.5 -45q0 -28 -1 -65t-4 -78l-33 2h-21q3 28 4 68t1 73q0 20 -1 43.5t-4 46.5t-2.5 43.5t0.5 40.5q0 13 -1.5 27t-1.5 27z" />
<glyph unicode="&#xef;" horiz-adv-x="268" d="M-69 1933l15 56l172 -8v-56q-26 3 -54 3h-46q-38 0 -52.5 1t-34.5 4zM74 407v161v55t3 55q10 97 17.5 197t7.5 198v84.5t3 78.5t4 84.5t1 84.5v52q0 13 -1 25.5t-1 27.5v200q0 5 1 11.5t1 14.5q3 28 4 64t1 61h54q0 -28 -1.5 -65t-3.5 -60q0 -5 -1.5 -14t-1.5 -14v-198 q0 -15 1.5 -28t1.5 -25v-52q0 -44 -1.5 -84.5t-3.5 -84.5q-3 -38 -3 -79v-84q0 -77 -5 -166.5t-13 -169.5v-17.5t-2 -18.5q0 -5 -1.5 -14t-1.5 -14q-5 -28 -5 -53.5v-51.5q0 -51 1.5 -104.5t3.5 -110.5v-36q0 -13 1.5 -23t1.5 -23q3 -20 2.5 -47t-0.5 -45q0 -28 -1 -65 t-4 -78l-33 2h-21q3 28 4 68t1 73q0 20 -1 43.5t-4 46.5t-2.5 43.5t0.5 40.5q0 13 -1.5 27t-1.5 27zM156 1930v59q36 -5 51.5 -6.5t28.5 -1.5h110l-3 -56q-26 3 -55 3h-47h-47.5t-37.5 2z" />
<glyph unicode="&#xf0;" horiz-adv-x="675" />
<glyph unicode="&#xf1;" horiz-adv-x="1131" d="M82 279q0 36 1 69t4 69t5.5 63t7.5 47t6.5 36t3.5 31q5 59 6.5 129.5t1.5 123.5v382q0 131 3.5 267.5t16.5 264.5v16.5t3 17.5v7q0 5 1 6.5t1 3.5q-3 0 -5 8t-13 28l39 3q36 -3 54 -36t28 -61v2q5 -10 5 -15q10 -23 24 -50t27 -47l10 -24l-2 3q13 -20 23 -38t15 -29 q28 -59 64 -147t69 -173v3q28 -64 54 -124t51 -109q36 -84 70.5 -170t67.5 -170q13 -33 24.5 -64t24.5 -59q36 -92 69.5 -176.5t71.5 -174.5v15q0 97 2.5 196t12.5 193q10 97 15.5 193.5t5.5 196.5v42t-3 45q0 41 -1 82t-4 76q-3 59 -4 116.5t-1 114.5v10q0 69 -8 143 q-5 36 -7.5 70.5t-2.5 70.5q0 23 2.5 54t12.5 72l54 -3q-10 -41 -12.5 -70.5t-2.5 -52.5q0 -69 7 -141q0 -13 1.5 -24t1.5 -24q3 -20 4 -47.5t1 -47.5v-10q0 -69 1.5 -142t6.5 -142l5 -105q3 -20 3 -46v-41q0 -100 -6.5 -196t-14.5 -194q-10 -95 -12.5 -193t-2.5 -196v-84 t2 -85h-41l8 11q-5 5 -23 28t-23 36l-23 46q-41 100 -80.5 201t-80.5 201q-44 108 -85 210t-87 209q-26 51 -52.5 115.5t-54.5 128.5q-18 36 -29 66q-23 64 -47 123t-55 118l-41 84q-13 20 -25.5 41t-23.5 39l-12 36l-8 25q-13 -131 -17 -261.5t-4 -265.5v-382 q0 -59 -1 -124t-4 -134q-3 -20 -4 -43.5t-6 -43.5t-7.5 -44.5t-2.5 -40.5q-3 -36 -4 -69t-1 -69q0 -51 5 -114t18 -121l-54 -3q-13 59 -18 123t-5 115zM323 1923q41 36 69 50t53 14q26 0 45 -6.5t35 -14.5h-5q10 -5 12 -5l36 -15q20 -10 50 0t73 33l26 18l36 -39 q-67 -41 -119.5 -57.5t-72.5 -11.5l-39 18q-3 0 -6.5 2.5t-6.5 2.5q-13 5 -28 11.5t-28 6.5t-31 -7.5t-41 -28.5z" />
<glyph unicode="&#xf2;" d="M64 858q0 77 8 151q13 90 39.5 190.5t85.5 195.5q5 5 7.5 13t7.5 13q36 54 73.5 109t72.5 88l49 43q36 28 83.5 69.5t85.5 61.5q41 20 94.5 40.5t107.5 28.5q8 0 21 3q18 3 38.5 4t40.5 1q49 0 96 -13t73 -20q56 -20 107.5 -39.5t110.5 -65.5q69 -51 115 -106.5 t74 -137.5q26 -74 40 -149.5t27 -152.5q5 -41 8.5 -83t3.5 -91q0 -169 -46 -334t-143 -298q-51 -67 -117.5 -127t-146 -107.5t-165.5 -75.5t-170 -28q-15 0 -23 3q-61 3 -106 27t-89 52q-13 0 -12 13q-13 13 -36 25.5t-49 27.5v-2l-33 20q-28 18 -59 37.5t-64 52.5 q-113 105 -161.5 256t-48.5 305zM115 858q0 -146 45 -287t150 -236q36 -36 69 -56t66 -38l95 -62l-10 5q46 -36 97 -59t110 -28l8 -2q79 0 160 25.5t155 69t137 100t106 117.5q87 120 132 281.5t45 322.5q0 41 -4 82t-9 79q-13 77 -27 151.5t-37 148.5q-26 74 -67 125.5 t-100 92.5q-44 33 -94.5 53.5t-109.5 38.5q-23 8 -69.5 20.5t-84.5 12.5q-8 0 -23 -1.5t-28 -3.5q-13 -3 -24.5 -3h-16.5q-38 -8 -91 -28.5t-91 -40.5q-44 -20 -77 -47t-66 -58l-21 -18l-43 -38q-44 -41 -74.5 -83t-53.5 -81l-36 -51q-44 -74 -69.5 -170t-38.5 -186v3 q-5 -36 -7.5 -74.5t-2.5 -76.5zM714 2115l13 53q36 -28 65.5 -47t59.5 -37q10 -10 27 -19t27 -14q41 -26 91 -60.5t91 -62.5l-31 -39q-46 31 -97 65.5t-97 62.5l-105 69z" />
<glyph unicode="&#xf3;" d="M64 858q0 77 8 151q13 90 39.5 190.5t85.5 195.5q5 5 7.5 13t7.5 13q36 54 73.5 109t72.5 88l49 43q36 28 83.5 69.5t85.5 61.5q41 20 94.5 40.5t107.5 28.5q8 0 21 3q18 3 38.5 4t40.5 1q49 0 96 -13t73 -20q56 -20 107.5 -39.5t110.5 -65.5q69 -51 115 -106.5 t74 -137.5q26 -74 40 -149.5t27 -152.5q5 -41 8.5 -83t3.5 -91q0 -169 -46 -334t-143 -298q-51 -67 -117.5 -127t-146 -107.5t-165.5 -75.5t-170 -28q-15 0 -23 3q-61 3 -106 27t-89 52q-13 0 -12 13q-13 13 -36 25.5t-49 27.5v-2l-33 20q-28 18 -59 37.5t-64 52.5 q-113 105 -161.5 256t-48.5 305zM115 858q0 -146 45 -287t150 -236q36 -36 69 -56t66 -38l95 -62l-10 5q46 -36 97 -59t110 -28l8 -2q79 0 160 25.5t155 69t137 100t106 117.5q87 120 132 281.5t45 322.5q0 41 -4 82t-9 79q-13 77 -27 151.5t-37 148.5q-26 74 -67 125.5 t-100 92.5q-44 33 -94.5 53.5t-109.5 38.5q-23 8 -69.5 20.5t-84.5 12.5q-8 0 -23 -1.5t-28 -3.5q-13 -3 -24.5 -3h-16.5q-38 -8 -91 -28.5t-91 -40.5q-44 -20 -77 -47t-66 -58l-21 -18l-43 -38q-44 -41 -74.5 -83t-53.5 -81l-36 -51q-44 -74 -69.5 -170t-38.5 -186v3 q-5 -36 -7.5 -74.5t-2.5 -76.5zM712 1928q36 28 75.5 55t80.5 52l25 16l175 112l15 -51l-146 -95q-46 -28 -100 -62.5t-100 -65.5z" />
<glyph unicode="&#xf4;" d="M64 858q0 77 8 151q13 90 39.5 190.5t85.5 195.5q5 5 7.5 13t7.5 13q36 54 73.5 109t72.5 88l49 43q36 28 83.5 69.5t85.5 61.5q41 20 94.5 40.5t107.5 28.5q8 0 21 3q18 3 38.5 4t40.5 1q49 0 96 -13t73 -20q56 -20 107.5 -39.5t110.5 -65.5q69 -51 115 -106.5 t74 -137.5q26 -74 40 -149.5t27 -152.5q5 -41 8.5 -83t3.5 -91q0 -169 -46 -334t-143 -298q-51 -67 -117.5 -127t-146 -107.5t-165.5 -75.5t-170 -28q-15 0 -23 3q-61 3 -106 27t-89 52q-13 0 -12 13q-13 13 -36 25.5t-49 27.5v-2l-33 20q-28 18 -59 37.5t-64 52.5 q-113 105 -161.5 256t-48.5 305zM115 858q0 -146 45 -287t150 -236q36 -36 69 -56t66 -38l95 -62l-10 5q46 -36 97 -59t110 -28l8 -2q79 0 160 25.5t155 69t137 100t106 117.5q87 120 132 281.5t45 322.5q0 41 -4 82t-9 79q-13 77 -27 151.5t-37 148.5q-26 74 -67 125.5 t-100 92.5q-44 33 -94.5 53.5t-109.5 38.5q-23 8 -69.5 20.5t-84.5 12.5q-8 0 -23 -1.5t-28 -3.5q-13 -3 -24.5 -3h-16.5q-38 -8 -91 -28.5t-91 -40.5q-44 -20 -77 -47t-66 -58l-21 -18l-43 -38q-44 -41 -74.5 -83t-53.5 -81l-36 -51q-44 -74 -69.5 -170t-38.5 -186v3 q-5 -36 -7.5 -74.5t-2.5 -76.5zM556 1943q20 10 58.5 29.5t76.5 42.5l51 33l116 67l263 -177l-13 -49q-23 15 -56 38.5t-69 47.5t-68 44.5t-50 33.5q-26 -13 -77 -42.5t-97 -59.5l-133 -72z" />
<glyph unicode="&#xf5;" d="M64 858q0 77 8 151q13 90 39.5 190.5t85.5 195.5q5 5 7.5 13t7.5 13q36 54 73.5 109t72.5 88l49 43q36 28 83.5 69.5t85.5 61.5q41 20 94.5 40.5t107.5 28.5q8 0 21 3q18 3 38.5 4t40.5 1q49 0 96 -13t73 -20q56 -20 107.5 -39.5t110.5 -65.5q69 -51 115 -106.5 t74 -137.5q26 -74 40 -149.5t27 -152.5q5 -41 8.5 -83t3.5 -91q0 -169 -46 -334t-143 -298q-51 -67 -117.5 -127t-146 -107.5t-165.5 -75.5t-170 -28q-15 0 -23 3q-61 3 -106 27t-89 52q-13 0 -12 13q-13 13 -36 25.5t-49 27.5v-2l-33 20q-28 18 -59 37.5t-64 52.5 q-113 105 -161.5 256t-48.5 305zM115 858q0 -146 45 -287t150 -236q36 -36 69 -56t66 -38l95 -62l-10 5q46 -36 97 -59t110 -28l8 -2q79 0 160 25.5t155 69t137 100t106 117.5q87 120 132 281.5t45 322.5q0 41 -4 82t-9 79q-13 77 -27 151.5t-37 148.5q-26 74 -67 125.5 t-100 92.5q-44 33 -94.5 53.5t-109.5 38.5q-23 8 -69.5 20.5t-84.5 12.5q-8 0 -23 -1.5t-28 -3.5q-13 -3 -24.5 -3h-16.5q-38 -8 -91 -28.5t-91 -40.5q-44 -20 -77 -47t-66 -58l-21 -18l-43 -38q-44 -41 -74.5 -83t-53.5 -81l-36 -51q-44 -74 -69.5 -170t-38.5 -186v3 q-5 -36 -7.5 -74.5t-2.5 -76.5zM609 1976q82 72 133.5 87.5t86.5 2.5q36 -13 80 -49q18 -13 39.5 -27t49.5 -19t66.5 10.5t95.5 58.5l5 -61q-54 -41 -93.5 -54t-73.5 -10q-36 3 -64 20.5t-56 38.5h3q-13 13 -31 23t-38 15q-28 10 -61.5 -5t-97.5 -74z" />
<glyph unicode="&#xf6;" d="M64 858q0 77 8 151q13 90 39.5 190.5t85.5 195.5q5 5 7.5 13t7.5 13q36 54 73.5 109t72.5 88l49 43q36 28 83.5 69.5t85.5 61.5q41 20 94.5 40.5t107.5 28.5q8 0 21 3q18 3 38.5 4t40.5 1q49 0 96 -13t73 -20q56 -20 107.5 -39.5t110.5 -65.5q69 -51 115 -106.5 t74 -137.5q26 -74 40 -149.5t27 -152.5q5 -41 8.5 -83t3.5 -91q0 -169 -46 -334t-143 -298q-51 -67 -117.5 -127t-146 -107.5t-165.5 -75.5t-170 -28q-15 0 -23 3q-61 3 -106 27t-89 52q-13 0 -12 13q-13 13 -36 25.5t-49 27.5v-2l-33 20q-28 18 -59 37.5t-64 52.5 q-113 105 -161.5 256t-48.5 305zM115 858q0 -146 45 -287t150 -236q36 -36 69 -56t66 -38l95 -62l-10 5q46 -36 97 -59t110 -28l8 -2q79 0 160 25.5t155 69t137 100t106 117.5q87 120 132 281.5t45 322.5q0 41 -4 82t-9 79q-13 77 -27 151.5t-37 148.5q-26 74 -67 125.5 t-100 92.5q-44 33 -94.5 53.5t-109.5 38.5q-23 8 -69.5 20.5t-84.5 12.5q-8 0 -23 -1.5t-28 -3.5q-13 -3 -24.5 -3h-16.5q-38 -8 -91 -28.5t-91 -40.5q-44 -20 -77 -47t-66 -58l-21 -18l-43 -38q-44 -41 -74.5 -83t-53.5 -81l-36 -51q-44 -74 -69.5 -170t-38.5 -186v3 q-5 -36 -7.5 -74.5t-2.5 -76.5zM625 1933v56l220 -8v-56q-26 3 -59 3h-54q-41 0 -64 1t-43 4zM950 1930v59q38 -5 57.5 -6.5t36.5 -1.5h126l-3 -56q-26 3 -60 3h-57h-58t-42 2z" />
<glyph unicode="&#xf8;" />
<glyph unicode="&#xf9;" horiz-adv-x="1105" d="M92 1185v31q0 64 1.5 129.5t3.5 131.5q0 20 1.5 52.5t1.5 52.5q3 69 4 143.5t1 135.5h51q0 -61 -1 -131.5t-4 -132.5q0 -23 -1.5 -60t-1.5 -60q0 -67 -1 -132t-1 -129v-31q0 -67 2.5 -136t15.5 -138q10 -46 12.5 -98.5t5.5 -100.5v-36q0 -84 7 -154q5 -61 22 -135.5 t42 -138.5q20 -41 50 -82t73 -53q10 -3 23 -5.5t26 -2.5q36 0 79.5 15.5t84.5 33.5v-3q51 31 81.5 72t59.5 100q59 123 94.5 250.5t48.5 261.5q23 225 23 455v102.5t-5 99.5q-5 97 -6.5 198.5t-1.5 198.5h54q0 -97 1.5 -198t6.5 -199q5 -44 5 -100v-102q0 -108 -6.5 -228 t-16.5 -230q-13 -138 -51.5 -279t-94.5 -256q-31 -67 -65.5 -110.5t-103.5 -76.5v3q-41 -26 -88.5 -44t-98.5 -18q-38 0 -72 13h-5q-54 20 -89.5 65t-56.5 99v-3q-26 59 -41 141t-20 154q-3 23 -4 51t-1 51q0 13 -1.5 27t-1.5 27q-3 54 -5.5 111.5t-12.5 111.5 q-15 72 -19 140.5t-4 145.5zM340 2045l11 54l146 -107l120 -90l-26 -38l-115 79q-18 10 -30.5 19t-17.5 14h2z" />
<glyph unicode="&#xfa;" horiz-adv-x="1105" d="M92 1185v31q0 64 1.5 129.5t3.5 131.5q0 20 1.5 52.5t1.5 52.5q3 69 4 143.5t1 135.5h51q0 -61 -1 -131.5t-4 -132.5q0 -23 -1.5 -60t-1.5 -60q0 -67 -1 -132t-1 -129v-31q0 -67 2.5 -136t15.5 -138q10 -46 12.5 -98.5t5.5 -100.5v-36q0 -84 7 -154q5 -61 22 -135.5 t42 -138.5q20 -41 50 -82t73 -53q10 -3 23 -5.5t26 -2.5q36 0 79.5 15.5t84.5 33.5v-3q51 31 81.5 72t59.5 100q59 123 94.5 250.5t48.5 261.5q23 225 23 455v102.5t-5 99.5q-5 97 -6.5 198.5t-1.5 198.5h54q0 -97 1.5 -198t6.5 -199q5 -44 5 -100v-102q0 -108 -6.5 -228 t-16.5 -230q-13 -138 -51.5 -279t-94.5 -256q-31 -67 -65.5 -110.5t-103.5 -76.5v3q-41 -26 -88.5 -44t-98.5 -18q-38 0 -72 13h-5q-54 20 -89.5 65t-56.5 99v-3q-26 59 -41 141t-20 154q-3 23 -4 51t-1 51q0 13 -1.5 27t-1.5 27q-3 54 -5.5 111.5t-12.5 111.5 q-15 72 -19 140.5t-4 145.5zM364 1905l122 89l141 105l16 -54q-28 -20 -51.5 -36.5t-41.5 -29.5q-10 -8 -22.5 -17t-20.5 -16l-115 -80z" />
<glyph unicode="&#xfb;" horiz-adv-x="1105" d="M92 1185v31q0 64 1.5 129.5t3.5 131.5q0 20 1.5 52.5t1.5 52.5q3 69 4 143.5t1 135.5h51q0 -61 -1 -131.5t-4 -132.5q0 -23 -1.5 -60t-1.5 -60q0 -67 -1 -132t-1 -129v-31q0 -67 2.5 -136t15.5 -138q10 -46 12.5 -98.5t5.5 -100.5v-36q0 -84 7 -154q5 -61 22 -135.5 t42 -138.5q20 -41 50 -82t73 -53q10 -3 23 -5.5t26 -2.5q36 0 79.5 15.5t84.5 33.5v-3q51 31 81.5 72t59.5 100q59 123 94.5 250.5t48.5 261.5q23 225 23 455v102.5t-5 99.5q-5 97 -6.5 198.5t-1.5 198.5h54q0 -97 1.5 -198t6.5 -199q5 -44 5 -100v-102q0 -108 -6.5 -228 t-16.5 -230q-13 -138 -51.5 -279t-94.5 -256q-31 -67 -65.5 -110.5t-103.5 -76.5v3q-41 -26 -88.5 -44t-98.5 -18q-38 0 -72 13h-5q-54 20 -89.5 65t-56.5 99v-3q-26 59 -41 141t-20 154q-3 23 -4 51t-1 51q0 13 -1.5 27t-1.5 27q-3 54 -5.5 111.5t-12.5 111.5 q-15 72 -19 140.5t-4 145.5zM317 1969q59 33 73 42t25 17q36 23 66.5 43.5t27.5 22.5l198 -138l-36 -36q-49 36 -90 65.5t-61 42.5q-15 -8 -39.5 -21t-37.5 -20q-28 -20 -62.5 -45t-60.5 -37z" />
<glyph unicode="&#xfc;" horiz-adv-x="1105" d="M92 1185v31q0 64 1.5 129.5t3.5 131.5q0 20 1.5 52.5t1.5 52.5q3 69 4 143.5t1 135.5h51q0 -61 -1 -131.5t-4 -132.5q0 -23 -1.5 -60t-1.5 -60q0 -67 -1 -132t-1 -129v-31q0 -67 2.5 -136t15.5 -138q10 -46 12.5 -98.5t5.5 -100.5v-36q0 -84 7 -154q5 -61 22 -135.5 t42 -138.5q20 -41 50 -82t73 -53q10 -3 23 -5.5t26 -2.5q36 0 79.5 15.5t84.5 33.5v-3q51 31 81.5 72t59.5 100q59 123 94.5 250.5t48.5 261.5q23 225 23 455v102.5t-5 99.5q-5 97 -6.5 198.5t-1.5 198.5h54q0 -97 1.5 -198t6.5 -199q5 -44 5 -100v-102q0 -108 -6.5 -228 t-16.5 -230q-13 -138 -51.5 -279t-94.5 -256q-31 -67 -65.5 -110.5t-103.5 -76.5v3q-41 -26 -88.5 -44t-98.5 -18q-38 0 -72 13h-5q-54 20 -89.5 65t-56.5 99v-3q-26 59 -41 141t-20 154q-3 23 -4 51t-1 51q0 13 -1.5 27t-1.5 27q-3 54 -5.5 111.5t-12.5 111.5 q-15 72 -19 140.5t-4 145.5zM284 1938l16 56l171 -7v-54h-100q-20 0 -33 1t-28 4h-26zM535 1935v59q41 -5 54 -6t25 -1h110l-2 -54h-102h-43.5t-41.5 2z" />
<glyph unicode="&#x2c6;" horiz-adv-x="599" d="M110 1736q31 15 49 25.5t28 16.5t15 8.5t10 8.5q36 28 60.5 43t29.5 18l192 -128l-13 -49q-49 33 -98.5 69t-70.5 49l-76 -43h2q-20 -20 -56 -43.5t-69 -38.5z" />
<glyph unicode="&#x2000;" horiz-adv-x="1085" />
<glyph unicode="&#x2001;" horiz-adv-x="2171" />
<glyph unicode="&#x2002;" horiz-adv-x="1085" />
<glyph unicode="&#x2003;" horiz-adv-x="2171" />
<glyph unicode="&#x2004;" horiz-adv-x="723" />
<glyph unicode="&#x2005;" horiz-adv-x="542" />
<glyph unicode="&#x2006;" horiz-adv-x="361" />
<glyph unicode="&#x2007;" horiz-adv-x="361" />
<glyph unicode="&#x2008;" horiz-adv-x="271" />
<glyph unicode="&#x2009;" horiz-adv-x="434" />
<glyph unicode="&#x200a;" horiz-adv-x="120" />
<glyph unicode="&#x2010;" horiz-adv-x="721" d="M49 1001h225q10 0 23 -1.5t26 -1.5q23 -3 43.5 -2.5t30.5 0.5h263v-56h-266h-29.5t-39.5 2q-10 0 -25.5 1.5t-25.5 1.5h-15l-208 -3z" />
<glyph unicode="&#x2011;" horiz-adv-x="721" d="M49 1001h225q10 0 23 -1.5t26 -1.5q23 -3 43.5 -2.5t30.5 0.5h263v-56h-266h-29.5t-39.5 2q-10 0 -25.5 1.5t-25.5 1.5h-15l-208 -3z" />
<glyph unicode="&#x2012;" horiz-adv-x="721" d="M49 1001h225q10 0 23 -1.5t26 -1.5q23 -3 43.5 -2.5t30.5 0.5h263v-56h-266h-29.5t-39.5 2q-10 0 -25.5 1.5t-25.5 1.5h-15l-208 -3z" />
<glyph unicode="&#x2013;" horiz-adv-x="599" d="M59 932v54h225q18 0 36 1t38 1q13 0 31 -1t33 -4q20 -3 52.5 -4t55.5 1v-53h-65t-66 2q-23 3 -51 4t-56 1q-15 0 -29.5 -1t-26.5 -1h-177z" />
<glyph unicode="&#x2014;" horiz-adv-x="862" d="M59 932v54h312q28 0 55 1t55 1h31q15 0 32 -1t37 -1q38 -3 80.5 -3h73.5h46v-54h-68t-93 3q-15 0 -45 1t-48 1h-48q-26 0 -51.5 -1t-53.5 -1h-315z" />
<glyph unicode="&#x2018;" horiz-adv-x="273" d="M95 1818v41h53v-41q0 -44 4 -90t12 -87q5 -15 5 -28l13 -92h-51l-11 82q0 5 -1 7.5t-1 7.5l-5 23q-8 38 -13 84.5t-5 92.5z" />
<glyph unicode="&#x2019;" horiz-adv-x="307" d="M100 1495q5 31 11.5 73t11.5 78q5 46 14 106t17 107l56 -3q-15 -56 -21.5 -103.5t-11.5 -91.5l-8 -56q0 -15 -2.5 -34.5t-2.5 -31.5q-3 -13 -4 -21t-1 -23h-59z" />
<glyph unicode="&#x201c;" horiz-adv-x="389" d="M95 1818v41h53v-41q0 -49 8 -100t18 -100l10 -97h-53l-11 82q0 5 -1 7.5t-1 7.5l-5 23q-8 38 -13 84.5t-5 92.5zM210 1859h56q8 -151 41 -300l-54 -3q-15 74 -26.5 148.5t-16.5 154.5z" />
<glyph unicode="&#x201d;" horiz-adv-x="460" d="M125 1536q0 49 8 86t21 70q0 3 1 5.5t1 4.5q10 31 18 62t8 59v33h51v-33q0 -31 -6.5 -59t-11.5 -56l-8 -29q-10 -36 -17.5 -73t-7.5 -85h-41zM261 1510q5 33 9 66.5t9 69.5q5 46 15.5 106t20.5 107l54 -3q-13 -56 -19.5 -103.5t-11.5 -91.5l-8 -56v3l-7 -64 q-3 -13 -4.5 -23.5t-1.5 -25.5h-41z" />
<glyph unicode="&#x201e;" horiz-adv-x="417" d="M113 3q0 36 6 64t14 56t14.5 53.5t6.5 48.5v31h46v-31q0 -28 -5.5 -52.5t-10.5 -47.5q0 -5 -1 -10t-1 -7q-5 -26 -11.5 -54t-6.5 -67h-36zM192 -20q0 5 1.5 10t1.5 10l10 79q5 33 10 77t18 100h51q-13 -56 -18 -99.5t-10 -77.5q-3 -26 -5.5 -59t-7.5 -58h-33z" />
<glyph unicode="&#x202f;" horiz-adv-x="434" />
<glyph unicode="&#x2039;" horiz-adv-x="504" d="M26 963q74 79 120 143l49 54l41 41l25 28l51 51l13 5l-8 -2q10 8 20.5 19t20.5 39l39 -38q-10 -15 -21 -28q-8 -13 -15.5 -22t-4.5 -6l-13 -13l-69 -64l-46 -51q-15 -15 -28 -32t-31 -37l-38 -39q-18 -18 -17 -18t-1 -5q-8 -10 -12 -17.5t-14 -18.5q5 -5 9 -7.5t6 -7.5v3 l26 -29l87 -102l69 -85q5 -5 22 -20t22 -20q13 -13 38.5 -44t73.5 -79l-43 -39l-100 113q-5 5 -2.5 3.5t-2.5 4.5l-44 51v-3q-13 13 -27 29.5t-34 42.5v-3l-23 28l-8 8q-18 20 -33 39.5t-31 34.5l-15 11z" />
<glyph unicode="&#x203a;" horiz-adv-x="524" d="M51 1288l26 48q23 -10 35.5 -19t20.5 -19v2l15 -15q23 -28 47.5 -55t47.5 -50l26 -23l87 -87l41 -54v3l43 -44q8 -5 15.5 -12.5t18.5 -17.5l-26 -26q-33 -28 -51 -46t-33 -41q-5 -10 -17 -25.5t-17 -23.5l-64 -71v2q-10 -15 -21.5 -30.5t-21.5 -30.5q-23 -44 -60.5 -83.5 t-80.5 -75.5l-18 56q41 33 73 68t50 60q26 44 50 77t50 62l13 15l12 18l18 23v-3q15 18 30.5 38.5t33.5 36.5q-10 10 -19 22.5t-19 25.5l-21 23v-2l-125 125l-62 62l-35 41q-8 13 -24.5 27t-37.5 19z" />
<glyph unicode="&#x205f;" horiz-adv-x="542" />
<glyph unicode="&#x20ac;" horiz-adv-x="1013" d="M23 860v49h18q8 3 18 5t15 2q15 0 27 -1t22 -4q13 -3 28 -2h21q0 3 1 5t1 5v28q0 10 1.5 19t1.5 17v56h-11h-19t-24 3t-23 4t-18 1t-18 -1.5t-38 -6.5l-3 44q20 13 35.5 15.5t23.5 2.5q18 0 30.5 -1.5t25.5 -3.5q13 -3 28 -3h16q5 44 6 90t12 84q10 79 26.5 157.5 t44.5 129.5q56 113 128 192q38 44 73 67t78 28h52q5 0 7.5 1t7.5 1q28 0 52.5 -2.5t47.5 -10.5q23 -13 53.5 -44.5t53.5 -75.5q28 -44 48.5 -102.5t33.5 -125.5h-59q-8 67 -25.5 119.5t-38.5 82.5q-20 36 -43 59t-39 31q-44 20 -84 21q-5 0 -7.5 -1.5t-7.5 -1.5h-46 q-33 -5 -65.5 -30.5t-65.5 -69.5q-26 -23 -51.5 -65t-50.5 -99q-28 -51 -43.5 -126.5t-28.5 -147.5q-8 -44 -11.5 -80.5t-9.5 -80.5h113q15 0 30.5 -1t30.5 -1h108q15 0 30.5 -1.5t30.5 -1.5h77q15 0 36 1.5t38 3.5l77 8q0 -3 3 -3h13q5 -3 23 -2l-3 -52h-31q-3 0 -4 1.5 t-6 1.5l-72 -8q-20 0 -38 -1t-36 -1h-79q-15 0 -30.5 1t-31.5 1h-105h-61h-115l-3 -130q3 0 4 -1.5t4 -1.5h23q10 0 23 -1t26 -1h48q15 0 29.5 -1.5t27.5 -1.5h166q15 0 32 1.5t29 3.5l70 8h38v-49h-38q-15 0 -32 -1t-35 -4l-64 -8h-18q-13 0 -25.5 1.5t-25.5 1.5h-46 q-28 3 -54 3h-54h-133v-113q0 -5 1.5 -9t1.5 -9q0 -38 1 -81.5t6 -82.5q10 -67 29.5 -133t45.5 -123q20 -51 44.5 -93t52.5 -71q20 -20 33 -31.5t26 -16.5l13 -5l23 -11q20 -10 48 -10h20.5t23.5 3q36 0 43 2q10 0 31 21l18 13v-3q20 15 35.5 29t23.5 27q13 15 29.5 60 t29.5 84l48 -3q-13 -51 -25.5 -82t-25.5 -59q-3 -3 -2 -13q-10 -20 -29.5 -35.5t-40.5 -33.5h3l-15 -15q-31 -26 -41.5 -31t-20.5 -10q-8 -3 -23 -4t-25 -1q-13 -3 -28.5 -3h-28.5q-18 0 -35.5 2.5t-30.5 8.5q-5 5 -13 8.5t-13 9.5q-44 20 -87 61q-38 36 -64 82t-51 100 q-20 54 -41 121.5t-31 144.5q-8 38 -9 88t-1 86q0 5 -1.5 9t-1.5 9v115h-15h-19.5t-21.5 3q-26 5 -36 5q-5 0 -13 -3z" />
<glyph unicode="&#x25fc;" horiz-adv-x="1885" d="M0 0v1885h1885v-1885h-1885z" />
</font>
</defs>
</svg>
